<svg width="122" height="121" viewBox="0 0 122 121" fill="none" xmlns="http://www.w3.org/2000/svg">
<path d="M2.30444 19.4109V119.391H101.996V61.7894L104.447 58.9093" stroke="url(#paint0_linear)" stroke-width="3"/>
<path d="M99.1349 18.1765L97.5006 18.9994L97.092 20.6452V21.468V22.2909L97.5006 23.5253L98.3178 24.7596L99.5435 23.5253L101.178 25.171L102.403 24.3481L103.629 23.1138V21.468V19.8223L102.403 18.588L100.769 18.1765H99.1349Z" stroke="url(#paint1_linear)" stroke-width="3"/>
<path d="M98.3185 39.5718L96.6842 40.3947L96.2756 42.0404V42.8633V43.6862L96.6842 44.9205L97.5014 46.1548L99.1356 46.5663H100.77L101.996 45.7434L102.813 44.5091V42.8633V41.2175L101.587 39.9832L99.9528 39.5718H98.3185Z" stroke="url(#paint2_linear)" stroke-width="3"/>
<path d="M109.76 7.47906L108.125 8.30195L107.717 9.94771V10.7706V11.5935L108.125 12.8278L108.943 14.0621L110.577 14.4736H112.211L113.437 13.6507L114.254 12.4164V10.7706V9.12483L113.028 7.89051L111.394 7.47906H109.76Z" stroke="url(#paint3_linear)" stroke-width="3"/>
<path d="M90.9644 106.637L88.5129 109.517L90.9644 113.631L88.9215 109.517L95.8672 109.928" stroke="url(#paint4_linear)" stroke-width="3"/>
<path d="M52.1497 62.2008V50.6805H70.5354V62.2008H52.1497Z" stroke="url(#paint5_linear)" stroke-width="3"/>
<path d="M91.7815 2.13043V19.8224" stroke="url(#paint6_linear)" stroke-width="3"/>
<path d="M92.1897 2.13043H119.155V29.2856H105.673" stroke="url(#paint7_linear)" stroke-width="3"/>
<path d="M42.3459 20.2339V39.1602" stroke="url(#paint8_linear)" stroke-width="3"/>
<path d="M81.5679 19.8223V41.2173" stroke="url(#paint9_linear)" stroke-width="3"/>
<path d="M81.5679 45.7431V119.391" stroke="url(#paint10_linear)" stroke-width="3"/>
<path d="M2.30444 39.5718H81.5674" stroke="url(#paint11_linear)" stroke-width="3"/>
<path d="M79.9336 43.2744L101.588 63.8465" stroke="url(#paint12_linear)" stroke-width="3"/>
<path d="M79.9336 43.2747L99.545 23.937L119.565 43.2747L115.071 48.6234" stroke="url(#paint13_linear)" stroke-width="3"/>
<path d="M108.533 54.795L110.985 51.9149" stroke="url(#paint14_linear)" stroke-width="3"/>
<path d="M37.0325 19.8223H91.7811V30.9312" stroke="url(#paint15_linear)" stroke-width="3"/>
<path d="M28.0445 19.8223H2.30444" stroke="url(#paint16_linear)" stroke-width="3"/>
<path d="M22.3247 19.8223L22.7333 119.391M62.3647 19.8223V39.5715" stroke="url(#paint17_linear)" stroke-width="3"/>
<path d="M2.71313 99.6423H101.588" stroke="url(#paint18_linear)" stroke-width="3"/>
<path d="M42.3459 99.6423V118.98" stroke="url(#paint19_linear)" stroke-width="3"/>
<path d="M62.365 99.6423V118.98" stroke="url(#paint20_linear)" stroke-width="3"/>
<path d="M2.30444 59.7322H23.1416" stroke="url(#paint21_linear)" stroke-width="3"/>
<path d="M2.30444 79.8931H23.1416" stroke="url(#paint22_linear)" stroke-width="3"/>
<path d="M37.4422 77.4243H32.5393V88.1217H51.3336V77.4243H43.9793" stroke="url(#paint23_linear)" stroke-width="3"/>
<defs>
<linearGradient id="paint0_linear" x1="53.3759" y1="19.4109" x2="53.3759" y2="119.391" gradientUnits="userSpaceOnUse">
<stop stop-color="#FBBD15"/>
<stop offset="0.708333" stop-color="#F38B31"/>
<stop offset="0.708433" stop-color="#F38B31"/>
<stop offset="1" stop-color="#E88775"/>
</linearGradient>
<linearGradient id="paint1_linear" x1="100.361" y1="18.1765" x2="100.361" y2="25.171" gradientUnits="userSpaceOnUse">
<stop stop-color="#FBBD15"/>
<stop offset="0.708333" stop-color="#F38B31"/>
<stop offset="0.708433" stop-color="#F38B31"/>
<stop offset="1" stop-color="#E88775"/>
</linearGradient>
<linearGradient id="paint2_linear" x1="99.5442" y1="39.5718" x2="99.5442" y2="46.5663" gradientUnits="userSpaceOnUse">
<stop stop-color="#FBBD15"/>
<stop offset="0.708333" stop-color="#F38B31"/>
<stop offset="0.708433" stop-color="#F38B31"/>
<stop offset="1" stop-color="#E88775"/>
</linearGradient>
<linearGradient id="paint3_linear" x1="110.985" y1="7.47906" x2="110.985" y2="14.4736" gradientUnits="userSpaceOnUse">
<stop stop-color="#FBBD15"/>
<stop offset="0.708333" stop-color="#F38B31"/>
<stop offset="0.708433" stop-color="#F38B31"/>
<stop offset="1" stop-color="#E88775"/>
</linearGradient>
<linearGradient id="paint4_linear" x1="92.1901" y1="106.637" x2="92.1901" y2="113.631" gradientUnits="userSpaceOnUse">
<stop stop-color="#FBBD15"/>
<stop offset="0.708333" stop-color="#F38B31"/>
<stop offset="0.708433" stop-color="#F38B31"/>
<stop offset="1" stop-color="#E88775"/>
</linearGradient>
<linearGradient id="paint5_linear" x1="61.3425" y1="50.6805" x2="61.3425" y2="62.2008" gradientUnits="userSpaceOnUse">
<stop stop-color="#FBBD15"/>
<stop offset="0.708333" stop-color="#F38B31"/>
<stop offset="0.708433" stop-color="#F38B31"/>
<stop offset="1" stop-color="#E88775"/>
</linearGradient>
<linearGradient id="paint6_linear" x1="92.2815" y1="2.13043" x2="92.2815" y2="19.8224" gradientUnits="userSpaceOnUse">
<stop stop-color="#FBBD15"/>
<stop offset="0.708333" stop-color="#F38B31"/>
<stop offset="0.708433" stop-color="#F38B31"/>
<stop offset="1" stop-color="#E88775"/>
</linearGradient>
<linearGradient id="paint7_linear" x1="105.673" y1="2.13043" x2="105.673" y2="29.2856" gradientUnits="userSpaceOnUse">
<stop stop-color="#FBBD15"/>
<stop offset="0.708333" stop-color="#F38B31"/>
<stop offset="0.708433" stop-color="#F38B31"/>
<stop offset="1" stop-color="#E88775"/>
</linearGradient>
<linearGradient id="paint8_linear" x1="42.8459" y1="20.2339" x2="42.8459" y2="39.1602" gradientUnits="userSpaceOnUse">
<stop stop-color="#FBBD15"/>
<stop offset="0.708333" stop-color="#F38B31"/>
<stop offset="0.708433" stop-color="#F38B31"/>
<stop offset="1" stop-color="#E88775"/>
</linearGradient>
<linearGradient id="paint9_linear" x1="82.0679" y1="19.8223" x2="82.0679" y2="41.2173" gradientUnits="userSpaceOnUse">
<stop stop-color="#FBBD15"/>
<stop offset="0.708333" stop-color="#F38B31"/>
<stop offset="0.708433" stop-color="#F38B31"/>
<stop offset="1" stop-color="#E88775"/>
</linearGradient>
<linearGradient id="paint10_linear" x1="82.0679" y1="45.7431" x2="82.0679" y2="119.391" gradientUnits="userSpaceOnUse">
<stop stop-color="#FBBD15"/>
<stop offset="0.708333" stop-color="#F38B31"/>
<stop offset="0.708433" stop-color="#F38B31"/>
<stop offset="1" stop-color="#E88775"/>
</linearGradient>
<linearGradient id="paint11_linear" x1="41.9359" y1="39.5718" x2="41.9359" y2="40.5718" gradientUnits="userSpaceOnUse">
<stop stop-color="#FBBD15"/>
<stop offset="0.708333" stop-color="#F38B31"/>
<stop offset="0.708433" stop-color="#F38B31"/>
<stop offset="1" stop-color="#E88775"/>
</linearGradient>
<linearGradient id="paint12_linear" x1="90.7607" y1="43.2744" x2="90.7607" y2="63.8465" gradientUnits="userSpaceOnUse">
<stop stop-color="#FBBD15"/>
<stop offset="0.708333" stop-color="#F38B31"/>
<stop offset="0.708433" stop-color="#F38B31"/>
<stop offset="1" stop-color="#E88775"/>
</linearGradient>
<linearGradient id="paint13_linear" x1="99.7493" y1="23.937" x2="99.7493" y2="48.6234" gradientUnits="userSpaceOnUse">
<stop stop-color="#FBBD15"/>
<stop offset="0.708333" stop-color="#F38B31"/>
<stop offset="0.708433" stop-color="#F38B31"/>
<stop offset="1" stop-color="#E88775"/>
</linearGradient>
<linearGradient id="paint14_linear" x1="109.759" y1="51.9149" x2="109.759" y2="54.795" gradientUnits="userSpaceOnUse">
<stop stop-color="#FBBD15"/>
<stop offset="0.708333" stop-color="#F38B31"/>
<stop offset="0.708433" stop-color="#F38B31"/>
<stop offset="1" stop-color="#E88775"/>
</linearGradient>
<linearGradient id="paint15_linear" x1="64.4068" y1="19.8223" x2="64.4068" y2="30.9312" gradientUnits="userSpaceOnUse">
<stop stop-color="#FBBD15"/>
<stop offset="0.708333" stop-color="#F38B31"/>
<stop offset="0.708433" stop-color="#F38B31"/>
<stop offset="1" stop-color="#E88775"/>
</linearGradient>
<linearGradient id="paint16_linear" x1="15.1745" y1="19.8223" x2="15.1745" y2="20.8223" gradientUnits="userSpaceOnUse">
<stop stop-color="#FBBD15"/>
<stop offset="0.708333" stop-color="#F38B31"/>
<stop offset="0.708433" stop-color="#F38B31"/>
<stop offset="1" stop-color="#E88775"/>
</linearGradient>
<linearGradient id="paint17_linear" x1="42.3447" y1="19.8223" x2="42.3447" y2="119.391" gradientUnits="userSpaceOnUse">
<stop stop-color="#FBBD15"/>
<stop offset="0.708333" stop-color="#F38B31"/>
<stop offset="0.708433" stop-color="#F38B31"/>
<stop offset="1" stop-color="#E88775"/>
</linearGradient>
<linearGradient id="paint18_linear" x1="52.1503" y1="99.6423" x2="52.1503" y2="100.642" gradientUnits="userSpaceOnUse">
<stop stop-color="#FBBD15"/>
<stop offset="0.708333" stop-color="#F38B31"/>
<stop offset="0.708433" stop-color="#F38B31"/>
<stop offset="1" stop-color="#E88775"/>
</linearGradient>
<linearGradient id="paint19_linear" x1="42.8459" y1="99.6423" x2="42.8459" y2="118.98" gradientUnits="userSpaceOnUse">
<stop stop-color="#FBBD15"/>
<stop offset="0.708333" stop-color="#F38B31"/>
<stop offset="0.708433" stop-color="#F38B31"/>
<stop offset="1" stop-color="#E88775"/>
</linearGradient>
<linearGradient id="paint20_linear" x1="62.865" y1="99.6423" x2="62.865" y2="118.98" gradientUnits="userSpaceOnUse">
<stop stop-color="#FBBD15"/>
<stop offset="0.708333" stop-color="#F38B31"/>
<stop offset="0.708433" stop-color="#F38B31"/>
<stop offset="1" stop-color="#E88775"/>
</linearGradient>
<linearGradient id="paint21_linear" x1="12.723" y1="59.7322" x2="12.723" y2="60.7322" gradientUnits="userSpaceOnUse">
<stop stop-color="#FBBD15"/>
<stop offset="0.708333" stop-color="#F38B31"/>
<stop offset="0.708433" stop-color="#F38B31"/>
<stop offset="1" stop-color="#E88775"/>
</linearGradient>
<linearGradient id="paint22_linear" x1="12.723" y1="79.8931" x2="12.723" y2="80.8931" gradientUnits="userSpaceOnUse">
<stop stop-color="#FBBD15"/>
<stop offset="0.708333" stop-color="#F38B31"/>
<stop offset="0.708433" stop-color="#F38B31"/>
<stop offset="1" stop-color="#E88775"/>
</linearGradient>
<linearGradient id="paint23_linear" x1="41.9365" y1="77.4243" x2="41.9365" y2="88.1217" gradientUnits="userSpaceOnUse">
<stop stop-color="#FBBD15"/>
<stop offset="0.708333" stop-color="#F38B31"/>
<stop offset="0.708433" stop-color="#F38B31"/>
<stop offset="1" stop-color="#E88775"/>
</linearGradient>
</defs>
</svg>
