<svg width="127" height="126" viewBox="0 0 127 126" fill="none" xmlns="http://www.w3.org/2000/svg">
<path d="M37.3416 95.5595L42.1727 100.298L46.1986 103.458L51.8349 105.827L56.6661 107.407L62.3024 108.196H69.5491L75.1854 107.407L80.0165 105.827C81.0901 105.3 83.3983 104.089 84.0424 103.458C84.6866 102.826 85.9212 101.088 86.458 100.298L89.6788 93.9799" stroke="url(#paint0_linear)" stroke-width="2"/>
<path d="M45.3936 102.668V108.986V113.725L43.7832 119.253L42.978 124.782H54.2507H84.8478V120.833L83.2374 116.094V113.725V109.776V106.617V104.247" stroke="url(#paint1_linear)" stroke-width="2"/>
<path d="M32.511 26.8463L37.3421 21.3177L45.394 15.789L55.0562 12.6298L63.1081 11.0502L74.3807 12.6298L86.4586 19.738L96.1208 26.8463" stroke="url(#paint2_linear)" stroke-width="2"/>
<path d="M29.2898 21.3175L34.9261 13.4195L41.3676 7.89084L52.6402 3.152L60.6921 1.57239L71.9647 2.36219L81.627 6.31122L91.2893 13.4195L99.3411 19.7379" stroke="url(#paint3_linear)" stroke-width="2"/>
<path d="M63.9128 2.36243V11.0503" stroke="url(#paint4_linear)" stroke-width="2"/>
<path d="M86.4588 9.47058L82.4329 16.5788" stroke="url(#paint5_linear)" stroke-width="2"/>
<path d="M95.3155 15.7891L91.2896 22.8973" stroke="url(#paint6_linear)" stroke-width="2"/>
<path d="M32.511 17.3686L37.3421 21.3176" stroke="url(#paint7_linear)" stroke-width="2"/>
<path d="M39.7571 9.47058L46.1986 15.789" stroke="url(#paint8_linear)" stroke-width="2"/>
<path d="M51.0298 3.94189L55.8609 12.6298M75.9906 3.94189L74.3802 12.6298" stroke="url(#paint9_linear)" stroke-width="2"/>
<path d="M54.2505 75.8142C54.8946 75.1823 55.5925 74.4978 56.6661 74.2346L59.8868 73.4448H63.1076H65.5231H68.7439L71.1594 74.2346L73.575 75.8142" stroke="url(#paint10_linear)" stroke-width="2"/>
<path d="M63.9128 43.4321V58.1325" stroke="url(#paint11_linear)" stroke-width="2"/>
<path d="M38.1465 52.9099L44.588 53.6997L51.0295 52.9099" stroke="url(#paint12_linear)" stroke-width="2"/>
<path d="M78.4065 52.1202L84.848 52.91L91.2895 52.1202" stroke="url(#paint13_linear)" stroke-width="2"/>
<path d="M23.6532 0.782593V14.2093L32.5102 26.8462L33.3154 31.585V38.6933V45.8015L35.731 53.6996L37.3414 60.8079V64.7569L36.5362 67.1263L33.3154 68.7059H29.2895L26.0687 67.1263M26.0687 67.1263L23.6532 57.6486L19.6272 45.8015L26.0687 67.1263ZM26.0687 67.1263L27.6791 71.8651L38.9517 90.8205L37.3414 95.5593L33.3154 97.9287H29.2895L12.3805 71.8651L1.91309 40.2729V0.782593" stroke="url(#paint14_linear)" stroke-width="2"/>
<path d="M105.783 0.782593V12.6297L98.5365 21.3176L94.5106 32.3748V47.3812L90.4846 61.5977V65.5467L92.095 67.9161L96.1209 69.4957H98.5365L101.757 67.9161M101.757 67.9161L109.004 45.8015M101.757 67.9161L90.4846 89.2409L89.6794 93.9797L90.4846 95.5593L92.095 97.9287H96.1209L100.147 95.5593L115.445 71.0753L125.913 39.4831V0.782593" stroke="url(#paint15_linear)" stroke-width="2"/>
<path d="M35.4979 39.7323L39.8816 38.0832L42.9777 37.4858L45.7117 37.4858L49.4194 38.0833L52.6403 39.7323" stroke="url(#paint16_linear)" stroke-width="2"/>
<path d="M75.1849 40.2545L79.5686 38.6055L82.6647 38.008L85.3987 38.008L89.1064 38.6055L92.3273 40.2545" stroke="url(#paint17_linear)" stroke-width="2"/>
<defs>
<linearGradient id="paint0_linear" x1="63.5102" y1="93.9799" x2="63.5102" y2="108.196" gradientUnits="userSpaceOnUse">
<stop offset="0.265625" stop-color="#EF7844"/>
<stop offset="1" stop-color="#F6AA2F"/>
</linearGradient>
<linearGradient id="paint1_linear" x1="63.9129" y1="102.668" x2="63.9129" y2="124.782" gradientUnits="userSpaceOnUse">
<stop offset="0.265625" stop-color="#EF7844"/>
<stop offset="1" stop-color="#F6AA2F"/>
</linearGradient>
<linearGradient id="paint2_linear" x1="64.3159" y1="11.0502" x2="64.3159" y2="26.8463" gradientUnits="userSpaceOnUse">
<stop offset="0.265625" stop-color="#EF7844"/>
<stop offset="1" stop-color="#F6AA2F"/>
</linearGradient>
<linearGradient id="paint3_linear" x1="64.3155" y1="1.57239" x2="64.3155" y2="21.3175" gradientUnits="userSpaceOnUse">
<stop offset="0.265625" stop-color="#EF7844"/>
<stop offset="1" stop-color="#F6AA2F"/>
</linearGradient>
<linearGradient id="paint4_linear" x1="64.4128" y1="2.36243" x2="64.4128" y2="11.0503" gradientUnits="userSpaceOnUse">
<stop offset="0.265625" stop-color="#EF7844"/>
<stop offset="1" stop-color="#F6AA2F"/>
</linearGradient>
<linearGradient id="paint5_linear" x1="84.4458" y1="9.47058" x2="84.4458" y2="16.5788" gradientUnits="userSpaceOnUse">
<stop offset="0.265625" stop-color="#EF7844"/>
<stop offset="1" stop-color="#F6AA2F"/>
</linearGradient>
<linearGradient id="paint6_linear" x1="93.3025" y1="15.7891" x2="93.3025" y2="22.8973" gradientUnits="userSpaceOnUse">
<stop offset="0.265625" stop-color="#EF7844"/>
<stop offset="1" stop-color="#F6AA2F"/>
</linearGradient>
<linearGradient id="paint7_linear" x1="34.9265" y1="17.3686" x2="34.9265" y2="21.3176" gradientUnits="userSpaceOnUse">
<stop offset="0.265625" stop-color="#EF7844"/>
<stop offset="1" stop-color="#F6AA2F"/>
</linearGradient>
<linearGradient id="paint8_linear" x1="42.9778" y1="9.47058" x2="42.9778" y2="15.789" gradientUnits="userSpaceOnUse">
<stop offset="0.265625" stop-color="#EF7844"/>
<stop offset="1" stop-color="#F6AA2F"/>
</linearGradient>
<linearGradient id="paint9_linear" x1="63.5102" y1="3.94189" x2="63.5102" y2="12.6298" gradientUnits="userSpaceOnUse">
<stop offset="0.265625" stop-color="#EF7844"/>
<stop offset="1" stop-color="#F6AA2F"/>
</linearGradient>
<linearGradient id="paint10_linear" x1="63.9127" y1="73.4448" x2="63.9127" y2="75.8142" gradientUnits="userSpaceOnUse">
<stop offset="0.265625" stop-color="#EF7844"/>
<stop offset="1" stop-color="#F6AA2F"/>
</linearGradient>
<linearGradient id="paint11_linear" x1="64.4128" y1="43.4321" x2="64.4128" y2="64.7569" gradientUnits="userSpaceOnUse">
<stop offset="0.265625" stop-color="#EF7844"/>
<stop offset="1" stop-color="#F6AA2F"/>
</linearGradient>
<linearGradient id="paint12_linear" x1="44.588" y1="52.9099" x2="44.588" y2="53.6997" gradientUnits="userSpaceOnUse">
<stop offset="0.265625" stop-color="#EF7844"/>
<stop offset="1" stop-color="#F6AA2F"/>
</linearGradient>
<linearGradient id="paint13_linear" x1="84.848" y1="52.1202" x2="84.848" y2="52.91" gradientUnits="userSpaceOnUse">
<stop offset="0.265625" stop-color="#EF7844"/>
<stop offset="1" stop-color="#F6AA2F"/>
</linearGradient>
<linearGradient id="paint14_linear" x1="20.4324" y1="0.782593" x2="20.4324" y2="97.9287" gradientUnits="userSpaceOnUse">
<stop offset="0.265625" stop-color="#EF7844"/>
<stop offset="1" stop-color="#F6AA2F"/>
</linearGradient>
<linearGradient id="paint15_linear" x1="107.796" y1="0.782593" x2="107.796" y2="97.9287" gradientUnits="userSpaceOnUse">
<stop offset="0.265625" stop-color="#EF7844"/>
<stop offset="1" stop-color="#F6AA2F"/>
</linearGradient>
<linearGradient id="paint16_linear" x1="44.5168" y1="37.2369" x2="43.8375" y2="41.172" gradientUnits="userSpaceOnUse">
<stop offset="0.265625" stop-color="#EF7844"/>
<stop offset="1" stop-color="#F6AA2F"/>
</linearGradient>
<linearGradient id="paint17_linear" x1="84.2038" y1="37.7591" x2="83.5245" y2="41.6942" gradientUnits="userSpaceOnUse">
<stop offset="0.265625" stop-color="#EF7844"/>
<stop offset="1" stop-color="#F6AA2F"/>
</linearGradient>
</defs>
</svg>
