<svg width="134" height="135" viewBox="0 0 134 135" fill="none" xmlns="http://www.w3.org/2000/svg">
<path d="M131.957 114.943L81.6747 30.4105L80.7768 29.5207L77.1853 26.8513L71.7979 25.0717H68.2064L63.7169 26.8513L61.0233 28.6309L22.414 93.5873L10.7415 113.163V118.502L13.4351 126.51L17.0267 129.18L20.6182 130.96L26.0056 132.739H116.692L123.876 130.96L128.365 126.51L131.059 122.951L131.957 118.502V114.943Z" stroke="url(#paint0_linear)" stroke-width="3"/>
<path d="M1.21729 65.4469L56.9477 2L64.6642 7.07575L1.21729 86.5959" stroke="url(#paint1_linear)" stroke-width="3"/>
<path d="M51.4351 8.836L60.0933 14.8175" stroke="url(#paint2_linear)" stroke-width="3"/>
<path d="M47.106 13.9631L54.8984 19.9446" stroke="url(#paint3_linear)" stroke-width="3"/>
<path d="M80.0452 5.84527L78.1226 8.72922V11.6132V13.5358L79.0839 15.4584L80.0452 17.3811L81.0065 18.3424L81.9678 19.3037L82.9291 20.265L84.8518 21.2263H85.8131H89.6584L91.581 20.265L93.5036 19.3037L94.465 18.3424L95.4263 17.3811L96.3876 16.4198L97.3489 14.4971V13.5358V12.5745V11.6132V9.69054L96.3876 7.7679L95.4263 5.84527L93.5036 3.92263L89.6584 2H86.7744L83.8905 2.96132L81.9678 3.92263L80.0452 5.84527Z" stroke="url(#paint4_linear)" stroke-width="3"/>
<path d="M64.4718 38.1455L62.7415 40.7411V43.3366V45.067L63.6066 46.7974L64.4718 48.5278L65.337 49.3929L66.2022 50.2581L67.0674 51.1233L68.7978 51.9885H69.6629H73.1237L74.8541 51.1233L76.5844 50.2581L77.4496 49.3929L78.3148 48.5278L79.18 47.6626L80.0452 45.9322V45.067V44.2018V43.3366V41.6063L79.18 39.8759L78.3148 38.1455L76.5844 36.4152L73.1237 34.6848H70.5281L67.9326 35.55L66.2022 36.4152L64.4718 38.1455Z" stroke="url(#paint5_linear)" stroke-width="3"/>
<path d="M76.0077 57.3719L74.2773 59.9674V62.563V64.2934L75.1425 66.0237L76.0077 67.7541L76.8729 68.6193L77.7381 69.4845L78.6033 70.3497L80.3336 71.2148H81.1988H84.6596L86.3899 70.3497L88.1203 69.4845L88.9855 68.6193L89.8507 67.7541L90.7159 66.8889L91.5811 65.1585V64.2934V63.4282V62.563V60.8326L90.7159 59.1022L89.8507 57.3719L88.1203 55.6415L84.6596 53.9111H82.064L79.4685 54.7763L77.7381 55.6415L76.0077 57.3719Z" stroke="url(#paint6_linear)" stroke-width="3"/>
<path d="M86.1142 80.5709L85.1919 83.5143L85.9298 85.9722L86.4218 87.6108L87.7439 89.0066L89.066 90.4024L90.1421 90.9789L91.2183 91.5555L92.2944 92.132L94.2007 92.4657L95.0308 92.223L98.3514 91.2519L99.7657 89.9471L101.18 88.6422L101.764 87.5802L102.348 86.5181L102.932 85.456L103.271 83.5747L103.025 82.7554L102.779 81.9361L102.533 81.1168L102.041 79.4782L100.719 78.0824L99.3965 76.6866L97.2442 75.5335L93.4317 74.866L90.9413 75.5943L88.6968 77.1419L87.2825 78.4468L86.1142 80.5709Z" stroke="url(#paint7_linear)" stroke-width="3"/>
<path d="M99.9682 95.952L99.0459 98.8954L99.7838 101.353L100.276 102.992L101.598 104.388L102.92 105.784L103.996 106.36L105.072 106.937L106.148 107.513L108.055 107.847L108.885 107.604L112.205 106.633L113.62 105.328L115.034 104.023L115.618 102.961L116.202 101.899L116.786 100.837L117.125 98.9558L116.879 98.1365L116.633 97.3172L116.387 96.4979L115.895 94.8594L114.573 93.4635L113.251 92.0677L111.098 90.9147L107.286 90.2472L104.795 90.9755L102.551 92.5231L101.137 93.8279L99.9682 95.952Z" stroke="url(#paint8_linear)" stroke-width="3"/>
<path d="M105.163 114.751L104.241 117.695L104.979 120.152L105.471 121.791L106.793 123.187L108.115 124.583L109.191 125.159L110.267 125.736L111.343 126.312L113.25 126.646L114.08 126.403L117.4 125.432L118.815 124.127L120.229 122.822L120.813 121.76L121.397 120.698L121.982 119.636L122.32 117.755L122.074 116.936L121.828 116.116L121.582 115.297L121.09 113.658L119.768 112.263L118.446 110.867L116.293 109.714L112.481 109.046L109.99 109.775L107.746 111.322L106.332 112.627L105.163 114.751Z" stroke="url(#paint9_linear)" stroke-width="3"/>
<path d="M87.8459 116.46L86.9236 119.403L87.6615 121.861L88.1535 123.5L89.4756 124.896L90.7977 126.291L91.8738 126.868L92.95 127.445L94.0261 128.021L95.9324 128.355L96.7625 128.112L100.083 127.141L101.497 125.836L102.912 124.531L103.496 123.469L104.08 122.407L104.664 121.345L105.002 119.464L104.756 118.644L104.51 117.825L104.264 117.006L103.772 115.367L102.45 113.971L101.128 112.576L98.9759 111.423L95.1634 110.755L92.673 111.483L90.4285 113.031L89.0142 114.336L87.8459 116.46Z" stroke="url(#paint10_linear)" stroke-width="3"/>
<path d="M65.3349 116.46L64.4126 119.403L65.1505 121.861L65.6425 123.5L66.9646 124.896L68.2867 126.291L69.3628 126.868L70.439 127.445L71.5151 128.021L73.4214 128.355L74.2515 128.112L77.5721 127.141L78.9864 125.836L80.4007 124.531L80.9849 123.469L81.569 122.407L82.1532 121.345L82.4914 119.464L82.2454 118.644L81.9994 117.825L81.7534 117.006L81.2614 115.367L79.9393 113.971L78.6172 112.576L76.465 111.423L72.6524 110.755L70.162 111.483L67.9175 113.031L66.5032 114.336L65.3349 116.46Z" stroke="url(#paint11_linear)" stroke-width="3"/>
<path d="M41.092 116.46L40.1696 119.403L40.9076 121.861L41.3996 123.5L42.7217 124.896L44.0438 126.291L45.1199 126.868L46.1961 127.445L47.2722 128.021L49.1785 128.355L50.0086 128.112L53.3292 127.141L54.7435 125.836L56.1578 124.531L56.7419 123.469L57.3261 122.407L57.9103 121.345L58.2484 119.464L58.0025 118.644L57.7565 117.825L57.5105 117.006L57.0185 115.367L55.6964 113.971L54.3743 112.576L52.222 111.423L48.4095 110.755L45.9191 111.483L43.6746 113.031L42.2603 114.336L41.092 116.46Z" stroke="url(#paint12_linear)" stroke-width="3"/>
<path d="M16.8488 114.751L15.9265 117.695L16.6644 120.152L17.1564 121.791L18.4785 123.187L19.8006 124.583L20.8768 125.159L21.9529 125.736L23.029 126.312L24.9353 126.646L25.7654 126.403L29.086 125.432L30.5003 124.127L31.9146 122.822L32.4988 121.76L33.0829 120.698L33.6671 119.636L34.0053 117.755L33.7593 116.936L33.5133 116.116L33.2673 115.297L32.7754 113.658L31.4532 112.263L30.1311 110.867L27.9789 109.714L24.1663 109.046L21.6759 109.775L19.4314 111.322L18.0171 112.627L16.8488 114.751Z" stroke="url(#paint13_linear)" stroke-width="3"/>
<path d="M25.5073 95.952L24.5849 98.8954L25.3229 101.353L25.8149 102.992L27.137 104.388L28.4591 105.784L29.5352 106.36L30.6113 106.937L31.6875 107.513L33.5937 107.847L34.4239 107.604L37.7445 106.633L39.1588 105.328L40.5731 104.023L41.1572 102.961L41.7414 101.899L42.3255 100.837L42.6637 98.9558L42.4177 98.1365L42.1718 97.3172L41.9258 96.4979L41.4338 94.8594L40.1117 93.4635L38.7896 92.0677L36.6373 90.9147L32.8248 90.2472L30.3343 90.9755L28.0899 92.5231L26.6756 93.8279L25.5073 95.952Z" stroke="url(#paint14_linear)" stroke-width="3"/>
<path d="M37.6288 78.8619L36.7065 81.8053L37.4445 84.2631L37.9364 85.9017L39.2585 87.2975L40.5807 88.6934L41.6568 89.2699L42.7329 89.8464L43.809 90.4229L45.7153 90.7567L46.5455 90.5139L49.866 89.5428L51.2803 88.238L52.6946 86.9332L53.2788 85.8711L53.863 84.8091L54.4471 83.747L54.7853 81.8656L54.5393 81.0464L54.2933 80.2271L54.0473 79.4078L53.5554 77.7692L52.2333 76.3734L50.9112 74.9775L48.7589 73.8245L44.9464 73.157L42.4559 73.8853L40.2115 75.4329L38.7972 76.7377L37.6288 78.8619Z" stroke="url(#paint15_linear)" stroke-width="3"/>
<path d="M51.4816 60.0628L50.5593 63.0062L51.2972 65.4641L51.7892 67.1027L53.1113 68.4985L54.4334 69.8943L55.5096 70.4708L56.5857 71.0473L57.6618 71.6239L59.5681 71.9576L60.3982 71.7149L63.7188 70.7438L65.1331 69.4389L66.5474 68.1341L67.1316 67.0721L67.7158 66.01L68.2999 64.9479L68.6381 63.0666L68.3921 62.2473L68.1461 61.428L67.9001 60.6087L67.4082 58.9701L66.0861 57.5743L64.7639 56.1785L62.6117 55.0254L58.7991 54.3579L56.3087 55.0862L54.0643 56.6338L52.6499 57.9387L51.4816 60.0628Z" stroke="url(#paint16_linear)" stroke-width="3"/>
<path d="M61.8718 80.5709L60.9494 83.5143L61.6874 85.9722L62.1794 87.6108L63.5015 89.0066L64.8236 90.4024L65.8997 90.9789L66.9758 91.5555L68.052 92.132L69.9582 92.4657L70.7884 92.223L74.109 91.2519L75.5233 89.9471L76.9376 88.6422L77.5217 87.5802L78.1059 86.5181L78.69 85.456L79.0282 83.5747L78.7822 82.7554L78.5363 81.9361L78.2903 81.1168L77.7983 79.4782L76.4762 78.0824L75.1541 76.6866L73.0018 75.5335L69.1893 74.866L66.6988 75.5943L64.4544 77.1419L63.0401 78.4468L61.8718 80.5709Z" stroke="url(#paint17_linear)" stroke-width="3"/>
<path d="M73.9931 97.661L73.0708 100.604L73.8087 103.062L74.3007 104.701L75.6228 106.097L76.9449 107.492L78.021 108.069L79.0972 108.646L80.1733 109.222L82.0796 109.556L82.9097 109.313L86.2303 108.342L87.6446 107.037L89.0589 105.732L89.6431 104.67L90.2272 103.608L90.8114 102.546L91.1496 100.665L90.9036 99.8455L90.6576 99.0262L90.4116 98.2069L89.9196 96.5683L88.5975 95.1725L87.2754 93.7767L85.1232 92.6236L81.3106 91.9561L78.8202 92.6844L76.5757 94.232L75.1614 95.5369L73.9931 97.661Z" stroke="url(#paint18_linear)" stroke-width="3"/>
<path d="M49.7502 97.661L48.8278 100.604L49.5658 103.062L50.0578 104.701L51.3799 106.097L52.702 107.492L53.7781 108.069L54.8543 108.646L55.9304 109.222L57.8367 109.556L58.6668 109.313L61.9874 108.342L63.4017 107.037L64.816 105.732L65.4001 104.67L65.9843 103.608L66.5685 102.546L66.9066 100.665L66.6607 99.8455L66.4147 99.0262L66.1687 98.2069L65.6767 96.5683L64.3546 95.1725L63.0325 93.7767L60.8802 92.6236L57.0677 91.9561L54.5773 92.6844L52.3328 94.232L50.9185 95.5369L49.7502 97.661Z" stroke="url(#paint19_linear)" stroke-width="3"/>
<defs>
<linearGradient id="paint0_linear" x1="71.349" y1="25.0717" x2="71.349" y2="132.739" gradientUnits="userSpaceOnUse">
<stop offset="0.0729167" stop-color="#EF743D"/>
<stop offset="0.817708" stop-color="#F7A828"/>
</linearGradient>
<linearGradient id="paint1_linear" x1="32.9408" y1="2" x2="32.9408" y2="86.5959" gradientUnits="userSpaceOnUse">
<stop offset="0.0729167" stop-color="#EF743D"/>
<stop offset="0.817708" stop-color="#F7A828"/>
</linearGradient>
<linearGradient id="paint2_linear" x1="55.7642" y1="8.836" x2="55.7642" y2="14.8175" gradientUnits="userSpaceOnUse">
<stop offset="0.0729167" stop-color="#EF743D"/>
<stop offset="0.817708" stop-color="#F7A828"/>
</linearGradient>
<linearGradient id="paint3_linear" x1="51.0022" y1="13.9631" x2="51.0022" y2="19.9446" gradientUnits="userSpaceOnUse">
<stop offset="0.0729167" stop-color="#EF743D"/>
<stop offset="0.817708" stop-color="#F7A828"/>
</linearGradient>
<linearGradient id="paint4_linear" x1="87.7357" y1="2" x2="87.7357" y2="21.2263" gradientUnits="userSpaceOnUse">
<stop offset="0.0729167" stop-color="#EF743D"/>
<stop offset="0.817708" stop-color="#F7A828"/>
</linearGradient>
<linearGradient id="paint5_linear" x1="71.3933" y1="34.6848" x2="71.3933" y2="51.9885" gradientUnits="userSpaceOnUse">
<stop offset="0.0729167" stop-color="#EF743D"/>
<stop offset="0.817708" stop-color="#F7A828"/>
</linearGradient>
<linearGradient id="paint6_linear" x1="82.9292" y1="53.9111" x2="82.9292" y2="71.2148" gradientUnits="userSpaceOnUse">
<stop offset="0.0729167" stop-color="#EF743D"/>
<stop offset="0.817708" stop-color="#F7A828"/>
</linearGradient>
<linearGradient id="paint7_linear" x1="91.7714" y1="75.3516" x2="96.5734" y2="91.7719" gradientUnits="userSpaceOnUse">
<stop offset="0.0729167" stop-color="#EF743D"/>
<stop offset="0.817708" stop-color="#F7A828"/>
</linearGradient>
<linearGradient id="paint8_linear" x1="105.625" y1="90.7327" x2="110.427" y2="107.153" gradientUnits="userSpaceOnUse">
<stop offset="0.0729167" stop-color="#EF743D"/>
<stop offset="0.817708" stop-color="#F7A828"/>
</linearGradient>
<linearGradient id="paint9_linear" x1="110.82" y1="109.532" x2="115.622" y2="125.952" gradientUnits="userSpaceOnUse">
<stop offset="0.0729167" stop-color="#EF743D"/>
<stop offset="0.817708" stop-color="#F7A828"/>
</linearGradient>
<linearGradient id="paint10_linear" x1="93.5031" y1="111.241" x2="98.3051" y2="127.661" gradientUnits="userSpaceOnUse">
<stop offset="0.0729167" stop-color="#EF743D"/>
<stop offset="0.817708" stop-color="#F7A828"/>
</linearGradient>
<linearGradient id="paint11_linear" x1="70.9921" y1="111.241" x2="75.7941" y2="127.661" gradientUnits="userSpaceOnUse">
<stop offset="0.0729167" stop-color="#EF743D"/>
<stop offset="0.817708" stop-color="#F7A828"/>
</linearGradient>
<linearGradient id="paint12_linear" x1="46.7492" y1="111.241" x2="51.5512" y2="127.661" gradientUnits="userSpaceOnUse">
<stop offset="0.0729167" stop-color="#EF743D"/>
<stop offset="0.817708" stop-color="#F7A828"/>
</linearGradient>
<linearGradient id="paint13_linear" x1="22.506" y1="109.532" x2="27.308" y2="125.952" gradientUnits="userSpaceOnUse">
<stop offset="0.0729167" stop-color="#EF743D"/>
<stop offset="0.817708" stop-color="#F7A828"/>
</linearGradient>
<linearGradient id="paint14_linear" x1="31.1645" y1="90.7327" x2="35.9665" y2="107.153" gradientUnits="userSpaceOnUse">
<stop offset="0.0729167" stop-color="#EF743D"/>
<stop offset="0.817708" stop-color="#F7A828"/>
</linearGradient>
<linearGradient id="paint15_linear" x1="43.2861" y1="73.6425" x2="48.088" y2="90.0628" gradientUnits="userSpaceOnUse">
<stop offset="0.0729167" stop-color="#EF743D"/>
<stop offset="0.817708" stop-color="#F7A828"/>
</linearGradient>
<linearGradient id="paint16_linear" x1="57.1388" y1="54.8435" x2="61.9408" y2="71.2637" gradientUnits="userSpaceOnUse">
<stop offset="0.0729167" stop-color="#EF743D"/>
<stop offset="0.817708" stop-color="#F7A828"/>
</linearGradient>
<linearGradient id="paint17_linear" x1="67.529" y1="75.3516" x2="72.331" y2="91.7719" gradientUnits="userSpaceOnUse">
<stop offset="0.0729167" stop-color="#EF743D"/>
<stop offset="0.817708" stop-color="#F7A828"/>
</linearGradient>
<linearGradient id="paint18_linear" x1="79.6503" y1="92.4417" x2="84.4523" y2="108.862" gradientUnits="userSpaceOnUse">
<stop offset="0.0729167" stop-color="#EF743D"/>
<stop offset="0.817708" stop-color="#F7A828"/>
</linearGradient>
<linearGradient id="paint19_linear" x1="55.4074" y1="92.4417" x2="60.2094" y2="108.862" gradientUnits="userSpaceOnUse">
<stop offset="0.0729167" stop-color="#EF743D"/>
<stop offset="0.817708" stop-color="#F7A828"/>
</linearGradient>
</defs>
</svg>
