<svg width="143" height="119" viewBox="0 0 143 119" fill="none" xmlns="http://www.w3.org/2000/svg">
<path d="M36.2974 98.912V6.12383C36.2974 5.53156 36.4727 4.95253 36.8012 4.45973L37.4345 3.50985C37.9909 2.67525 38.9276 2.17395 39.9306 2.17395H41.3666H70.2614H101.184H102.725C103.047 2.17395 103.368 2.22593 103.673 2.3279L105.277 2.8623C105.909 3.07327 106.454 3.48917 106.824 4.04425L107.777 5.47358C108.105 5.96638 108.281 6.54541 108.281 7.13768V97.476C108.281 98.1251 108.023 98.7477 107.564 99.2067L106.253 100.518L105.084 101.687C104.533 102.237 103.79 102.552 103.012 102.565L42.8925 103.551C42.5536 103.556 42.2162 103.504 41.8946 103.397L39.7201 102.672C39.4671 102.588 39.2265 102.47 39.0046 102.322L37.6333 101.408C36.7987 100.852 36.2974 99.915 36.2974 98.912Z" stroke="url(#paint0_linear)" stroke-opacity="0.77" stroke-width="3"/>
<path d="M108.28 12.3125L139.71 23.4649L140.724 25.4926V27.5203L139.71 31.5757L111.322 112.684L108.28 115.725L106.253 116.739L96.1141 113.698L70.7678 104.573" stroke="#ED6B3C" stroke-opacity="0.77" stroke-width="3"/>
<path d="M36.2971 10.2848L5.88158 22.451L2.84002 24.4787L1.82617 26.5064V29.5479L35.2833 113.698L38.3248 116.739H41.3664L71.7819 104.573" stroke="#ED6B3C" stroke-opacity="0.77" stroke-width="3"/>
<path d="M47.6794 13.4436H49.6619V14.2981H47.6794V16.5442H46.7712V14.2981H44.7888V13.4436H46.7712V11.3684H47.6794V13.4436ZM54.4861 14.8694H55.4724V15.6067H54.4861V17.257H53.5779V15.6067H50.3406V15.0744L53.5242 10.1477H54.4861V14.8694ZM51.366 14.8694H53.5779V11.383L53.4705 11.5783L51.366 14.8694Z" fill="#FAB919"/>
<path d="M113.679 23.4014H114.358C114.784 23.3949 115.12 23.2826 115.364 23.0645C115.608 22.8464 115.73 22.5518 115.73 22.1807C115.73 21.3474 115.315 20.9307 114.485 20.9307C114.094 20.9307 113.782 21.043 113.547 21.2676C113.316 21.489 113.201 21.7836 113.201 22.1514H112.297C112.297 21.5883 112.502 21.1212 112.913 20.7501C113.326 20.3757 113.85 20.1885 114.485 20.1885C115.155 20.1885 115.681 20.3659 116.062 20.7208C116.443 21.0756 116.633 21.5687 116.633 22.2003C116.633 22.5095 116.532 22.809 116.331 23.0987C116.132 23.3884 115.86 23.6049 115.515 23.7481C115.906 23.8718 116.207 24.0769 116.418 24.3633C116.633 24.6498 116.741 24.9997 116.741 25.4131C116.741 26.0512 116.532 26.5574 116.116 26.9317C115.699 27.3061 115.157 27.4932 114.49 27.4932C113.822 27.4932 113.279 27.3126 112.859 26.9512C112.442 26.5899 112.234 26.113 112.234 25.5206H113.142C113.142 25.8949 113.264 26.1944 113.508 26.419C113.752 26.6436 114.08 26.7559 114.49 26.7559C114.926 26.7559 115.26 26.642 115.491 26.4141C115.722 26.1863 115.837 25.8591 115.837 25.4327C115.837 25.0193 115.71 24.7019 115.457 24.4805C115.203 24.2592 114.836 24.1452 114.358 24.1387H113.679V23.4014Z" fill="#FAB919"/>
<path d="M11.1809 25.6098H13.1633V26.4643H11.1809V28.7104H10.2727V26.4643H8.29028V25.6098H10.2727V23.5346H11.1809V25.6098ZM18.8323 29.4233H14.1741V28.7739L16.635 26.0395C16.9996 25.6261 17.2502 25.2908 17.387 25.0337C17.5269 24.7732 17.5969 24.5047 17.5969 24.228C17.5969 23.8569 17.4846 23.5525 17.26 23.3149C17.0354 23.0773 16.7359 22.9585 16.3616 22.9585C15.9124 22.9585 15.5624 23.087 15.3118 23.3442C15.0644 23.5981 14.9407 23.9529 14.9407 24.4087H14.0374C14.0374 23.7544 14.2473 23.2254 14.6672 22.8217C15.0904 22.4181 15.6552 22.2163 16.3616 22.2163C17.0224 22.2163 17.5448 22.3904 17.929 22.7387C18.3131 23.0838 18.5051 23.5444 18.5051 24.1206C18.5051 24.8204 18.0592 25.6538 17.1672 26.6206L15.2629 28.686H18.8323V29.4233Z" fill="#FAB919"/>
<path d="M48.4634 73.1435V52.8665H60.6296V73.1435H48.4634Z" stroke="url(#paint1_linear)" stroke-width="3"/>
<path d="M64.6848 52.8666V32.5895H76.851V52.8666H64.6848Z" stroke="url(#paint2_linear)" stroke-width="3"/>
<path d="M84.9619 56.9219V36.6449H97.1281V56.9219H84.9619Z" stroke="url(#paint3_linear)" stroke-width="3"/>
<path d="M68.7402 79.2266V58.9496H80.9065V79.2266H68.7402Z" stroke="url(#paint4_linear)" stroke-width="3"/>
<defs>
<linearGradient id="paint0_linear" x1="72.2891" y1="2.17395" x2="72.2891" y2="103.559" gradientUnits="userSpaceOnUse">
<stop stop-color="#FBB918"/>
<stop offset="1" stop-color="#ED6B3C"/>
</linearGradient>
<linearGradient id="paint1_linear" x1="54.5465" y1="52.8665" x2="54.5465" y2="73.1435" gradientUnits="userSpaceOnUse">
<stop stop-color="#F8AD24"/>
<stop offset="1" stop-color="#ED693C"/>
</linearGradient>
<linearGradient id="paint2_linear" x1="70.7679" y1="32.5895" x2="70.7679" y2="52.8666" gradientUnits="userSpaceOnUse">
<stop stop-color="#FCC012"/>
<stop offset="1" stop-color="#EE6D3C"/>
</linearGradient>
<linearGradient id="paint3_linear" x1="91.045" y1="36.6449" x2="91.045" y2="56.9219" gradientUnits="userSpaceOnUse">
<stop stop-color="#FCC012"/>
<stop offset="1" stop-color="#EE6D3C"/>
</linearGradient>
<linearGradient id="paint4_linear" x1="74.8233" y1="58.9496" x2="74.8233" y2="79.2266" gradientUnits="userSpaceOnUse">
<stop stop-color="#FCC012"/>
<stop offset="1" stop-color="#EE6D3C"/>
</linearGradient>
</defs>
</svg>
