<svg width="617" height="595" viewBox="0 0 617 595" fill="none" xmlns="http://www.w3.org/2000/svg">
<path d="M113 502.451V157.328V150C113 144.477 117.477 140 123 140H440C445.523 140 450 144.477 450 150V517C450 522.523 445.523 527 440 527H123C117.477 527 113 522.523 113 517V502.451Z" stroke="url(#paint0_linear)" stroke-width="5"/>
<path d="M421 203.754V87.8209C421 84.6061 423.606 82 426.821 82H604C609.523 82 614 86.4772 614 92V202C614 207.523 609.523 212 604 212H429.246C424.692 212 421 208.308 421 203.754Z" stroke="url(#paint1_linear)" stroke-width="5"/>
<path d="M3 165.026V10.7463C3 6.46812 6.46812 3 10.7463 3H183C188.523 3 193 7.47715 193 13V166C193 171.523 188.523 176 183 176H13C7.47715 176 3 171.523 3 166V165.026Z" stroke="url(#paint2_linear)" stroke-width="5"/>
<path d="M405 583.754V467.821C405 464.606 407.606 462 410.821 462H588C593.523 462 598 466.477 598 472V582C598 587.523 593.523 592 588 592H413.246C408.692 592 405 588.308 405 583.754Z" stroke="url(#paint3_linear)" stroke-width="5"/>
<path d="M327.183 251.564H312.968V272.269H326.168" stroke="#FE662E" stroke-width="2"/>
<path d="M199.248 299.875H369.831" stroke="#FE662E" stroke-width="2"/>
<path d="M242.905 250.577H256.105V270.296V272.268H242.905" stroke="#FE662E" stroke-width="2"/>
<path d="M241.895 238.746V287.057" stroke="#FE662E" stroke-width="2"/>
<path d="M235.8 322.552V340.299V344.242L233.769 346.214L229.707 348.186H225.646L222.6 350.158L221.584 352.13L220.569 355.088V359.032V370.863V371.849V374.807M220.569 374.807H194.169L189.092 375.793L185.031 380.722L183 385.652V393.54V418.188L187.062 422.132L192.138 424.104H200.261L203.308 421.146L205.338 416.216L207.369 410.301L210.415 408.329H229.707L233.769 409.315L236.815 411.287L238.846 416.216L240.876 420.16L242.907 422.132L245.953 423.118H248.999H254.076L257.122 422.132L259.153 420.16L261.184 417.202V414.244V384.666L258.138 377.765L254.076 375.793L250.015 374.807H245.953H237.83H220.569Z" stroke="#FE662E" stroke-width="2"/>
<path d="M333.274 323.539V342.272L334.29 344.244L336.32 346.216L340.382 347.202L345.459 348.188L347.49 350.159V354.103L346.474 357.061V363.963V373.822M346.474 372.836V375.794M346.474 375.794H320.074L314.998 376.78L310.936 381.71L308.905 386.639V394.527V419.175L312.967 423.119L318.044 425.091H326.167L329.213 422.133L331.244 417.204L333.274 411.288L336.32 409.316H355.613L359.674 410.302L362.72 412.274L364.751 417.204L366.782 421.147L368.812 423.119L371.859 424.105H374.905H379.982L383.028 423.119L385.058 421.147L387.089 418.189V415.232V385.653L384.043 378.752L379.982 376.78L375.92 375.794H371.859H363.736H346.474Z" stroke="#FE662E" stroke-width="2"/>
<path d="M201.278 385.651V397.483" stroke="#FE662E" stroke-width="2"/>
<path d="M327.186 386.638V398.469" stroke="#FE662E" stroke-width="2"/>
<path d="M194.167 391.568H207.367" stroke="#FE662E" stroke-width="2"/>
<path d="M320.075 392.554H333.275" stroke="#FE662E" stroke-width="2"/>
<path d="M265.763 322.014H207.829L199.246 315.83V227.185L207.829 221H365.538L369.829 227.185V315.83L362.319 322.014H302.24M265.763 322.014L262.188 338.327H252.533L249.67 341.599L248.597 345.229L247.984 349.172L248.597 353.116L252.046 356.074L318.045 356.029L320.478 354.102L322.106 350.875V344.243L320.478 341.599L314.999 338.327H306.876L302.24 322.014M265.763 322.014H302.24" stroke="#FE662E" stroke-width="2"/>
<path d="M262.198 337.342H306.875" stroke="#FE662E" stroke-width="2"/>
<rect x="227.678" y="388.609" width="8.123" height="7.88754" fill="#FE662E"/>
<rect x="353.582" y="389.597" width="8.123" height="7.88754" fill="#FE662E"/>
<rect x="241.895" y="388.609" width="8.123" height="7.88754" fill="#FE662E"/>
<rect x="367.8" y="388.609" width="8.123" height="7.88754" fill="#FE662E"/>
<path d="M241.895 287.061H327.186V237.764H284.54M241.895 237.764H284.54M284.54 237.764V254.525L280.479 255.511L277.433 257.483L276.417 260.44V264.384L277.433 266.356L279.463 268.328L282.51 269.314H284.54L285.556 286.075" stroke="#FE662E" stroke-width="2"/>
<path d="M284.539 269.311H287.585L289.616 268.325L291.647 267.339L292.662 264.381V262.409L291.647 258.465L290.631 256.493L288.601 255.507L284.539 254.521" stroke="#FE662E" stroke-width="2"/>
<path d="M89.4648 39.6553L95.95 44.0656" stroke="#FE662E" stroke-width="2"/>
<path d="M86.2217 43.4365L92.0583 47.8468" stroke="#FE662E" stroke-width="2"/>
<path d="M149.778 117.89L112.116 55.5624L111.444 54.9063L108.754 52.9381L104.719 51.626H102.028L98.6658 52.9381L96.6482 54.2503L67.7293 102.144L58.9863 116.577V120.514L61.0039 126.418L63.6941 128.387L66.3842 129.699L70.4194 131.011H138.345L143.725 129.699L147.088 126.418L149.106 123.794L149.778 120.514V117.89Z" stroke="#FE662E" stroke-width="2"/>
<path d="M51.8506 81.3957L93.5935 34.6152L99.3733 38.3577L51.8506 96.9892" stroke="#FE662E" stroke-width="2"/>
<path d="M110.893 37.4514L109.453 39.5778V41.7042V43.1217L110.173 44.5393L110.893 45.9569L111.613 46.6657L112.333 47.3745L113.053 48.0833L114.493 48.7921H115.213H118.094L119.534 48.0833L120.974 47.3745L121.694 46.6657L122.414 45.9569L123.134 45.2481L123.854 43.8305V43.1217V42.413V41.7042V40.2866L123.134 38.869L122.414 37.4514L120.974 36.0338L118.094 34.6162H115.933L113.773 35.325L112.333 36.0338L110.893 37.4514Z" stroke="#FE662E" stroke-width="2"/>
<path d="M99.2306 61.2655L97.9346 63.1793V65.093V66.3689L98.5826 67.6447L99.2306 68.9205L99.8787 69.5584L100.527 70.1963L101.175 70.8343L102.471 71.4722H103.119H105.711L107.007 70.8343L108.303 70.1963L108.951 69.5584L109.599 68.9205L110.247 68.2826L110.895 67.0068V66.3689V65.7309V65.093V63.8172L110.247 62.5414L109.599 61.2655L108.303 59.9897L105.711 58.7139H103.767L101.823 59.3518L100.527 59.9897L99.2306 61.2655Z" stroke="#FE662E" stroke-width="2"/>
<path d="M107.872 75.4413L106.576 77.3551V79.2688V80.5446L107.224 81.8205L107.872 83.0963L108.52 83.7342L109.168 84.3721L109.816 85.01L111.112 85.648H111.76H114.353L115.649 85.01L116.945 84.3721L117.593 83.7342L118.241 83.0963L118.889 82.4584L119.537 81.1825V80.5446V79.9067V79.2688V77.993L118.889 76.7171L118.241 75.4413L116.945 74.1655L114.353 72.8896H112.409L110.464 73.5276L109.168 74.1655L107.872 75.4413Z" stroke="#FE662E" stroke-width="2"/>
<path d="M115.44 92.5466L114.749 94.7168L115.301 96.5291L115.67 97.7372L116.66 98.7664L117.651 99.7955L118.457 100.221L119.263 100.646L120.069 101.071L121.496 101.317L122.118 101.138L124.605 100.422L125.665 99.4598L126.724 98.4977L127.162 97.7146L127.599 96.9316L128.037 96.1485L128.29 94.7613L128.106 94.1573L127.922 93.5532L127.737 92.9491L127.369 91.741L126.378 90.7118L125.388 89.6826L123.776 88.8325L120.92 88.3403L119.055 88.8773L117.374 90.0184L116.315 90.9804L115.44 92.5466Z" stroke="#FE662E" stroke-width="2"/>
<path d="M125.816 103.888L125.125 106.059L125.677 107.871L126.046 109.079L127.036 110.108L128.026 111.137L128.833 111.562L129.639 111.987L130.445 112.413L131.872 112.659L132.494 112.48L134.981 111.764L136.041 110.802L137.1 109.84L137.538 109.056L137.975 108.273L138.413 107.49L138.666 106.103L138.482 105.499L138.297 104.895L138.113 104.291L137.745 103.083L136.754 102.054L135.764 101.024L134.152 100.174L131.296 99.6821L129.431 100.219L127.75 101.36L126.691 102.322L125.816 103.888Z" stroke="#FE662E" stroke-width="2"/>
<path d="M129.708 117.749L129.017 119.919L129.57 121.731L129.938 122.939L130.929 123.969L131.919 124.998L132.725 125.423L133.531 125.848L134.337 126.273L135.765 126.519L136.387 126.34L138.874 125.624L139.933 124.662L140.993 123.7L141.43 122.917L141.868 122.134L142.305 121.351L142.559 119.963L142.374 119.359L142.19 118.755L142.006 118.151L141.637 116.943L140.647 115.914L139.657 114.885L138.045 114.035L135.189 113.542L133.324 114.079L131.643 115.221L130.583 116.183L129.708 117.749Z" stroke="#FE662E" stroke-width="2"/>
<path d="M116.737 119.009L116.047 121.179L116.599 122.991L116.968 124.199L117.958 125.228L118.948 126.257L119.754 126.683L120.56 127.108L121.366 127.533L122.794 127.779L123.416 127.6L125.903 126.884L126.963 125.922L128.022 124.96L128.459 124.177L128.897 123.393L129.335 122.61L129.588 121.223L129.404 120.619L129.219 120.015L129.035 119.411L128.667 118.203L127.676 117.174L126.686 116.145L125.074 115.294L122.218 114.802L120.353 115.339L118.672 116.48L117.612 117.442L116.737 119.009Z" stroke="#FE662E" stroke-width="2"/>
<path d="M99.8761 119.009L99.1852 121.179L99.738 122.991L100.106 124.199L101.097 125.228L102.087 126.257L102.893 126.683L103.699 127.108L104.505 127.533L105.933 127.779L106.555 127.6L109.042 126.884L110.101 125.922L111.161 124.96L111.598 124.177L112.036 123.393L112.473 122.61L112.727 121.223L112.542 120.619L112.358 120.015L112.174 119.411L111.805 118.203L110.815 117.174L109.825 116.145L108.213 115.294L105.357 114.802L103.492 115.339L101.81 116.48L100.751 117.442L99.8761 119.009Z" stroke="#FE662E" stroke-width="2"/>
<path d="M81.7159 119.009L81.0251 121.179L81.5778 122.991L81.9463 124.199L82.9366 125.228L83.9269 126.257L84.7329 126.683L85.5389 127.108L86.345 127.533L87.7728 127.779L88.3946 127.6L90.8818 126.884L91.9411 125.922L93.0004 124.96L93.438 124.177L93.8755 123.393L94.3131 122.61L94.5664 121.223L94.3821 120.619L94.1979 120.015L94.0136 119.411L93.6451 118.203L92.6549 117.174L91.6646 116.145L90.0525 115.294L87.1968 114.802L85.3315 115.339L83.6503 116.48L82.591 117.442L81.7159 119.009Z" stroke="#FE662E" stroke-width="2"/>
<path d="M63.5606 117.749L62.8698 119.919L63.4225 121.731L63.791 122.939L64.7813 123.969L65.7716 124.998L66.5776 125.423L67.3837 125.848L68.1897 126.273L69.6175 126.519L70.2393 126.34L72.7265 125.624L73.7858 124.662L74.8452 123.7L75.2827 122.917L75.7203 122.134L76.1578 121.351L76.4111 119.963L76.2268 119.359L76.0426 118.755L75.8584 118.151L75.4899 116.943L74.4996 115.914L73.5093 114.885L71.8972 114.035L69.0416 113.542L67.1762 114.079L65.4951 115.221L64.4357 116.183L63.5606 117.749Z" stroke="#FE662E" stroke-width="2"/>
<path d="M70.044 103.888L69.3532 106.059L69.9059 107.871L70.2744 109.079L71.2647 110.108L72.255 111.137L73.061 111.562L73.8671 111.987L74.6731 112.413L76.1009 112.659L76.7227 112.48L79.2099 111.764L80.2692 110.802L81.3286 109.84L81.7661 109.056L82.2037 108.273L82.6412 107.49L82.8945 106.103L82.7102 105.499L82.526 104.895L82.3418 104.291L81.9733 103.083L80.983 102.054L79.9927 101.024L78.3806 100.174L75.525 99.6821L73.6596 100.219L71.9785 101.36L70.9191 102.322L70.044 103.888Z" stroke="#FE662E" stroke-width="2"/>
<path d="M79.1222 91.2868L78.4313 93.4571L78.9841 95.2693L79.3526 96.4775L80.3428 97.5066L81.3331 98.5358L82.1392 98.9609L82.9452 99.3859L83.7512 99.811L85.1791 100.057L85.8009 99.8781L88.288 99.1621L89.3474 98.2L90.4067 97.238L90.8442 96.4549L91.2818 95.6718L91.7193 94.8887L91.9726 93.5016L91.7884 92.8975L91.6041 92.2934L91.4199 91.6893L91.0514 90.4812L90.0611 89.452L89.0708 88.4229L87.4587 87.5727L84.6031 87.0805L82.7377 87.6175L81.0566 88.7586L79.9973 89.7207L79.1222 91.2868Z" stroke="#FE662E" stroke-width="2"/>
<path d="M89.5001 77.4265L88.8093 79.5967L89.362 81.4089L89.7305 82.6171L90.7208 83.6463L91.7111 84.6754L92.5171 85.1005L93.3231 85.5256L94.1292 85.9507L95.557 86.1967L96.1788 86.0177L98.6659 85.3018L99.7253 84.3397L100.785 83.3776L101.222 82.5945L101.66 81.8115L102.097 81.0284L102.351 79.6412L102.166 79.0371L101.982 78.4331L101.798 77.829L101.429 76.6208L100.439 75.5917L99.4488 74.5625L97.8367 73.7124L94.981 73.2202L93.1156 73.7572L91.4345 74.8983L90.3752 75.8603L89.5001 77.4265Z" stroke="#FE662E" stroke-width="2"/>
<path d="M97.2823 92.5466L96.5915 94.7168L97.1442 96.5291L97.5127 97.7372L98.503 98.7664L99.4933 99.7955L100.299 100.221L101.105 100.646L101.911 101.071L103.339 101.317L103.961 101.138L106.448 100.422L107.508 99.4598L108.567 98.4977L109.004 97.7146L109.442 96.9316L109.879 96.1485L110.133 94.7613L109.949 94.1573L109.764 93.5532L109.58 92.9491L109.212 91.741L108.221 90.7118L107.231 89.6826L105.619 88.8325L102.763 88.3403L100.898 88.8773L99.2167 90.0184L98.1574 90.9804L97.2823 92.5466Z" stroke="#FE662E" stroke-width="2"/>
<path d="M106.361 105.147L105.671 107.317L106.223 109.13L106.592 110.338L107.582 111.367L108.572 112.396L109.378 112.821L110.184 113.246L110.99 113.671L112.418 113.917L113.04 113.738L115.527 113.022L116.587 112.06L117.646 111.098L118.083 110.315L118.521 109.532L118.959 108.749L119.212 107.362L119.028 106.758L118.843 106.154L118.659 105.55L118.291 104.342L117.3 103.312L116.31 102.283L114.698 101.433L111.842 100.941L109.977 101.478L108.296 102.619L107.237 103.581L106.361 105.147Z" stroke="#FE662E" stroke-width="2"/>
<path d="M88.2022 105.147L87.5114 107.317L88.0641 109.13L88.4326 110.338L89.4229 111.367L90.4132 112.396L91.2192 112.821L92.0253 113.246L92.8313 113.671L94.2591 113.917L94.8809 113.738L97.3681 113.022L98.4274 112.06L99.4868 111.098L99.9243 110.315L100.362 109.532L100.799 108.749L101.053 107.362L100.868 106.758L100.684 106.154L100.5 105.55L100.131 104.342L99.1412 103.312L98.1509 102.283L96.5388 101.433L93.6832 100.941L91.8178 101.478L90.1367 102.619L89.0773 103.581L88.2022 105.147Z" stroke="#FE662E" stroke-width="2"/>
<path d="M521.815 150.099L512.185 140.321L491.721 159.878L490.919 161.051L490.518 162.615V164.18L491.32 166.136L492.524 167.7L493.728 168.873L495.734 170.047L498.141 170.438H499.746L501.753 169.656L521.815 150.099Z" stroke="#FE662E" stroke-width="2"/>
<path d="M506.567 145.015L503.357 139.93L501.752 134.063L501.351 130.152L501.752 125.459L502.554 121.548M516.999 155.184L520.209 157.14L527.03 159.095H534.253L538.265 158.444M502.554 121.548L503.357 119.201L504.561 116.463L505.764 114.507L506.968 112.552L508.974 109.814L511.783 107.467L514.191 105.511L518.203 103.165L524.222 100.818L531.043 99.6445H537.062L541.877 100.818L546.29 102.774L549.902 104.729L553.112 107.467L555.519 109.814L557.926 112.943L559.531 115.681L561.538 119.983L562.741 123.503L563.544 128.197V132.108L562.34 136.41L560.334 141.886L557.124 146.971L553.112 151.273L547.895 155.184L541.475 157.922L538.265 158.444M502.554 121.548L538.265 158.444" stroke="#FE662E" stroke-width="2"/>
<path d="M539.47 164.962H541.877" stroke="#FE662E" stroke-width="2"/>
<path d="M545.088 164.962H550.304" stroke="#FE662E" stroke-width="2"/>
<path d="M535.457 170.438H544.686" stroke="#FE662E" stroke-width="2"/>
<path d="M547.896 170.438H550.304" stroke="#FE662E" stroke-width="2"/>
<path d="M531.044 175.914H536.661" stroke="#FE662E" stroke-width="2"/>
<path d="M538.668 175.914H549.502" stroke="#FE662E" stroke-width="2"/>
<path d="M554.717 164.572L553.513 166.919L553.112 168.092L552.711 171.221L553.513 173.959L554.316 175.914L556.322 177.87L559.532 179.435L561.538 179.826H564.347L567.156 179.043L569.563 177.479L570.767 175.523L571.57 173.959L571.971 172.003V170.439L571.57 168.483L570.767 166.136L569.563 164.572L568.36 163.399L566.353 161.834L564.347 161.052H561.538L558.73 161.443L556.322 163.007L554.717 164.572Z" stroke="#FE662E" stroke-width="2"/>
<path d="M491.841 546.455L495.228 549.778L498.051 551.993L502.003 553.654L505.391 554.762L509.343 555.316H514.424L518.376 554.762L521.763 553.654C522.516 553.285 524.134 552.436 524.586 551.993C525.038 551.55 525.903 550.332 526.28 549.778L528.538 545.348" stroke="#FE662E" stroke-width="2"/>
<path d="M497.487 551.438V555.869V559.191L496.358 563.068L495.793 566.944H503.697H525.151V564.176L524.022 560.853V559.191V556.423V554.207V552.546" stroke="#FE662E" stroke-width="2"/>
<path d="M488.453 498.275L491.841 494.398L497.486 490.522L504.261 488.307L509.907 487.199L517.811 488.307L526.28 493.291L533.055 498.275" stroke="#FE662E" stroke-width="2"/>
<path d="M486.194 494.398L490.146 488.86L494.663 484.984L502.567 481.661L508.213 480.554L516.117 481.107L522.892 483.876L529.667 488.86L535.312 493.291" stroke="#FE662E" stroke-width="2"/>
<path d="M510.473 481.107V487.199" stroke="#FE662E" stroke-width="2"/>
<path d="M526.282 486.092L523.459 491.076" stroke="#FE662E" stroke-width="2"/>
<path d="M532.489 490.521L529.666 495.506" stroke="#FE662E" stroke-width="2"/>
<path d="M488.453 491.63L491.841 494.399" stroke="#FE662E" stroke-width="2"/>
<path d="M493.534 486.092L498.051 490.522" stroke="#FE662E" stroke-width="2"/>
<path d="M501.439 482.215L504.827 488.306M518.941 482.215L517.812 488.306" stroke="#FE662E" stroke-width="2"/>
<path d="M503.697 532.61C504.149 532.167 504.638 531.687 505.391 531.502L507.649 530.948H509.908H511.601H513.86L515.553 531.502L517.247 532.61" stroke="#FE662E" stroke-width="2"/>
<path d="M510.473 509.904V520.212" stroke="#FE662E" stroke-width="2"/>
<path d="M492.406 516.55L496.923 517.104L501.439 516.55" stroke="#FE662E" stroke-width="2"/>
<path d="M520.634 515.996L525.15 516.55L529.667 515.996" stroke="#FE662E" stroke-width="2"/>
<path d="M482.244 480V489.414L488.454 498.275L489.018 501.598V506.582V511.566L490.712 517.104L491.841 522.088V524.857L491.277 526.518L489.018 527.626H486.196L483.937 526.518M483.937 526.518L482.244 519.873L479.421 511.566L483.937 526.518ZM483.937 526.518L485.066 529.841L492.97 543.132L491.841 546.454L489.018 548.116H486.196L474.339 529.841L467 507.689V480" stroke="#FE662E" stroke-width="2"/>
<path d="M539.831 480V488.307L534.749 494.398L531.927 502.151V512.673L529.104 522.641V525.41L530.233 527.072L533.056 528.179H534.749L537.008 527.072M537.008 527.072L542.089 511.566M537.008 527.072L529.104 542.024L528.539 545.347L529.104 546.454L530.233 548.116H533.056L535.879 546.454L546.605 529.287L553.945 507.135V480" stroke="#FE662E" stroke-width="2"/>
<path d="M490.548 507.311L493.622 506.154L495.793 505.736L497.71 505.736L500.31 506.154L502.568 507.311" stroke="#FE662E" stroke-width="2"/>
<path d="M518.377 507.676L521.45 506.52L523.621 506.101L525.538 506.101L528.138 506.52L530.396 507.676" stroke="#FE662E" stroke-width="2"/>
<defs>
<linearGradient id="paint0_linear" x1="281.5" y1="140" x2="281.5" y2="527" gradientUnits="userSpaceOnUse">
<stop offset="0.172393" stop-color="#36357E"/>
<stop offset="0.828655" stop-color="#FE662E"/>
</linearGradient>
<linearGradient id="paint1_linear" x1="517.5" y1="82" x2="517.5" y2="212" gradientUnits="userSpaceOnUse">
<stop offset="0.172393" stop-color="#36357E"/>
<stop offset="0.828655" stop-color="#FE662E"/>
</linearGradient>
<linearGradient id="paint2_linear" x1="98" y1="3" x2="98" y2="176" gradientUnits="userSpaceOnUse">
<stop offset="0.172393" stop-color="#36357E"/>
<stop offset="0.828655" stop-color="#FE662E"/>
</linearGradient>
<linearGradient id="paint3_linear" x1="501.5" y1="462" x2="501.5" y2="592" gradientUnits="userSpaceOnUse">
<stop offset="0.172393" stop-color="#36357E"/>
<stop offset="0.828655" stop-color="#FE662E"/>
</linearGradient>
</defs>
</svg>
