<svg width="657" height="486" viewBox="0 0 657 486" fill="none" xmlns="http://www.w3.org/2000/svg">
<path d="M3 275.868V16.0455V13C3 7.47715 7.47716 3 13 3H347.977C353.5 3 357.977 7.47717 357.977 13V284.349C357.977 289.872 353.5 294.349 347.977 294.349H13C7.47715 294.349 3 289.872 3 284.349V275.868Z" stroke="url(#paint0_linear)" stroke-width="5"/>
<path d="M52.2128 219.593L57.0878 205.519H59.5487L53.2206 222.581H51.2284L44.912 205.519H47.3612L52.2128 219.593ZM60.3925 216.124C60.3925 214.882 60.6347 213.765 61.119 212.772C61.6112 211.78 62.2909 211.015 63.1581 210.476C64.0331 209.937 65.0292 209.667 66.1464 209.667C67.873 209.667 69.2675 210.265 70.33 211.46C71.4003 212.655 71.9355 214.245 71.9355 216.229V216.382C71.9355 217.616 71.6972 218.726 71.2206 219.71C70.7519 220.687 70.0761 221.448 69.1933 221.995C68.3183 222.542 67.3105 222.815 66.1698 222.815C64.4511 222.815 63.0565 222.218 61.9862 221.022C60.9237 219.827 60.3925 218.245 60.3925 216.276V216.124ZM62.5722 216.382C62.5722 217.788 62.8964 218.917 63.5448 219.769C64.2011 220.62 65.0761 221.046 66.1698 221.046C67.2714 221.046 68.1464 220.616 68.7948 219.757C69.4433 218.89 69.7675 217.679 69.7675 216.124C69.7675 214.733 69.4355 213.608 68.7714 212.749C68.1151 211.882 67.2401 211.448 66.1464 211.448C65.0761 211.448 64.2128 211.874 63.5565 212.726C62.9003 213.577 62.5722 214.796 62.5722 216.382ZM79.7401 221.046C80.5136 221.046 81.1894 220.812 81.7675 220.343C82.3456 219.874 82.6659 219.288 82.7284 218.585H84.7792C84.7401 219.312 84.4901 220.003 84.0292 220.659C83.5683 221.315 82.9511 221.839 82.1776 222.229C81.412 222.62 80.5995 222.815 79.7401 222.815C78.0136 222.815 76.6386 222.241 75.6151 221.093C74.5995 219.937 74.0917 218.358 74.0917 216.358V215.995C74.0917 214.761 74.3183 213.663 74.7714 212.702C75.2245 211.741 75.873 210.995 76.7167 210.464C77.5683 209.933 78.5722 209.667 79.7284 209.667C81.1503 209.667 82.33 210.093 83.2675 210.944C84.2128 211.796 84.7167 212.901 84.7792 214.261H82.7284C82.6659 213.44 82.3534 212.769 81.7909 212.245C81.2362 211.714 80.5487 211.448 79.7284 211.448C78.6269 211.448 77.7714 211.847 77.162 212.644C76.5605 213.433 76.2597 214.577 76.2597 216.077V216.487C76.2597 217.948 76.5605 219.073 77.162 219.862C77.7636 220.651 78.623 221.046 79.7401 221.046ZM92.4784 222.815C90.7597 222.815 89.3612 222.253 88.2831 221.128C87.205 219.995 86.6659 218.483 86.6659 216.593V216.194C86.6659 214.937 86.9042 213.815 87.3808 212.831C87.8651 211.839 88.537 211.065 89.3964 210.511C90.2636 209.948 91.2011 209.667 92.2089 209.667C93.8573 209.667 95.1386 210.21 96.0526 211.296C96.9667 212.382 97.4237 213.937 97.4237 215.96V216.862H88.8339C88.8651 218.112 89.2284 219.124 89.9237 219.897C90.6269 220.663 91.5175 221.046 92.5956 221.046C93.3612 221.046 94.0097 220.89 94.5409 220.577C95.0722 220.265 95.537 219.851 95.9355 219.335L97.2597 220.366C96.1972 221.999 94.6034 222.815 92.4784 222.815ZM92.2089 211.448C91.3339 211.448 90.5995 211.769 90.0058 212.409C89.412 213.042 89.0448 213.933 88.9042 215.081H95.2558V214.917C95.1933 213.815 94.8964 212.964 94.3651 212.362C93.8339 211.753 93.1151 211.448 92.2089 211.448ZM95.748 207.792V207.909H93.955L92.1972 205.917L90.4511 207.909H88.6581V207.769L91.5409 204.581H92.8534L95.748 207.792ZM111.158 222.815C109.439 222.815 108.041 222.253 106.963 221.128C105.885 219.995 105.346 218.483 105.346 216.593V216.194C105.346 214.937 105.584 213.815 106.06 212.831C106.545 211.839 107.217 211.065 108.076 210.511C108.943 209.948 109.881 209.667 110.889 209.667C112.537 209.667 113.818 210.21 114.732 211.296C115.646 212.382 116.103 213.937 116.103 215.96V216.862H107.514C107.545 218.112 107.908 219.124 108.603 219.897C109.307 220.663 110.197 221.046 111.275 221.046C112.041 221.046 112.689 220.89 113.221 220.577C113.752 220.265 114.217 219.851 114.615 219.335L115.939 220.366C114.877 221.999 113.283 222.815 111.158 222.815ZM110.889 211.448C110.014 211.448 109.279 211.769 108.685 212.409C108.092 213.042 107.725 213.933 107.584 215.081H113.935V214.917C113.873 213.815 113.576 212.964 113.045 212.362C112.514 211.753 111.795 211.448 110.889 211.448ZM126.006 219.218C126.006 218.632 125.783 218.179 125.338 217.858C124.9 217.53 124.131 217.249 123.029 217.015C121.935 216.78 121.064 216.499 120.416 216.171C119.775 215.843 119.299 215.452 118.986 214.999C118.682 214.546 118.529 214.007 118.529 213.382C118.529 212.343 118.967 211.464 119.842 210.745C120.725 210.026 121.85 209.667 123.217 209.667C124.654 209.667 125.818 210.038 126.709 210.78C127.607 211.522 128.057 212.472 128.057 213.628H125.877C125.877 213.034 125.623 212.522 125.115 212.093C124.615 211.663 123.982 211.448 123.217 211.448C122.428 211.448 121.81 211.62 121.365 211.964C120.92 212.308 120.697 212.757 120.697 213.312C120.697 213.835 120.904 214.229 121.318 214.495C121.732 214.761 122.478 215.015 123.557 215.257C124.642 215.499 125.521 215.788 126.193 216.124C126.865 216.46 127.361 216.866 127.682 217.343C128.01 217.812 128.174 218.386 128.174 219.065C128.174 220.198 127.721 221.108 126.814 221.796C125.908 222.476 124.732 222.815 123.287 222.815C122.271 222.815 121.373 222.636 120.592 222.276C119.81 221.917 119.197 221.417 118.752 220.776C118.314 220.128 118.096 219.429 118.096 218.679H120.264C120.303 219.405 120.592 219.983 121.131 220.413C121.678 220.835 122.396 221.046 123.287 221.046C124.107 221.046 124.764 220.882 125.256 220.554C125.756 220.218 126.006 219.772 126.006 219.218ZM133.939 206.831V209.901H136.307V211.577H133.939V219.44C133.939 219.948 134.045 220.331 134.256 220.589C134.467 220.839 134.826 220.964 135.334 220.964C135.584 220.964 135.928 220.917 136.365 220.823V222.581C135.795 222.737 135.24 222.815 134.701 222.815C133.732 222.815 133.002 222.522 132.51 221.937C132.017 221.351 131.771 220.519 131.771 219.44V211.577H129.463V209.901H131.771V206.831H133.939ZM146.678 222.581C146.553 222.331 146.451 221.886 146.373 221.245C145.365 222.292 144.162 222.815 142.764 222.815C141.514 222.815 140.486 222.464 139.682 221.761C138.885 221.05 138.486 220.151 138.486 219.065C138.486 217.745 138.986 216.722 139.986 215.995C140.994 215.261 142.408 214.894 144.228 214.894H146.338V213.897C146.338 213.14 146.111 212.538 145.658 212.093C145.205 211.64 144.537 211.413 143.654 211.413C142.881 211.413 142.232 211.608 141.709 211.999C141.185 212.39 140.924 212.862 140.924 213.417H138.744C138.744 212.784 138.967 212.175 139.412 211.589C139.865 210.995 140.475 210.526 141.24 210.183C142.014 209.839 142.861 209.667 143.783 209.667C145.244 209.667 146.389 210.034 147.217 210.769C148.045 211.495 148.475 212.499 148.506 213.78V219.616C148.506 220.78 148.654 221.706 148.951 222.394V222.581H146.678ZM143.08 220.929C143.76 220.929 144.404 220.753 145.014 220.401C145.623 220.05 146.064 219.593 146.338 219.03V216.429H144.639C141.982 216.429 140.654 217.206 140.654 218.761C140.654 219.44 140.881 219.972 141.334 220.354C141.787 220.737 142.369 220.929 143.08 220.929ZM145.084 204.581H147.709L144.568 208.026H142.822L145.084 204.581ZM165.685 222.581C165.56 222.331 165.459 221.886 165.381 221.245C164.373 222.292 163.17 222.815 161.771 222.815C160.521 222.815 159.494 222.464 158.689 221.761C157.892 221.05 157.494 220.151 157.494 219.065C157.494 217.745 157.994 216.722 158.994 215.995C160.002 215.261 161.416 214.894 163.236 214.894H165.346V213.897C165.346 213.14 165.119 212.538 164.666 212.093C164.213 211.64 163.545 211.413 162.662 211.413C161.889 211.413 161.24 211.608 160.717 211.999C160.193 212.39 159.932 212.862 159.932 213.417H157.752C157.752 212.784 157.975 212.175 158.42 211.589C158.873 210.995 159.482 210.526 160.248 210.183C161.021 209.839 161.869 209.667 162.791 209.667C164.252 209.667 165.396 210.034 166.225 210.769C167.053 211.495 167.482 212.499 167.514 213.78V219.616C167.514 220.78 167.662 221.706 167.959 222.394V222.581H165.685ZM162.088 220.929C162.767 220.929 163.412 220.753 164.021 220.401C164.631 220.05 165.072 219.593 165.346 219.03V216.429H163.646C160.99 216.429 159.662 217.206 159.662 218.761C159.662 219.44 159.889 219.972 160.342 220.354C160.795 220.737 161.377 220.929 162.088 220.929ZM170.396 216.136C170.396 214.159 170.853 212.589 171.767 211.425C172.682 210.253 173.892 209.667 175.4 209.667C176.947 209.667 178.154 210.214 179.021 211.308L179.127 209.901H181.107V222.276C181.107 223.917 180.619 225.21 179.642 226.155C178.674 227.101 177.369 227.573 175.728 227.573C174.814 227.573 173.92 227.378 173.045 226.987C172.17 226.597 171.502 226.062 171.041 225.382L172.166 224.081C173.096 225.229 174.232 225.804 175.576 225.804C176.631 225.804 177.451 225.507 178.037 224.913C178.631 224.319 178.928 223.483 178.928 222.405V221.315C178.06 222.315 176.877 222.815 175.377 222.815C173.892 222.815 172.689 222.218 171.767 221.022C170.853 219.827 170.396 218.198 170.396 216.136ZM172.576 216.382C172.576 217.812 172.869 218.937 173.455 219.757C174.041 220.569 174.861 220.976 175.916 220.976C177.283 220.976 178.287 220.354 178.928 219.112V213.323C178.264 212.112 177.267 211.507 175.939 211.507C174.885 211.507 174.06 211.917 173.467 212.737C172.873 213.558 172.576 214.772 172.576 216.382ZM192.217 221.327C191.373 222.319 190.135 222.815 188.502 222.815C187.15 222.815 186.119 222.425 185.408 221.644C184.705 220.854 184.35 219.69 184.342 218.151V209.901H186.51V218.093C186.51 220.015 187.291 220.976 188.853 220.976C190.51 220.976 191.611 220.358 192.158 219.124V209.901H194.326V222.581H192.264L192.217 221.327ZM205.459 222.581C205.334 222.331 205.232 221.886 205.154 221.245C204.146 222.292 202.943 222.815 201.545 222.815C200.295 222.815 199.267 222.464 198.463 221.761C197.666 221.05 197.267 220.151 197.267 219.065C197.267 217.745 197.767 216.722 198.767 215.995C199.775 215.261 201.189 214.894 203.01 214.894H205.119V213.897C205.119 213.14 204.892 212.538 204.439 212.093C203.986 211.64 203.318 211.413 202.435 211.413C201.662 211.413 201.014 211.608 200.49 211.999C199.967 212.39 199.705 212.862 199.705 213.417H197.525C197.525 212.784 197.748 212.175 198.193 211.589C198.646 210.995 199.256 210.526 200.021 210.183C200.795 209.839 201.642 209.667 202.564 209.667C204.025 209.667 205.17 210.034 205.998 210.769C206.826 211.495 207.256 212.499 207.287 213.78V219.616C207.287 220.78 207.435 221.706 207.732 222.394V222.581H205.459ZM201.861 220.929C202.541 220.929 203.185 220.753 203.795 220.401C204.404 220.05 204.846 219.593 205.119 219.03V216.429H203.42C200.764 216.429 199.435 217.206 199.435 218.761C199.435 219.44 199.662 219.972 200.115 220.354C200.568 220.737 201.15 220.929 201.861 220.929ZM216.814 211.847C216.486 211.792 216.131 211.765 215.748 211.765C214.326 211.765 213.361 212.37 212.853 213.581V222.581H210.685V209.901H212.795L212.83 211.366C213.541 210.233 214.549 209.667 215.853 209.667C216.275 209.667 216.596 209.722 216.814 209.831V211.847ZM218.057 216.136C218.057 214.19 218.517 212.628 219.439 211.448C220.361 210.261 221.568 209.667 223.06 209.667C224.545 209.667 225.721 210.175 226.588 211.19V204.581H228.756V222.581H226.764L226.658 221.222C225.791 222.284 224.584 222.815 223.037 222.815C221.568 222.815 220.369 222.214 219.439 221.011C218.517 219.808 218.057 218.237 218.057 216.3V216.136ZM220.225 216.382C220.225 217.819 220.521 218.944 221.115 219.757C221.709 220.569 222.529 220.976 223.576 220.976C224.951 220.976 225.955 220.358 226.588 219.124V213.3C225.939 212.104 224.943 211.507 223.6 211.507C222.537 211.507 221.709 211.917 221.115 212.737C220.521 213.558 220.225 214.772 220.225 216.382ZM239.959 222.581C239.834 222.331 239.732 221.886 239.654 221.245C238.646 222.292 237.443 222.815 236.045 222.815C234.795 222.815 233.767 222.464 232.963 221.761C232.166 221.05 231.767 220.151 231.767 219.065C231.767 217.745 232.267 216.722 233.267 215.995C234.275 215.261 235.689 214.894 237.51 214.894H239.619V213.897C239.619 213.14 239.392 212.538 238.939 212.093C238.486 211.64 237.818 211.413 236.935 211.413C236.162 211.413 235.514 211.608 234.99 211.999C234.467 212.39 234.205 212.862 234.205 213.417H232.025C232.025 212.784 232.248 212.175 232.693 211.589C233.146 210.995 233.756 210.526 234.521 210.183C235.295 209.839 236.142 209.667 237.064 209.667C238.525 209.667 239.67 210.034 240.498 210.769C241.326 211.495 241.756 212.499 241.787 213.78V219.616C241.787 220.78 241.935 221.706 242.232 222.394V222.581H239.959ZM236.361 220.929C237.041 220.929 237.685 220.753 238.295 220.401C238.904 220.05 239.346 219.593 239.619 219.03V216.429H237.92C235.264 216.429 233.935 217.206 233.935 218.761C233.935 219.44 234.162 219.972 234.615 220.354C235.068 220.737 235.65 220.929 236.361 220.929ZM247.236 209.901L247.307 211.495C248.275 210.276 249.541 209.667 251.103 209.667C253.783 209.667 255.135 211.179 255.158 214.202V222.581H252.99V214.19C252.982 213.276 252.771 212.601 252.357 212.163C251.951 211.726 251.314 211.507 250.447 211.507C249.744 211.507 249.127 211.694 248.596 212.069C248.064 212.444 247.65 212.937 247.353 213.546V222.581H245.185V209.901H247.236ZM257.9 216.136C257.9 214.19 258.361 212.628 259.283 211.448C260.205 210.261 261.412 209.667 262.904 209.667C264.389 209.667 265.564 210.175 266.432 211.19V204.581H268.6V222.581H266.607L266.502 221.222C265.635 222.284 264.428 222.815 262.881 222.815C261.412 222.815 260.213 222.214 259.283 221.011C258.361 219.808 257.9 218.237 257.9 216.3V216.136ZM260.068 216.382C260.068 217.819 260.365 218.944 260.959 219.757C261.553 220.569 262.373 220.976 263.42 220.976C264.795 220.976 265.799 220.358 266.432 219.124V213.3C265.783 212.104 264.787 211.507 263.443 211.507C262.381 211.507 261.553 211.917 260.959 212.737C260.365 213.558 260.068 214.772 260.068 216.382ZM271.4 216.124C271.4 214.882 271.642 213.765 272.127 212.772C272.619 211.78 273.299 211.015 274.166 210.476C275.041 209.937 276.037 209.667 277.154 209.667C278.881 209.667 280.275 210.265 281.338 211.46C282.408 212.655 282.943 214.245 282.943 216.229V216.382C282.943 217.616 282.705 218.726 282.228 219.71C281.76 220.687 281.084 221.448 280.201 221.995C279.326 222.542 278.318 222.815 277.178 222.815C275.459 222.815 274.064 222.218 272.994 221.022C271.932 219.827 271.4 218.245 271.4 216.276V216.124ZM273.58 216.382C273.58 217.788 273.904 218.917 274.553 219.769C275.209 220.62 276.084 221.046 277.178 221.046C278.279 221.046 279.154 220.616 279.803 219.757C280.451 218.89 280.775 217.679 280.775 216.124C280.775 214.733 280.443 213.608 279.779 212.749C279.123 211.882 278.248 211.448 277.154 211.448C276.084 211.448 275.221 211.874 274.564 212.726C273.908 213.577 273.58 214.796 273.58 216.382ZM56.6542 237.901L56.7245 239.495C57.6933 238.276 58.9589 237.667 60.5214 237.667C63.2011 237.667 64.5526 239.179 64.5761 242.202V250.581H62.4081V242.19C62.4003 241.276 62.1894 240.601 61.7753 240.163C61.369 239.726 60.7323 239.507 59.8651 239.507C59.162 239.507 58.5448 239.694 58.0136 240.069C57.4823 240.444 57.0683 240.937 56.7714 241.546V250.581H54.6034V237.901H56.6542ZM75.6737 250.581C75.5487 250.331 75.4472 249.886 75.369 249.245C74.3612 250.292 73.1581 250.815 71.7597 250.815C70.5097 250.815 69.4823 250.464 68.6776 249.761C67.8808 249.05 67.4823 248.151 67.4823 247.065C67.4823 245.745 67.9823 244.722 68.9823 243.995C69.9901 243.261 71.4042 242.894 73.2245 242.894H75.3339V241.897C75.3339 241.14 75.1073 240.538 74.6542 240.093C74.2011 239.64 73.5331 239.413 72.6503 239.413C71.8769 239.413 71.2284 239.608 70.705 239.999C70.1815 240.39 69.9198 240.862 69.9198 241.417H67.7401C67.7401 240.784 67.9628 240.175 68.4081 239.589C68.8612 238.995 69.4706 238.526 70.2362 238.183C71.0097 237.839 71.8573 237.667 72.7792 237.667C74.2401 237.667 75.3847 238.034 76.2128 238.769C77.0409 239.495 77.4706 240.499 77.5019 241.78V247.616C77.5019 248.78 77.6503 249.706 77.9472 250.394V250.581H75.6737ZM72.0761 248.929C72.7558 248.929 73.4003 248.753 74.0097 248.401C74.619 248.05 75.0605 247.593 75.3339 247.03V244.429H73.6347C70.9784 244.429 69.6503 245.206 69.6503 246.761C69.6503 247.44 69.8769 247.972 70.33 248.354C70.7831 248.737 71.3651 248.929 72.0761 248.929ZM87.58 250.581V239.577H85.5761V237.901H87.58V236.823C87.58 235.409 87.9823 234.308 88.787 233.519C89.5995 232.729 90.744 232.335 92.2206 232.335C93.0956 232.335 94.2011 232.573 95.537 233.05L95.1737 234.878C94.1972 234.487 93.2675 234.292 92.3847 234.292C91.455 234.292 90.7831 234.503 90.369 234.925C89.9628 235.339 89.7597 235.964 89.7597 236.8V237.901H92.3495V239.577H89.7597V250.581H87.58ZM96.6151 250.581H94.4355V237.901H96.6151V250.581ZM102.498 250.581H100.33V232.581H102.498V250.581ZM113.807 250.581C113.682 250.331 113.58 249.886 113.502 249.245C112.494 250.292 111.291 250.815 109.892 250.815C108.642 250.815 107.615 250.464 106.81 249.761C106.014 249.05 105.615 248.151 105.615 247.065C105.615 245.745 106.115 244.722 107.115 243.995C108.123 243.261 109.537 242.894 111.357 242.894H113.467V241.897C113.467 241.14 113.24 240.538 112.787 240.093C112.334 239.64 111.666 239.413 110.783 239.413C110.01 239.413 109.361 239.608 108.838 239.999C108.314 240.39 108.053 240.862 108.053 241.417H105.873C105.873 240.784 106.096 240.175 106.541 239.589C106.994 238.995 107.603 238.526 108.369 238.183C109.142 237.839 109.99 237.667 110.912 237.667C112.373 237.667 113.517 238.034 114.346 238.769C115.174 239.495 115.603 240.499 115.635 241.78V247.616C115.635 248.78 115.783 249.706 116.08 250.394V250.581H113.807ZM110.209 248.929C110.889 248.929 111.533 248.753 112.142 248.401C112.752 248.05 113.193 247.593 113.467 247.03V244.429H111.767C109.111 244.429 107.783 245.206 107.783 246.761C107.783 247.44 108.01 247.972 108.463 248.354C108.916 248.737 109.498 248.929 110.209 248.929ZM124.459 244.136C124.459 242.19 124.92 240.628 125.842 239.448C126.764 238.261 127.971 237.667 129.463 237.667C130.947 237.667 132.123 238.175 132.99 239.19V232.581H135.158V250.581H133.166L133.06 249.222C132.193 250.284 130.986 250.815 129.439 250.815C127.971 250.815 126.771 250.214 125.842 249.011C124.92 247.808 124.459 246.237 124.459 244.3V244.136ZM126.627 244.382C126.627 245.819 126.924 246.944 127.517 247.757C128.111 248.569 128.932 248.976 129.978 248.976C131.353 248.976 132.357 248.358 132.99 247.124V241.3C132.342 240.104 131.346 239.507 130.002 239.507C128.939 239.507 128.111 239.917 127.517 240.737C126.924 241.558 126.627 242.772 126.627 244.382ZM137.959 244.124C137.959 242.882 138.201 241.765 138.685 240.772C139.178 239.78 139.857 239.015 140.725 238.476C141.6 237.937 142.596 237.667 143.713 237.667C145.439 237.667 146.834 238.265 147.896 239.46C148.967 240.655 149.502 242.245 149.502 244.229V244.382C149.502 245.616 149.264 246.726 148.787 247.71C148.318 248.687 147.642 249.448 146.76 249.995C145.885 250.542 144.877 250.815 143.736 250.815C142.017 250.815 140.623 250.218 139.553 249.022C138.49 247.827 137.959 246.245 137.959 244.276V244.124ZM140.139 244.382C140.139 245.788 140.463 246.917 141.111 247.769C141.767 248.62 142.642 249.046 143.736 249.046C144.838 249.046 145.713 248.616 146.361 247.757C147.01 246.89 147.334 245.679 147.334 244.124C147.334 242.733 147.002 241.608 146.338 240.749C145.682 239.882 144.807 239.448 143.713 239.448C142.642 239.448 141.779 239.874 141.123 240.726C140.467 241.577 140.139 242.796 140.139 244.382ZM160.764 243.901V250.581H158.514V233.519H164.807C166.674 233.519 168.135 233.995 169.189 234.948C170.252 235.901 170.783 237.163 170.783 238.733C170.783 240.39 170.264 241.667 169.225 242.565C168.193 243.456 166.713 243.901 164.783 243.901H160.764ZM160.764 242.062H164.807C166.01 242.062 166.932 241.78 167.572 241.218C168.213 240.647 168.533 239.827 168.533 238.757C168.533 237.741 168.213 236.929 167.572 236.319C166.932 235.71 166.053 235.394 164.935 235.37H160.764V242.062ZM175.67 250.581H173.502V232.581H175.67V250.581ZM186.978 250.581C186.853 250.331 186.752 249.886 186.674 249.245C185.666 250.292 184.463 250.815 183.064 250.815C181.814 250.815 180.787 250.464 179.982 249.761C179.185 249.05 178.787 248.151 178.787 247.065C178.787 245.745 179.287 244.722 180.287 243.995C181.295 243.261 182.709 242.894 184.529 242.894H186.639V241.897C186.639 241.14 186.412 240.538 185.959 240.093C185.506 239.64 184.838 239.413 183.955 239.413C183.182 239.413 182.533 239.608 182.01 239.999C181.486 240.39 181.225 240.862 181.225 241.417H179.045C179.045 240.784 179.267 240.175 179.713 239.589C180.166 238.995 180.775 238.526 181.541 238.183C182.314 237.839 183.162 237.667 184.084 237.667C185.545 237.667 186.689 238.034 187.517 238.769C188.346 239.495 188.775 240.499 188.807 241.78V247.616C188.807 248.78 188.955 249.706 189.252 250.394V250.581H186.978ZM183.381 248.929C184.06 248.929 184.705 248.753 185.314 248.401C185.924 248.05 186.365 247.593 186.639 247.03V244.429H184.939C182.283 244.429 180.955 245.206 180.955 246.761C180.955 247.44 181.182 247.972 181.635 248.354C182.088 248.737 182.67 248.929 183.381 248.929ZM196.166 247.405L199.119 237.901H201.439L196.342 252.538C195.553 254.647 194.299 255.702 192.58 255.702L192.17 255.667L191.361 255.515V253.757L191.947 253.804C192.682 253.804 193.252 253.655 193.658 253.358C194.072 253.062 194.412 252.519 194.678 251.729L195.158 250.44L190.635 237.901H193.002L196.166 247.405ZM210.767 247.218C210.767 246.632 210.545 246.179 210.1 245.858C209.662 245.53 208.892 245.249 207.791 245.015C206.697 244.78 205.826 244.499 205.178 244.171C204.537 243.843 204.06 243.452 203.748 242.999C203.443 242.546 203.291 242.007 203.291 241.382C203.291 240.343 203.728 239.464 204.603 238.745C205.486 238.026 206.611 237.667 207.978 237.667C209.416 237.667 210.58 238.038 211.471 238.78C212.369 239.522 212.818 240.472 212.818 241.628H210.639C210.639 241.034 210.385 240.522 209.877 240.093C209.377 239.663 208.744 239.448 207.978 239.448C207.189 239.448 206.572 239.62 206.127 239.964C205.682 240.308 205.459 240.757 205.459 241.312C205.459 241.835 205.666 242.229 206.08 242.495C206.494 242.761 207.24 243.015 208.318 243.257C209.404 243.499 210.283 243.788 210.955 244.124C211.627 244.46 212.123 244.866 212.443 245.343C212.771 245.812 212.935 246.386 212.935 247.065C212.935 248.198 212.482 249.108 211.576 249.796C210.67 250.476 209.494 250.815 208.049 250.815C207.033 250.815 206.135 250.636 205.353 250.276C204.572 249.917 203.959 249.417 203.514 248.776C203.076 248.128 202.857 247.429 202.857 246.679H205.025C205.064 247.405 205.353 247.983 205.892 248.413C206.439 248.835 207.158 249.046 208.049 249.046C208.869 249.046 209.525 248.882 210.017 248.554C210.517 248.218 210.767 247.772 210.767 247.218ZM218.701 234.831V237.901H221.068V239.577H218.701V247.44C218.701 247.948 218.807 248.331 219.017 248.589C219.228 248.839 219.588 248.964 220.096 248.964C220.346 248.964 220.689 248.917 221.127 248.823V250.581C220.557 250.737 220.002 250.815 219.463 250.815C218.494 250.815 217.764 250.522 217.271 249.937C216.779 249.351 216.533 248.519 216.533 247.44V239.577H214.225V237.901H216.533V234.831H218.701ZM231.439 250.581C231.314 250.331 231.213 249.886 231.135 249.245C230.127 250.292 228.924 250.815 227.525 250.815C226.275 250.815 225.248 250.464 224.443 249.761C223.646 249.05 223.248 248.151 223.248 247.065C223.248 245.745 223.748 244.722 224.748 243.995C225.756 243.261 227.17 242.894 228.99 242.894H231.1V241.897C231.1 241.14 230.873 240.538 230.42 240.093C229.967 239.64 229.299 239.413 228.416 239.413C227.642 239.413 226.994 239.608 226.471 239.999C225.947 240.39 225.685 240.862 225.685 241.417H223.506C223.506 240.784 223.728 240.175 224.174 239.589C224.627 238.995 225.236 238.526 226.002 238.183C226.775 237.839 227.623 237.667 228.545 237.667C230.006 237.667 231.15 238.034 231.978 238.769C232.807 239.495 233.236 240.499 233.267 241.78V247.616C233.267 248.78 233.416 249.706 233.713 250.394V250.581H231.439ZM227.842 248.929C228.521 248.929 229.166 248.753 229.775 248.401C230.385 248.05 230.826 247.593 231.1 247.03V244.429H229.4C226.744 244.429 225.416 245.206 225.416 246.761C225.416 247.44 225.642 247.972 226.096 248.354C226.549 248.737 227.131 248.929 227.842 248.929ZM239.607 234.831V237.901H241.975V239.577H239.607V247.44C239.607 247.948 239.713 248.331 239.924 248.589C240.135 248.839 240.494 248.964 241.002 248.964C241.252 248.964 241.596 248.917 242.033 248.823V250.581C241.463 250.737 240.908 250.815 240.369 250.815C239.4 250.815 238.67 250.522 238.178 249.937C237.685 249.351 237.439 248.519 237.439 247.44V239.577H235.131V237.901H237.439V234.831H239.607ZM246.873 250.581H244.705V237.901H246.873V250.581ZM244.529 234.538C244.529 234.187 244.635 233.89 244.846 233.647C245.064 233.405 245.385 233.284 245.807 233.284C246.228 233.284 246.549 233.405 246.767 233.647C246.986 233.89 247.096 234.187 247.096 234.538C247.096 234.89 246.986 235.183 246.767 235.417C246.549 235.651 246.228 235.769 245.807 235.769C245.385 235.769 245.064 235.651 244.846 235.417C244.635 235.183 244.529 234.89 244.529 234.538ZM249.779 244.124C249.779 242.882 250.021 241.765 250.506 240.772C250.998 239.78 251.678 239.015 252.545 238.476C253.42 237.937 254.416 237.667 255.533 237.667C257.26 237.667 258.654 238.265 259.717 239.46C260.787 240.655 261.322 242.245 261.322 244.229V244.382C261.322 245.616 261.084 246.726 260.607 247.71C260.139 248.687 259.463 249.448 258.58 249.995C257.705 250.542 256.697 250.815 255.557 250.815C253.838 250.815 252.443 250.218 251.373 249.022C250.31 247.827 249.779 246.245 249.779 244.276V244.124ZM251.959 244.382C251.959 245.788 252.283 246.917 252.932 247.769C253.588 248.62 254.463 249.046 255.557 249.046C256.658 249.046 257.533 248.616 258.182 247.757C258.83 246.89 259.154 245.679 259.154 244.124C259.154 242.733 258.822 241.608 258.158 240.749C257.502 239.882 256.627 239.448 255.533 239.448C254.463 239.448 253.6 239.874 252.943 240.726C252.287 241.577 251.959 242.796 251.959 244.382ZM266.092 237.901L266.162 239.495C267.131 238.276 268.396 237.667 269.959 237.667C272.639 237.667 273.99 239.179 274.014 242.202V250.581H271.846V242.19C271.838 241.276 271.627 240.601 271.213 240.163C270.807 239.726 270.17 239.507 269.303 239.507C268.6 239.507 267.982 239.694 267.451 240.069C266.92 240.444 266.506 240.937 266.209 241.546V250.581H264.041V237.901H266.092Z" fill="white"/>
<path d="M163.502 98.2627C163.502 100.167 163.177 101.582 162.526 102.508C161.876 103.434 160.859 103.896 159.476 103.896C158.111 103.896 157.1 103.445 156.444 102.543C155.788 101.635 155.448 100.281 155.425 98.4824V96.3115C155.425 94.4307 155.75 93.0332 156.4 92.1191C157.051 91.2051 158.07 90.748 159.459 90.748C160.836 90.748 161.85 91.1904 162.5 92.0752C163.15 92.9541 163.484 94.3135 163.502 96.1533V98.2627ZM161.876 96.0391C161.876 94.6621 161.683 93.6602 161.296 93.0332C160.909 92.4004 160.297 92.084 159.459 92.084C158.627 92.084 158.02 92.3975 157.64 93.0244C157.259 93.6514 157.062 94.6152 157.051 95.916V98.5176C157.051 99.9004 157.25 100.923 157.648 101.585C158.053 102.241 158.662 102.569 159.476 102.569C160.279 102.569 160.874 102.259 161.261 101.638C161.653 101.017 161.858 100.038 161.876 98.7021V96.0391ZM166.332 97.3047L166.982 90.9238H173.539V92.4268H168.362L167.975 95.916C168.602 95.5469 169.314 95.3623 170.111 95.3623C171.277 95.3623 172.203 95.749 172.889 96.5225C173.574 97.29 173.917 98.3301 173.917 99.6426C173.917 100.961 173.559 102.001 172.845 102.763C172.136 103.519 171.142 103.896 169.865 103.896C168.734 103.896 167.811 103.583 167.097 102.956C166.382 102.329 165.975 101.462 165.875 100.354H167.413C167.513 101.087 167.773 101.641 168.195 102.016C168.617 102.385 169.174 102.569 169.865 102.569C170.621 102.569 171.213 102.312 171.641 101.796C172.074 101.28 172.291 100.568 172.291 99.6602C172.291 98.8047 172.057 98.1191 171.588 97.6035C171.125 97.082 170.507 96.8213 169.733 96.8213C169.024 96.8213 168.468 96.9766 168.063 97.2871L167.633 97.6387L166.332 97.3047ZM135.377 119.711V124.721H133.689V111.924H138.409C139.809 111.924 140.905 112.281 141.696 112.996C142.493 113.711 142.892 114.657 142.892 115.835C142.892 117.077 142.502 118.035 141.723 118.709C140.949 119.377 139.839 119.711 138.392 119.711H135.377ZM135.377 118.331H138.409C139.311 118.331 140.003 118.12 140.483 117.698C140.964 117.271 141.204 116.655 141.204 115.853C141.204 115.091 140.964 114.481 140.483 114.024C140.003 113.567 139.344 113.33 138.506 113.312H135.377V118.331ZM144.236 119.878C144.236 118.946 144.418 118.108 144.781 117.364C145.15 116.62 145.66 116.046 146.31 115.642C146.967 115.237 147.714 115.035 148.552 115.035C149.847 115.035 150.892 115.483 151.689 116.38C152.492 117.276 152.893 118.469 152.893 119.957V120.071C152.893 120.997 152.715 121.829 152.357 122.567C152.006 123.3 151.499 123.871 150.837 124.281C150.181 124.691 149.425 124.896 148.569 124.896C147.28 124.896 146.234 124.448 145.432 123.552C144.635 122.655 144.236 121.469 144.236 119.992V119.878ZM145.871 120.071C145.871 121.126 146.114 121.973 146.6 122.611C147.093 123.25 147.749 123.569 148.569 123.569C149.395 123.569 150.052 123.247 150.538 122.603C151.024 121.952 151.267 121.044 151.267 119.878C151.267 118.835 151.018 117.991 150.52 117.347C150.028 116.696 149.372 116.371 148.552 116.371C147.749 116.371 147.101 116.69 146.609 117.329C146.117 117.968 145.871 118.882 145.871 120.071ZM160.47 122.198C160.47 121.759 160.303 121.419 159.969 121.179C159.641 120.933 159.063 120.722 158.237 120.546C157.417 120.37 156.764 120.159 156.277 119.913C155.797 119.667 155.439 119.374 155.205 119.034C154.976 118.694 154.862 118.29 154.862 117.821C154.862 117.042 155.19 116.383 155.847 115.844C156.509 115.305 157.352 115.035 158.378 115.035C159.456 115.035 160.329 115.313 160.997 115.87C161.671 116.427 162.008 117.139 162.008 118.006H160.373C160.373 117.561 160.183 117.177 159.802 116.854C159.427 116.532 158.952 116.371 158.378 116.371C157.786 116.371 157.323 116.5 156.989 116.758C156.655 117.016 156.488 117.353 156.488 117.769C156.488 118.161 156.643 118.457 156.954 118.656C157.265 118.855 157.824 119.046 158.633 119.228C159.447 119.409 160.106 119.626 160.61 119.878C161.114 120.13 161.486 120.435 161.726 120.792C161.973 121.144 162.096 121.574 162.096 122.084C162.096 122.934 161.756 123.616 161.076 124.132C160.396 124.642 159.515 124.896 158.431 124.896C157.669 124.896 156.995 124.762 156.409 124.492C155.823 124.223 155.363 123.848 155.029 123.367C154.701 122.881 154.537 122.356 154.537 121.794H156.163C156.192 122.339 156.409 122.772 156.813 123.095C157.224 123.411 157.763 123.569 158.431 123.569C159.046 123.569 159.538 123.446 159.907 123.2C160.282 122.948 160.47 122.614 160.47 122.198ZM165.98 124.721H164.354V115.211H165.98V124.721ZM164.223 112.688C164.223 112.425 164.302 112.202 164.46 112.021C164.624 111.839 164.864 111.748 165.181 111.748C165.497 111.748 165.737 111.839 165.901 112.021C166.065 112.202 166.147 112.425 166.147 112.688C166.147 112.952 166.065 113.172 165.901 113.348C165.737 113.523 165.497 113.611 165.181 113.611C164.864 113.611 164.624 113.523 164.46 113.348C164.302 113.172 164.223 112.952 164.223 112.688ZM172.405 123.569C172.985 123.569 173.492 123.394 173.926 123.042C174.359 122.69 174.6 122.251 174.646 121.724H176.184C176.155 122.269 175.968 122.787 175.622 123.279C175.276 123.771 174.813 124.164 174.233 124.457C173.659 124.75 173.05 124.896 172.405 124.896C171.11 124.896 170.079 124.466 169.311 123.604C168.55 122.737 168.169 121.554 168.169 120.054V119.781C168.169 118.855 168.339 118.032 168.679 117.312C169.018 116.591 169.505 116.031 170.138 115.633C170.776 115.234 171.529 115.035 172.396 115.035C173.463 115.035 174.348 115.354 175.051 115.993C175.76 116.632 176.138 117.461 176.184 118.48H174.646C174.6 117.865 174.365 117.361 173.943 116.969C173.527 116.57 173.012 116.371 172.396 116.371C171.57 116.371 170.929 116.67 170.472 117.268C170.02 117.859 169.795 118.718 169.795 119.843V120.15C169.795 121.246 170.02 122.09 170.472 122.682C170.923 123.273 171.567 123.569 172.405 123.569ZM172.669 124.8L172.563 125.257C173.46 125.415 173.908 125.922 173.908 126.777C173.908 127.346 173.674 127.794 173.205 128.122C172.736 128.456 172.083 128.623 171.245 128.623L171.184 127.683C171.646 127.683 172.004 127.606 172.256 127.454C172.514 127.302 172.642 127.088 172.642 126.812C172.642 126.555 172.549 126.364 172.361 126.241C172.174 126.118 171.793 126.03 171.219 125.978L171.5 124.8H172.669ZM183.884 124.721C183.79 124.533 183.714 124.199 183.655 123.719C182.899 124.504 181.997 124.896 180.948 124.896C180.011 124.896 179.24 124.633 178.637 124.105C178.039 123.572 177.74 122.898 177.74 122.084C177.74 121.094 178.115 120.326 178.865 119.781C179.621 119.23 180.682 118.955 182.047 118.955H183.629V118.208C183.629 117.64 183.459 117.188 183.119 116.854C182.779 116.515 182.278 116.345 181.616 116.345C181.036 116.345 180.55 116.491 180.157 116.784C179.765 117.077 179.568 117.432 179.568 117.848H177.934C177.934 117.373 178.1 116.916 178.434 116.477C178.774 116.031 179.231 115.68 179.806 115.422C180.386 115.164 181.021 115.035 181.713 115.035C182.809 115.035 183.667 115.311 184.288 115.861C184.909 116.406 185.231 117.159 185.255 118.12V122.497C185.255 123.37 185.366 124.064 185.589 124.58V124.721H183.884ZM181.185 123.481C181.695 123.481 182.179 123.35 182.636 123.086C183.093 122.822 183.424 122.479 183.629 122.058V120.106H182.354C180.362 120.106 179.366 120.689 179.366 121.855C179.366 122.365 179.536 122.764 179.876 123.051C180.216 123.338 180.652 123.481 181.185 123.481ZM185.009 111.502C185.009 112.135 184.827 112.647 184.464 113.04C184.106 113.433 183.658 113.629 183.119 113.629C182.879 113.629 182.671 113.6 182.495 113.541C182.319 113.482 182.088 113.362 181.801 113.181C181.519 112.999 181.314 112.891 181.185 112.855C181.062 112.814 180.919 112.794 180.755 112.794C180.515 112.794 180.309 112.888 180.14 113.075C179.97 113.257 179.885 113.491 179.885 113.778L178.795 113.717C178.795 113.09 178.971 112.571 179.322 112.161C179.68 111.751 180.131 111.546 180.676 111.546C180.881 111.546 181.065 111.575 181.229 111.634C181.393 111.692 181.616 111.807 181.897 111.977C182.179 112.146 182.392 112.258 182.539 112.311C182.691 112.363 182.858 112.39 183.04 112.39C183.292 112.39 183.5 112.29 183.664 112.091C183.834 111.892 183.919 111.66 183.919 111.396L185.009 111.502ZM187.373 119.878C187.373 118.946 187.555 118.108 187.918 117.364C188.287 116.62 188.797 116.046 189.447 115.642C190.103 115.237 190.85 115.035 191.688 115.035C192.983 115.035 194.029 115.483 194.826 116.38C195.629 117.276 196.03 118.469 196.03 119.957V120.071C196.03 120.997 195.851 121.829 195.494 122.567C195.142 123.3 194.636 123.871 193.974 124.281C193.317 124.691 192.561 124.896 191.706 124.896C190.417 124.896 189.371 124.448 188.568 123.552C187.771 122.655 187.373 121.469 187.373 119.992V119.878ZM189.008 120.071C189.008 121.126 189.251 121.973 189.737 122.611C190.229 123.25 190.886 123.569 191.706 123.569C192.532 123.569 193.188 123.247 193.675 122.603C194.161 121.952 194.404 121.044 194.404 119.878C194.404 118.835 194.155 117.991 193.657 117.347C193.165 116.696 192.509 116.371 191.688 116.371C190.886 116.371 190.238 116.69 189.746 117.329C189.254 117.968 189.008 118.882 189.008 120.071Z" fill="white"/>
<path d="M154.414 105.479H174.629V106.357H154.414V105.479ZM132.204 126.479H196.839V127.357H132.204V126.479Z" fill="white"/>
<g filter="url(#filter0_d)">
<path d="M111.572 76.4124L107.876 82.3077L104.551 89.3083L102.703 94.4667L100.855 101.467L100.116 107.363V112.152V118.416L100.855 125.048L102.333 130.944L105.29 138.313L108.985 145.682L112.68 151.208L118.223 157.841L124.505 163.367L130.048 167.42L137.069 171.105L143.721 173.684L149.633 175.158L157.024 175.895L164.415 176.263L171.436 175.895L179.196 174.421L187.325 171.842L193.977 168.526L200.629 164.473L206.172 160.051L210.606 155.261L213.932 151.208L216.149 147.892L218.736 143.471L220.583 139.786L222.061 136.102L223.54 132.417L225.018 127.996L225.757 123.943L226.496 119.89V113.995V109.205L225.757 104.046L225.018 99.2566L223.54 93.7298L221.322 88.2029L218.366 82.3077L215.04 77.1493L210.975 71.991L206.911 67.5696L202.476 63.885L197.672 60.2005L191.76 56.8844L186.586 54.3052L181.413 52.463L176.24 50.9891L169.958 50.2522L163.306 49.8838L155.546 50.2522L147.786 51.7261L140.765 53.9368L134.113 56.8844L128.201 60.2005L121.919 64.9904L116.376 70.5172L111.572 76.4124Z" stroke="url(#paint1_linear)" stroke-width="3"/>
</g>
<g filter="url(#filter1_dddd)">
<path d="M174.658 49.8838C236.789 63.3863 245.459 148.415 188.024 170.676" stroke="url(#paint2_linear)" stroke-width="6" stroke-linecap="round" stroke-linejoin="round"/>
</g>
<path d="M314.441 465.652V221.757V219.512C314.441 213.989 318.919 209.512 324.441 209.512H643.79C649.313 209.512 653.79 213.989 653.79 219.512V473C653.79 478.523 649.313 483 643.79 483H324.441C318.919 483 314.441 478.523 314.441 473V465.652Z" stroke="url(#paint3_linear)" stroke-width="5"/>
<g filter="url(#filter2_d)">
<path d="M423.013 291.854L419.318 297.749L415.992 304.75L414.144 309.908L412.297 316.909L411.558 322.804V327.594V333.858L412.297 340.49L413.775 346.385L416.731 353.754L420.426 361.123L424.122 366.65L429.665 373.282L435.947 378.809L441.49 382.862L448.511 386.546L455.162 389.126L461.075 390.599L468.465 391.336L475.856 391.705L482.877 391.336L490.637 389.862L498.767 387.283L505.418 383.967L512.07 379.914L517.613 375.493L522.047 370.703L525.373 366.65L527.59 363.334L530.177 358.912L532.025 355.228L533.503 351.543L534.981 347.859L536.459 343.437L537.198 339.384L537.937 335.331V329.436V324.646L537.198 319.488L536.459 314.698L534.981 309.171L532.764 303.644L529.807 297.749L526.482 292.591L522.417 287.432L518.352 283.011L513.918 279.326L509.114 275.642L503.201 272.326L498.028 269.747L492.854 267.904L487.681 266.431L481.399 265.694L474.747 265.325L466.987 265.694L459.227 267.167L452.206 269.378L445.554 272.326L439.642 275.642L433.36 280.432L427.817 285.959L423.013 291.854Z" stroke="url(#paint4_linear)" stroke-width="3"/>
</g>
<g filter="url(#filter3_dddd)">
<path d="M486.1 265.325C548.231 278.828 556.9 363.857 499.465 386.118" stroke="url(#paint5_linear)" stroke-width="6" stroke-linecap="round" stroke-linejoin="round"/>
</g>
<path d="M449.282 310.935C449.071 312.739 448.403 314.134 447.278 315.118C446.161 316.095 444.673 316.583 442.814 316.583C440.798 316.583 439.181 315.86 437.962 314.415C436.751 312.97 436.146 311.036 436.146 308.614V306.974C436.146 305.388 436.427 303.993 436.989 302.79C437.56 301.587 438.364 300.665 439.403 300.024C440.442 299.376 441.646 299.052 443.013 299.052C444.825 299.052 446.278 299.56 447.372 300.575C448.466 301.583 449.103 302.981 449.282 304.771H447.021C446.825 303.411 446.4 302.427 445.743 301.817C445.095 301.208 444.185 300.903 443.013 300.903C441.575 300.903 440.446 301.435 439.626 302.497C438.814 303.56 438.407 305.071 438.407 307.032V308.685C438.407 310.536 438.794 312.009 439.567 313.103C440.341 314.196 441.423 314.743 442.814 314.743C444.064 314.743 445.021 314.462 445.685 313.899C446.357 313.329 446.802 312.341 447.021 310.935H449.282ZM454.192 305.204C455.153 304.024 456.403 303.435 457.942 303.435C460.622 303.435 461.974 304.946 461.997 307.97V316.349H459.829V307.958C459.821 307.044 459.61 306.368 459.196 305.931C458.79 305.493 458.153 305.274 457.286 305.274C456.583 305.274 455.966 305.462 455.435 305.837C454.903 306.212 454.489 306.704 454.192 307.313V316.349H452.025V298.349H454.192V305.204ZM470.505 316.583C468.786 316.583 467.388 316.021 466.31 314.896C465.232 313.763 464.692 312.251 464.692 310.36V309.962C464.692 308.704 464.931 307.583 465.407 306.599C465.892 305.606 466.564 304.833 467.423 304.278C468.29 303.716 469.228 303.435 470.235 303.435C471.884 303.435 473.165 303.978 474.079 305.063C474.993 306.149 475.45 307.704 475.45 309.728V310.63H466.86C466.892 311.88 467.255 312.892 467.95 313.665C468.653 314.431 469.544 314.813 470.622 314.813C471.388 314.813 472.036 314.657 472.567 314.345C473.099 314.032 473.564 313.618 473.962 313.103L475.286 314.134C474.224 315.767 472.63 316.583 470.505 316.583ZM470.235 305.216C469.36 305.216 468.626 305.536 468.032 306.177C467.439 306.81 467.071 307.7 466.931 308.849H473.282V308.685C473.22 307.583 472.923 306.731 472.392 306.13C471.86 305.521 471.142 305.216 470.235 305.216ZM477.454 309.903C477.454 307.927 477.911 306.356 478.825 305.192C479.739 304.021 480.95 303.435 482.458 303.435C484.005 303.435 485.212 303.981 486.079 305.075L486.185 303.669H488.165V316.044C488.165 317.685 487.677 318.978 486.7 319.923C485.732 320.868 484.427 321.341 482.786 321.341C481.872 321.341 480.978 321.146 480.103 320.755C479.228 320.364 478.56 319.829 478.099 319.149L479.224 317.849C480.153 318.997 481.29 319.571 482.634 319.571C483.689 319.571 484.509 319.274 485.095 318.681C485.689 318.087 485.985 317.251 485.985 316.173V315.083C485.118 316.083 483.935 316.583 482.435 316.583C480.95 316.583 479.747 315.985 478.825 314.79C477.911 313.595 477.454 311.966 477.454 309.903ZM479.634 310.149C479.634 311.579 479.927 312.704 480.513 313.524C481.099 314.337 481.919 314.743 482.974 314.743C484.341 314.743 485.345 314.122 485.985 312.88V307.091C485.321 305.88 484.325 305.274 482.997 305.274C481.942 305.274 481.118 305.685 480.525 306.505C479.931 307.325 479.634 308.54 479.634 310.149ZM490.872 309.892C490.872 308.649 491.114 307.532 491.599 306.54C492.091 305.548 492.771 304.782 493.638 304.243C494.513 303.704 495.509 303.435 496.626 303.435C498.353 303.435 499.747 304.032 500.81 305.228C501.88 306.423 502.415 308.013 502.415 309.997V310.149C502.415 311.384 502.177 312.493 501.7 313.478C501.232 314.454 500.556 315.216 499.673 315.763C498.798 316.31 497.79 316.583 496.65 316.583C494.931 316.583 493.536 315.985 492.466 314.79C491.403 313.595 490.872 312.013 490.872 310.044V309.892ZM493.052 310.149C493.052 311.556 493.376 312.685 494.025 313.536C494.681 314.388 495.556 314.813 496.65 314.813C497.751 314.813 498.626 314.384 499.275 313.524C499.923 312.657 500.247 311.446 500.247 309.892C500.247 308.501 499.915 307.376 499.251 306.517C498.595 305.649 497.72 305.216 496.626 305.216C495.556 305.216 494.692 305.642 494.036 306.493C493.38 307.345 493.052 308.563 493.052 310.149ZM512.962 315.095C512.118 316.087 510.88 316.583 509.247 316.583C507.896 316.583 506.864 316.192 506.153 315.411C505.45 314.622 505.095 313.458 505.087 311.919V303.669H507.255V311.86C507.255 313.782 508.036 314.743 509.599 314.743C511.255 314.743 512.357 314.126 512.903 312.892V303.669H515.071V316.349H513.009L512.962 315.095ZM442.755 340.985C442.755 340.399 442.532 339.946 442.087 339.626C441.65 339.298 440.88 339.017 439.778 338.782C438.685 338.548 437.814 338.267 437.165 337.938C436.525 337.61 436.048 337.22 435.735 336.767C435.431 336.313 435.278 335.774 435.278 335.149C435.278 334.11 435.716 333.231 436.591 332.513C437.474 331.794 438.599 331.435 439.966 331.435C441.403 331.435 442.567 331.806 443.458 332.548C444.357 333.29 444.806 334.239 444.806 335.396H442.626C442.626 334.802 442.372 334.29 441.864 333.86C441.364 333.431 440.732 333.216 439.966 333.216C439.177 333.216 438.56 333.388 438.114 333.731C437.669 334.075 437.446 334.524 437.446 335.079C437.446 335.603 437.653 335.997 438.067 336.263C438.482 336.528 439.228 336.782 440.306 337.024C441.392 337.267 442.271 337.556 442.942 337.892C443.614 338.228 444.11 338.634 444.431 339.11C444.759 339.579 444.923 340.153 444.923 340.833C444.923 341.966 444.47 342.876 443.564 343.563C442.657 344.243 441.482 344.583 440.036 344.583C439.021 344.583 438.122 344.403 437.341 344.044C436.56 343.685 435.946 343.185 435.501 342.544C435.064 341.896 434.845 341.196 434.845 340.446H437.013C437.052 341.173 437.341 341.751 437.88 342.181C438.427 342.603 439.146 342.813 440.036 342.813C440.857 342.813 441.513 342.649 442.005 342.321C442.505 341.985 442.755 341.54 442.755 340.985ZM455.575 343.095C454.732 344.087 453.493 344.583 451.86 344.583C450.509 344.583 449.478 344.192 448.767 343.411C448.064 342.622 447.708 341.458 447.7 339.919V331.669H449.868V339.86C449.868 341.782 450.65 342.743 452.212 342.743C453.868 342.743 454.97 342.126 455.517 340.892V331.669H457.685V344.349H455.622L455.575 343.095ZM468.817 344.349C468.692 344.099 468.591 343.653 468.513 343.013C467.505 344.06 466.302 344.583 464.903 344.583C463.653 344.583 462.626 344.231 461.821 343.528C461.025 342.817 460.626 341.919 460.626 340.833C460.626 339.513 461.126 338.489 462.126 337.763C463.134 337.028 464.548 336.661 466.368 336.661H468.478V335.665C468.478 334.907 468.251 334.306 467.798 333.86C467.345 333.407 466.677 333.181 465.794 333.181C465.021 333.181 464.372 333.376 463.849 333.767C463.325 334.157 463.064 334.63 463.064 335.185H460.884C460.884 334.552 461.107 333.942 461.552 333.356C462.005 332.763 462.614 332.294 463.38 331.95C464.153 331.606 465.001 331.435 465.923 331.435C467.384 331.435 468.528 331.802 469.357 332.536C470.185 333.263 470.614 334.267 470.646 335.548V341.384C470.646 342.548 470.794 343.474 471.091 344.161V344.349H468.817ZM465.22 342.696C465.9 342.696 466.544 342.521 467.153 342.169C467.763 341.817 468.204 341.36 468.478 340.798V338.196H466.778C464.122 338.196 462.794 338.974 462.794 340.528C462.794 341.208 463.021 341.739 463.474 342.122C463.927 342.505 464.509 342.696 465.22 342.696ZM485.985 341.36L490.86 327.286H493.321L486.993 344.349H485.001L478.685 327.286H481.134L485.985 341.36ZM500.025 344.583C498.306 344.583 496.907 344.021 495.829 342.896C494.751 341.763 494.212 340.251 494.212 338.36V337.962C494.212 336.704 494.45 335.583 494.927 334.599C495.411 333.606 496.083 332.833 496.942 332.278C497.81 331.716 498.747 331.435 499.755 331.435C501.403 331.435 502.685 331.978 503.599 333.063C504.513 334.149 504.97 335.704 504.97 337.728V338.63H496.38C496.411 339.88 496.775 340.892 497.47 341.665C498.173 342.431 499.064 342.813 500.142 342.813C500.907 342.813 501.556 342.657 502.087 342.345C502.618 342.032 503.083 341.618 503.482 341.103L504.806 342.134C503.743 343.767 502.15 344.583 500.025 344.583ZM499.755 333.216C498.88 333.216 498.146 333.536 497.552 334.177C496.958 334.81 496.591 335.7 496.45 336.849H502.802V336.685C502.739 335.583 502.442 334.731 501.911 334.13C501.38 333.521 500.661 333.216 499.755 333.216ZM509.528 342.579H516.946V344.349H506.88V342.755L513.876 333.462H506.985V331.669H516.595V333.204L509.528 342.579Z" fill="white"/>
<path d="M386.981 429.093V412.03H392.559C394.41 412.03 395.801 412.413 396.731 413.179C397.668 413.944 398.137 415.077 398.137 416.577C398.137 417.374 397.91 418.081 397.457 418.698C397.004 419.308 396.387 419.78 395.606 420.116C396.528 420.374 397.254 420.866 397.785 421.593C398.324 422.312 398.594 423.171 398.594 424.171C398.594 425.702 398.098 426.905 397.106 427.78C396.114 428.655 394.711 429.093 392.899 429.093H386.981ZM389.231 421.112V427.253H392.946C393.992 427.253 394.817 426.983 395.418 426.444C396.028 425.897 396.332 425.147 396.332 424.194C396.332 422.14 395.215 421.112 392.981 421.112H389.231ZM389.231 419.308H392.629C393.614 419.308 394.399 419.062 394.985 418.569C395.578 418.077 395.875 417.409 395.875 416.565C395.875 415.628 395.602 414.948 395.055 414.526C394.508 414.097 393.676 413.882 392.559 413.882H389.231V419.308ZM401.02 422.636C401.02 421.394 401.262 420.276 401.746 419.284C402.239 418.292 402.918 417.526 403.785 416.987C404.66 416.448 405.656 416.179 406.774 416.179C408.5 416.179 409.895 416.776 410.957 417.972C412.028 419.167 412.563 420.757 412.563 422.741V422.894C412.563 424.128 412.324 425.237 411.848 426.222C411.379 427.198 410.703 427.96 409.821 428.507C408.946 429.054 407.938 429.327 406.797 429.327C405.078 429.327 403.684 428.729 402.614 427.534C401.551 426.339 401.02 424.757 401.02 422.788V422.636ZM403.199 422.894C403.199 424.3 403.524 425.429 404.172 426.28C404.828 427.132 405.703 427.558 406.797 427.558C407.899 427.558 408.774 427.128 409.422 426.269C410.071 425.401 410.395 424.19 410.395 422.636C410.395 421.245 410.063 420.12 409.399 419.261C408.742 418.394 407.867 417.96 406.774 417.96C405.703 417.96 404.84 418.386 404.184 419.237C403.528 420.089 403.199 421.308 403.199 422.894ZM421.41 418.358C421.082 418.304 420.727 418.276 420.344 418.276C418.922 418.276 417.957 418.882 417.449 420.093V429.093H415.281V416.413H417.391L417.426 417.878C418.137 416.745 419.145 416.179 420.449 416.179C420.871 416.179 421.192 416.233 421.41 416.343V418.358ZM430.774 429.093C430.649 428.843 430.547 428.397 430.469 427.757C429.461 428.804 428.258 429.327 426.86 429.327C425.61 429.327 424.582 428.976 423.778 428.272C422.981 427.562 422.582 426.663 422.582 425.577C422.582 424.257 423.082 423.233 424.082 422.507C425.09 421.772 426.504 421.405 428.324 421.405H430.434V420.409C430.434 419.651 430.207 419.05 429.754 418.604C429.301 418.151 428.633 417.925 427.75 417.925C426.977 417.925 426.328 418.12 425.805 418.511C425.281 418.901 425.02 419.374 425.02 419.929H422.84C422.84 419.296 423.063 418.687 423.508 418.101C423.961 417.507 424.571 417.038 425.336 416.694C426.11 416.351 426.957 416.179 427.879 416.179C429.34 416.179 430.485 416.546 431.313 417.28C432.141 418.007 432.571 419.011 432.602 420.292V426.128C432.602 427.292 432.75 428.218 433.047 428.905V429.093H430.774ZM427.176 427.44C427.856 427.44 428.5 427.265 429.11 426.913C429.719 426.562 430.16 426.104 430.434 425.542V422.94H428.735C426.078 422.94 424.75 423.718 424.75 425.272C424.75 425.952 424.977 426.483 425.43 426.866C425.883 427.249 426.465 427.44 427.176 427.44ZM452.664 422.894C452.664 424.823 452.223 426.378 451.34 427.558C450.457 428.737 449.262 429.327 447.754 429.327C446.215 429.327 445.004 428.839 444.121 427.862V433.968H441.953V416.413H443.934L444.039 417.819C444.922 416.726 446.149 416.179 447.719 416.179C449.242 416.179 450.446 416.753 451.328 417.901C452.219 419.05 452.664 420.647 452.664 422.694V422.894ZM450.496 422.647C450.496 421.218 450.192 420.089 449.582 419.261C448.973 418.433 448.137 418.019 447.074 418.019C445.762 418.019 444.778 418.601 444.121 419.765V425.823C444.77 426.979 445.762 427.558 447.098 427.558C448.137 427.558 448.961 427.147 449.571 426.327C450.188 425.499 450.496 424.272 450.496 422.647ZM461.559 418.358C461.231 418.304 460.875 418.276 460.492 418.276C459.071 418.276 458.106 418.882 457.598 420.093V429.093H455.43V416.413H457.539L457.574 417.878C458.285 416.745 459.293 416.179 460.598 416.179C461.02 416.179 461.34 416.233 461.559 416.343V418.358ZM470.922 429.093C470.797 428.843 470.696 428.397 470.617 427.757C469.61 428.804 468.406 429.327 467.008 429.327C465.758 429.327 464.731 428.976 463.926 428.272C463.129 427.562 462.731 426.663 462.731 425.577C462.731 424.257 463.231 423.233 464.231 422.507C465.239 421.772 466.653 421.405 468.473 421.405H470.582V420.409C470.582 419.651 470.356 419.05 469.903 418.604C469.449 418.151 468.781 417.925 467.899 417.925C467.125 417.925 466.477 418.12 465.953 418.511C465.43 418.901 465.168 419.374 465.168 419.929H462.989C462.989 419.296 463.211 418.687 463.656 418.101C464.11 417.507 464.719 417.038 465.485 416.694C466.258 416.351 467.106 416.179 468.028 416.179C469.489 416.179 470.633 416.546 471.461 417.28C472.289 418.007 472.719 419.011 472.75 420.292V426.128C472.75 427.292 472.899 428.218 473.196 428.905V429.093H470.922ZM467.324 427.44C468.004 427.44 468.649 427.265 469.258 426.913C469.867 426.562 470.309 426.104 470.582 425.542V422.94H468.883C466.227 422.94 464.899 423.718 464.899 425.272C464.899 425.952 465.125 426.483 465.578 426.866C466.031 427.249 466.614 427.44 467.324 427.44ZM483.168 429.093V418.089H481.164V416.413H483.168V415.112C483.168 413.753 483.531 412.702 484.258 411.96C484.985 411.218 486.012 410.847 487.34 410.847C487.84 410.847 488.336 410.913 488.828 411.046L488.711 412.804C488.344 412.733 487.953 412.698 487.539 412.698C486.836 412.698 486.293 412.905 485.91 413.319C485.528 413.726 485.336 414.312 485.336 415.077V416.413H488.043V418.089H485.336V429.093H483.168ZM496.574 418.358C496.246 418.304 495.891 418.276 495.508 418.276C494.086 418.276 493.121 418.882 492.614 420.093V429.093H490.446V416.413H492.555L492.59 417.878C493.301 416.745 494.309 416.179 495.614 416.179C496.035 416.179 496.356 416.233 496.574 416.343V418.358ZM503.606 429.327C501.887 429.327 500.489 428.765 499.41 427.64C498.332 426.507 497.793 424.995 497.793 423.104V422.706C497.793 421.448 498.031 420.327 498.508 419.343C498.992 418.351 499.664 417.577 500.524 417.022C501.391 416.46 502.328 416.179 503.336 416.179C504.985 416.179 506.266 416.722 507.18 417.808C508.094 418.894 508.551 420.448 508.551 422.472V423.374H499.961C499.992 424.624 500.356 425.636 501.051 426.409C501.754 427.175 502.645 427.558 503.723 427.558C504.489 427.558 505.137 427.401 505.668 427.089C506.199 426.776 506.664 426.362 507.063 425.847L508.387 426.878C507.324 428.511 505.731 429.327 503.606 429.327ZM503.336 417.96C502.461 417.96 501.727 418.28 501.133 418.921C500.539 419.554 500.172 420.444 500.031 421.593H506.383V421.429C506.321 420.327 506.024 419.476 505.492 418.874C504.961 418.265 504.242 417.96 503.336 417.96ZM513.121 416.413L513.192 418.007C514.16 416.788 515.426 416.179 516.989 416.179C519.668 416.179 521.02 417.69 521.043 420.714V429.093H518.875V420.702C518.867 419.788 518.656 419.112 518.242 418.675C517.836 418.237 517.199 418.019 516.332 418.019C515.629 418.019 515.012 418.206 514.481 418.581C513.949 418.956 513.535 419.448 513.239 420.058V429.093H511.071V416.413H513.121ZM527.254 413.343V416.413H529.621V418.089H527.254V425.952C527.254 426.46 527.36 426.843 527.571 427.101C527.781 427.351 528.141 427.476 528.649 427.476C528.899 427.476 529.242 427.429 529.68 427.335V429.093C529.11 429.249 528.555 429.327 528.016 429.327C527.047 429.327 526.317 429.034 525.824 428.448C525.332 427.862 525.086 427.03 525.086 425.952V418.089H522.778V416.413H525.086V413.343H527.254ZM537.426 429.327C535.707 429.327 534.309 428.765 533.231 427.64C532.153 426.507 531.614 424.995 531.614 423.104V422.706C531.614 421.448 531.852 420.327 532.328 419.343C532.813 418.351 533.485 417.577 534.344 417.022C535.211 416.46 536.149 416.179 537.156 416.179C538.805 416.179 540.086 416.722 541 417.808C541.914 418.894 542.371 420.448 542.371 422.472V423.374H533.781C533.813 424.624 534.176 425.636 534.871 426.409C535.574 427.175 536.465 427.558 537.543 427.558C538.309 427.558 538.957 427.401 539.489 427.089C540.02 426.776 540.485 426.362 540.883 425.847L542.207 426.878C541.145 428.511 539.551 429.327 537.426 429.327ZM537.156 417.96C536.281 417.96 535.547 418.28 534.953 418.921C534.36 419.554 533.992 420.444 533.852 421.593H540.203V421.429C540.141 420.327 539.844 419.476 539.313 418.874C538.781 418.265 538.063 417.96 537.156 417.96ZM550.317 422.647C550.317 420.655 550.774 419.081 551.688 417.925C552.602 416.761 553.828 416.179 555.367 416.179C556.867 416.179 558.051 416.683 558.918 417.69L559.012 416.413H561.004V433.968H558.836V427.921C557.961 428.858 556.797 429.327 555.344 429.327C553.813 429.327 552.59 428.733 551.676 427.546C550.77 426.351 550.317 424.769 550.317 422.8V422.647ZM552.485 422.894C552.485 424.347 552.789 425.487 553.399 426.315C554.016 427.144 554.844 427.558 555.883 427.558C557.172 427.558 558.156 426.987 558.836 425.847V419.636C558.149 418.519 557.172 417.96 555.906 417.96C554.86 417.96 554.028 418.378 553.41 419.214C552.793 420.042 552.485 421.269 552.485 422.894ZM572.313 427.839C571.469 428.831 570.231 429.327 568.598 429.327C567.246 429.327 566.215 428.937 565.504 428.155C564.801 427.366 564.446 426.202 564.438 424.663V416.413H566.606V424.604C566.606 426.526 567.387 427.487 568.949 427.487C570.606 427.487 571.707 426.87 572.254 425.636V416.413H574.422V429.093H572.36L572.313 427.839ZM582.989 429.327C581.27 429.327 579.871 428.765 578.793 427.64C577.715 426.507 577.176 424.995 577.176 423.104V422.706C577.176 421.448 577.414 420.327 577.891 419.343C578.375 418.351 579.047 417.577 579.906 417.022C580.774 416.46 581.711 416.179 582.719 416.179C584.367 416.179 585.649 416.722 586.563 417.808C587.477 418.894 587.934 420.448 587.934 422.472V423.374H579.344C579.375 424.624 579.739 425.636 580.434 426.409C581.137 427.175 582.028 427.558 583.106 427.558C583.871 427.558 584.52 427.401 585.051 427.089C585.582 426.776 586.047 426.362 586.446 425.847L587.77 426.878C586.707 428.511 585.114 429.327 582.989 429.327ZM582.719 417.96C581.844 417.96 581.11 418.28 580.516 418.921C579.922 419.554 579.555 420.444 579.414 421.593H585.766V421.429C585.703 420.327 585.406 419.476 584.875 418.874C584.344 418.265 583.625 417.96 582.719 417.96ZM388.539 457.093V446.089H386.535V444.413H388.539V443.112C388.539 441.753 388.903 440.702 389.629 439.96C390.356 439.218 391.383 438.847 392.711 438.847C393.211 438.847 393.707 438.913 394.199 439.046L394.082 440.804C393.715 440.733 393.324 440.698 392.91 440.698C392.207 440.698 391.664 440.905 391.281 441.319C390.899 441.726 390.707 442.312 390.707 443.077V444.413H393.414V446.089H390.707V457.093H388.539ZM395.242 450.636C395.242 449.394 395.485 448.276 395.969 447.284C396.461 446.292 397.141 445.526 398.008 444.987C398.883 444.448 399.879 444.179 400.996 444.179C402.723 444.179 404.117 444.776 405.18 445.972C406.25 447.167 406.785 448.757 406.785 450.741V450.894C406.785 452.128 406.547 453.237 406.071 454.222C405.602 455.198 404.926 455.96 404.043 456.507C403.168 457.054 402.16 457.327 401.02 457.327C399.301 457.327 397.906 456.729 396.836 455.534C395.774 454.339 395.242 452.757 395.242 450.788V450.636ZM397.422 450.894C397.422 452.3 397.746 453.429 398.395 454.28C399.051 455.132 399.926 455.558 401.02 455.558C402.121 455.558 402.996 455.128 403.645 454.269C404.293 453.401 404.617 452.19 404.617 450.636C404.617 449.245 404.285 448.12 403.621 447.261C402.965 446.394 402.09 445.96 400.996 445.96C399.926 445.96 399.063 446.386 398.406 447.237C397.75 448.089 397.422 449.308 397.422 450.894ZM408.989 450.647C408.989 448.671 409.446 447.101 410.36 445.937C411.274 444.765 412.485 444.179 413.992 444.179C415.539 444.179 416.746 444.726 417.614 445.819L417.719 444.413H419.699V456.788C419.699 458.429 419.211 459.722 418.235 460.667C417.266 461.612 415.961 462.085 414.321 462.085C413.406 462.085 412.512 461.89 411.637 461.499C410.762 461.108 410.094 460.573 409.633 459.894L410.758 458.593C411.688 459.741 412.824 460.315 414.168 460.315C415.223 460.315 416.043 460.019 416.629 459.425C417.223 458.831 417.52 457.995 417.52 456.917V455.827C416.653 456.827 415.469 457.327 413.969 457.327C412.485 457.327 411.281 456.729 410.36 455.534C409.446 454.339 408.989 452.71 408.989 450.647ZM411.168 450.894C411.168 452.323 411.461 453.448 412.047 454.269C412.633 455.081 413.453 455.487 414.508 455.487C415.875 455.487 416.879 454.866 417.52 453.624V447.835C416.856 446.624 415.86 446.019 414.531 446.019C413.477 446.019 412.653 446.429 412.059 447.249C411.465 448.069 411.168 449.284 411.168 450.894ZM430.809 455.839C429.965 456.831 428.727 457.327 427.094 457.327C425.742 457.327 424.711 456.937 424 456.155C423.297 455.366 422.942 454.202 422.934 452.663V444.413H425.102V452.604C425.102 454.526 425.883 455.487 427.446 455.487C429.102 455.487 430.203 454.87 430.75 453.636V444.413H432.918V457.093H430.856L430.809 455.839ZM441.485 457.327C439.766 457.327 438.367 456.765 437.289 455.64C436.211 454.507 435.672 452.995 435.672 451.104V450.706C435.672 449.448 435.91 448.327 436.387 447.343C436.871 446.351 437.543 445.577 438.403 445.022C439.27 444.46 440.207 444.179 441.215 444.179C442.864 444.179 444.145 444.722 445.059 445.808C445.973 446.894 446.43 448.448 446.43 450.472V451.374H437.84C437.871 452.624 438.235 453.636 438.93 454.409C439.633 455.175 440.524 455.558 441.602 455.558C442.367 455.558 443.016 455.401 443.547 455.089C444.078 454.776 444.543 454.362 444.942 453.847L446.266 454.878C445.203 456.511 443.61 457.327 441.485 457.327ZM441.215 445.96C440.34 445.96 439.606 446.28 439.012 446.921C438.418 447.554 438.051 448.444 437.91 449.593H444.262V449.429C444.199 448.327 443.903 447.476 443.371 446.874C442.84 446.265 442.121 445.96 441.215 445.96ZM451.891 441.343V444.413H454.258V446.089H451.891V453.952C451.891 454.46 451.996 454.843 452.207 455.101C452.418 455.351 452.778 455.476 453.285 455.476C453.535 455.476 453.879 455.429 454.317 455.335V457.093C453.746 457.249 453.192 457.327 452.653 457.327C451.684 457.327 450.953 457.034 450.461 456.448C449.969 455.862 449.723 455.03 449.723 453.952V446.089H447.414V444.413H449.723V441.343H451.891ZM462.063 457.327C460.344 457.327 458.946 456.765 457.867 455.64C456.789 454.507 456.25 452.995 456.25 451.104V450.706C456.25 449.448 456.489 448.327 456.965 447.343C457.449 446.351 458.121 445.577 458.981 445.022C459.848 444.46 460.785 444.179 461.793 444.179C463.442 444.179 464.723 444.722 465.637 445.808C466.551 446.894 467.008 448.448 467.008 450.472V451.374H458.418C458.449 452.624 458.813 453.636 459.508 454.409C460.211 455.175 461.102 455.558 462.18 455.558C462.946 455.558 463.594 455.401 464.125 455.089C464.656 454.776 465.121 454.362 465.52 453.847L466.844 454.878C465.781 456.511 464.188 457.327 462.063 457.327ZM461.793 445.96C460.918 445.96 460.184 446.28 459.59 446.921C458.996 447.554 458.629 448.444 458.489 449.593H464.84V449.429C464.778 448.327 464.481 447.476 463.949 446.874C463.418 446.265 462.699 445.96 461.793 445.96ZM477.531 444.413L477.602 446.007C478.571 444.788 479.836 444.179 481.399 444.179C484.078 444.179 485.43 445.69 485.453 448.714V457.093H483.285V448.702C483.278 447.788 483.067 447.112 482.653 446.675C482.246 446.237 481.61 446.019 480.742 446.019C480.039 446.019 479.422 446.206 478.891 446.581C478.36 446.956 477.946 447.448 477.649 448.058V457.093H475.481V444.413H477.531ZM496.551 457.093C496.426 456.843 496.324 456.397 496.246 455.757C495.239 456.804 494.035 457.327 492.637 457.327C491.387 457.327 490.36 456.976 489.555 456.272C488.758 455.562 488.36 454.663 488.36 453.577C488.36 452.257 488.86 451.233 489.86 450.507C490.867 449.772 492.281 449.405 494.102 449.405H496.211V448.409C496.211 447.651 495.985 447.05 495.531 446.604C495.078 446.151 494.41 445.925 493.528 445.925C492.754 445.925 492.106 446.12 491.582 446.511C491.059 446.901 490.797 447.374 490.797 447.929H488.617C488.617 447.296 488.84 446.687 489.285 446.101C489.739 445.507 490.348 445.038 491.114 444.694C491.887 444.351 492.735 444.179 493.656 444.179C495.117 444.179 496.262 444.546 497.09 445.28C497.918 446.007 498.348 447.011 498.379 448.292V454.128C498.379 455.292 498.528 456.218 498.824 456.905V457.093H496.551ZM492.953 455.44C493.633 455.44 494.278 455.265 494.887 454.913C495.496 454.562 495.938 454.104 496.211 453.542V450.94H494.512C491.856 450.94 490.528 451.718 490.528 453.272C490.528 453.952 490.754 454.483 491.207 454.866C491.66 455.249 492.242 455.44 492.953 455.44ZM498.051 439.468C498.051 440.312 497.809 440.995 497.324 441.519C496.848 442.042 496.25 442.304 495.531 442.304C495.211 442.304 494.934 442.265 494.699 442.187C494.465 442.108 494.156 441.948 493.774 441.706C493.399 441.464 493.125 441.319 492.953 441.272C492.789 441.218 492.598 441.19 492.379 441.19C492.059 441.19 491.785 441.315 491.559 441.565C491.332 441.808 491.219 442.12 491.219 442.503L489.766 442.421C489.766 441.585 490 440.894 490.469 440.347C490.946 439.8 491.547 439.526 492.274 439.526C492.547 439.526 492.793 439.565 493.012 439.644C493.231 439.722 493.528 439.874 493.903 440.101C494.278 440.327 494.563 440.476 494.758 440.546C494.961 440.616 495.184 440.651 495.426 440.651C495.762 440.651 496.039 440.519 496.258 440.253C496.485 439.987 496.598 439.679 496.598 439.327L498.051 439.468ZM501.203 450.636C501.203 449.394 501.446 448.276 501.93 447.284C502.422 446.292 503.102 445.526 503.969 444.987C504.844 444.448 505.84 444.179 506.957 444.179C508.684 444.179 510.078 444.776 511.141 445.972C512.211 447.167 512.746 448.757 512.746 450.741V450.894C512.746 452.128 512.508 453.237 512.031 454.222C511.563 455.198 510.887 455.96 510.004 456.507C509.129 457.054 508.121 457.327 506.981 457.327C505.262 457.327 503.867 456.729 502.797 455.534C501.735 454.339 501.203 452.757 501.203 450.788V450.636ZM503.383 450.894C503.383 452.3 503.707 453.429 504.356 454.28C505.012 455.132 505.887 455.558 506.981 455.558C508.082 455.558 508.957 455.128 509.606 454.269C510.254 453.401 510.578 452.19 510.578 450.636C510.578 449.245 510.246 448.12 509.582 447.261C508.926 446.394 508.051 445.96 506.957 445.96C505.887 445.96 505.024 446.386 504.367 447.237C503.711 448.089 503.383 449.308 503.383 450.894ZM524.36 441.343V444.413H526.727V446.089H524.36V453.952C524.36 454.46 524.465 454.843 524.676 455.101C524.887 455.351 525.246 455.476 525.754 455.476C526.004 455.476 526.348 455.429 526.785 455.335V457.093C526.215 457.249 525.66 457.327 525.121 457.327C524.153 457.327 523.422 457.034 522.93 456.448C522.438 455.862 522.192 455.03 522.192 453.952V446.089H519.883V444.413H522.192V441.343H524.36ZM534.531 457.327C532.813 457.327 531.414 456.765 530.336 455.64C529.258 454.507 528.719 452.995 528.719 451.104V450.706C528.719 449.448 528.957 448.327 529.434 447.343C529.918 446.351 530.59 445.577 531.449 445.022C532.317 444.46 533.254 444.179 534.262 444.179C535.91 444.179 537.192 444.722 538.106 445.808C539.02 446.894 539.477 448.448 539.477 450.472V451.374H530.887C530.918 452.624 531.281 453.636 531.977 454.409C532.68 455.175 533.571 455.558 534.649 455.558C535.414 455.558 536.063 455.401 536.594 455.089C537.125 454.776 537.59 454.362 537.989 453.847L539.313 454.878C538.25 456.511 536.656 457.327 534.531 457.327ZM534.262 445.96C533.387 445.96 532.653 446.28 532.059 446.921C531.465 447.554 531.098 448.444 530.957 449.593H537.309V449.429C537.246 448.327 536.949 447.476 536.418 446.874C535.887 446.265 535.168 445.96 534.262 445.96ZM544.035 444.413L544.094 445.819C545.024 444.726 546.278 444.179 547.856 444.179C549.629 444.179 550.836 444.858 551.477 446.218C551.899 445.608 552.446 445.116 553.117 444.741C553.797 444.366 554.598 444.179 555.52 444.179C558.301 444.179 559.715 445.651 559.762 448.597V457.093H557.594V448.726C557.594 447.819 557.387 447.144 556.973 446.698C556.559 446.245 555.864 446.019 554.887 446.019C554.082 446.019 553.414 446.261 552.883 446.745C552.352 447.222 552.043 447.866 551.957 448.679V457.093H549.778V448.784C549.778 446.94 548.875 446.019 547.071 446.019C545.649 446.019 544.676 446.624 544.153 447.835V457.093H541.985V444.413H544.035ZM575.125 446.358C574.797 446.304 574.442 446.276 574.059 446.276C572.637 446.276 571.672 446.882 571.164 448.093V457.093H568.996V444.413H571.106L571.141 445.878C571.852 444.745 572.86 444.179 574.164 444.179C574.586 444.179 574.906 444.233 575.125 444.343V446.358ZM582.156 457.327C580.438 457.327 579.039 456.765 577.961 455.64C576.883 454.507 576.344 452.995 576.344 451.104V450.706C576.344 449.448 576.582 448.327 577.059 447.343C577.543 446.351 578.215 445.577 579.074 445.022C579.942 444.46 580.879 444.179 581.887 444.179C583.535 444.179 584.817 444.722 585.731 445.808C586.645 446.894 587.102 448.448 587.102 450.472V451.374H578.512C578.543 452.624 578.906 453.636 579.602 454.409C580.305 455.175 581.196 455.558 582.274 455.558C583.039 455.558 583.688 455.401 584.219 455.089C584.75 454.776 585.215 454.362 585.614 453.847L586.938 454.878C585.875 456.511 584.281 457.327 582.156 457.327ZM581.887 445.96C581.012 445.96 580.278 446.28 579.684 446.921C579.09 447.554 578.723 448.444 578.582 449.593H584.934V449.429C584.871 448.327 584.574 447.476 584.043 446.874C583.512 446.265 582.793 445.96 581.887 445.96ZM582.942 439.093H585.567L582.426 442.538H580.68L582.942 439.093Z" fill="white"/>
<defs>
<filter id="filter0_d" x="94.6162" y="48.3818" width="137.38" height="137.383" filterUnits="userSpaceOnUse" color-interpolation-filters="sRGB">
<feFlood flood-opacity="0" result="BackgroundImageFix"/>
<feColorMatrix in="SourceAlpha" type="matrix" values="0 0 0 0 0 0 0 0 0 0 0 0 0 0 0 0 0 0 127 0"/>
<feOffset dy="4"/>
<feGaussianBlur stdDeviation="2"/>
<feColorMatrix type="matrix" values="0 0 0 0 0 0 0 0 0 0 0 0 0 0 0 0 0 0 0.25 0"/>
<feBlend mode="normal" in2="BackgroundImageFix" result="effect1_dropShadow"/>
<feBlend mode="normal" in="SourceGraphic" in2="effect1_dropShadow" result="shape"/>
</filter>
<filter id="filter1_dddd" x="167.657" y="46.8828" width="65.8989" height="134.794" filterUnits="userSpaceOnUse" color-interpolation-filters="sRGB">
<feFlood flood-opacity="0" result="BackgroundImageFix"/>
<feColorMatrix in="SourceAlpha" type="matrix" values="0 0 0 0 0 0 0 0 0 0 0 0 0 0 0 0 0 0 127 0"/>
<feOffset dy="4"/>
<feGaussianBlur stdDeviation="2"/>
<feColorMatrix type="matrix" values="0 0 0 0 0 0 0 0 0 0 0 0 0 0 0 0 0 0 0.25 0"/>
<feBlend mode="normal" in2="BackgroundImageFix" result="effect1_dropShadow"/>
<feColorMatrix in="SourceAlpha" type="matrix" values="0 0 0 0 0 0 0 0 0 0 0 0 0 0 0 0 0 0 127 0"/>
<feOffset dy="4"/>
<feGaussianBlur stdDeviation="2"/>
<feColorMatrix type="matrix" values="0 0 0 0 0 0 0 0 0 0 0 0 0 0 0 0 0 0 0.25 0"/>
<feBlend mode="normal" in2="effect1_dropShadow" result="effect2_dropShadow"/>
<feColorMatrix in="SourceAlpha" type="matrix" values="0 0 0 0 0 0 0 0 0 0 0 0 0 0 0 0 0 0 127 0"/>
<feOffset dy="4"/>
<feGaussianBlur stdDeviation="2"/>
<feColorMatrix type="matrix" values="0 0 0 0 0 0 0 0 0 0 0 0 0 0 0 0 0 0 0.25 0"/>
<feBlend mode="normal" in2="effect2_dropShadow" result="effect3_dropShadow"/>
<feColorMatrix in="SourceAlpha" type="matrix" values="0 0 0 0 0 0 0 0 0 0 0 0 0 0 0 0 0 0 127 0"/>
<feOffset dy="4"/>
<feGaussianBlur stdDeviation="2"/>
<feColorMatrix type="matrix" values="0 0 0 0 0 0 0 0 0 0 0 0 0 0 0 0 0 0 0.25 0"/>
<feBlend mode="normal" in2="effect3_dropShadow" result="effect4_dropShadow"/>
<feBlend mode="normal" in="SourceGraphic" in2="effect4_dropShadow" result="shape"/>
</filter>
<filter id="filter2_d" x="406.058" y="263.823" width="137.38" height="137.383" filterUnits="userSpaceOnUse" color-interpolation-filters="sRGB">
<feFlood flood-opacity="0" result="BackgroundImageFix"/>
<feColorMatrix in="SourceAlpha" type="matrix" values="0 0 0 0 0 0 0 0 0 0 0 0 0 0 0 0 0 0 127 0"/>
<feOffset dy="4"/>
<feGaussianBlur stdDeviation="2"/>
<feColorMatrix type="matrix" values="0 0 0 0 0 0 0 0 0 0 0 0 0 0 0 0 0 0 0.25 0"/>
<feBlend mode="normal" in2="BackgroundImageFix" result="effect1_dropShadow"/>
<feBlend mode="normal" in="SourceGraphic" in2="effect1_dropShadow" result="shape"/>
</filter>
<filter id="filter3_dddd" x="479.099" y="262.324" width="65.8989" height="134.794" filterUnits="userSpaceOnUse" color-interpolation-filters="sRGB">
<feFlood flood-opacity="0" result="BackgroundImageFix"/>
<feColorMatrix in="SourceAlpha" type="matrix" values="0 0 0 0 0 0 0 0 0 0 0 0 0 0 0 0 0 0 127 0"/>
<feOffset dy="4"/>
<feGaussianBlur stdDeviation="2"/>
<feColorMatrix type="matrix" values="0 0 0 0 0 0 0 0 0 0 0 0 0 0 0 0 0 0 0.25 0"/>
<feBlend mode="normal" in2="BackgroundImageFix" result="effect1_dropShadow"/>
<feColorMatrix in="SourceAlpha" type="matrix" values="0 0 0 0 0 0 0 0 0 0 0 0 0 0 0 0 0 0 127 0"/>
<feOffset dy="4"/>
<feGaussianBlur stdDeviation="2"/>
<feColorMatrix type="matrix" values="0 0 0 0 0 0 0 0 0 0 0 0 0 0 0 0 0 0 0.25 0"/>
<feBlend mode="normal" in2="effect1_dropShadow" result="effect2_dropShadow"/>
<feColorMatrix in="SourceAlpha" type="matrix" values="0 0 0 0 0 0 0 0 0 0 0 0 0 0 0 0 0 0 127 0"/>
<feOffset dy="4"/>
<feGaussianBlur stdDeviation="2"/>
<feColorMatrix type="matrix" values="0 0 0 0 0 0 0 0 0 0 0 0 0 0 0 0 0 0 0.25 0"/>
<feBlend mode="normal" in2="effect2_dropShadow" result="effect3_dropShadow"/>
<feColorMatrix in="SourceAlpha" type="matrix" values="0 0 0 0 0 0 0 0 0 0 0 0 0 0 0 0 0 0 127 0"/>
<feOffset dy="4"/>
<feGaussianBlur stdDeviation="2"/>
<feColorMatrix type="matrix" values="0 0 0 0 0 0 0 0 0 0 0 0 0 0 0 0 0 0 0.25 0"/>
<feBlend mode="normal" in2="effect3_dropShadow" result="effect4_dropShadow"/>
<feBlend mode="normal" in="SourceGraphic" in2="effect4_dropShadow" result="shape"/>
</filter>
<linearGradient id="paint0_linear" x1="180.488" y1="3" x2="180.488" y2="294.349" gradientUnits="userSpaceOnUse">
<stop offset="0.172393" stop-color="#36357E"/>
<stop offset="0.828655" stop-color="#FE662E"/>
</linearGradient>
<linearGradient id="paint1_linear" x1="163.306" y1="49.8838" x2="163.306" y2="176.263" gradientUnits="userSpaceOnUse">
<stop offset="0.166667" stop-color="#F1833B"/>
<stop offset="0.614583" stop-color="#F59C33"/>
<stop offset="0.927083" stop-color="#844739"/>
</linearGradient>
<linearGradient id="paint2_linear" x1="206.485" y1="49.5189" x2="206.485" y2="173.312" gradientUnits="userSpaceOnUse">
<stop offset="0.0677083" stop-color="#F59C33"/>
<stop offset="0.286458" stop-color="#F18742"/>
<stop offset="0.75" stop-color="#513EE6" stop-opacity="0.98"/>
<stop offset="0.854167" stop-color="#40358E" stop-opacity="0.597091"/>
<stop offset="0.9375" stop-color="#3F3E3E" stop-opacity="0"/>
</linearGradient>
<linearGradient id="paint3_linear" x1="484.116" y1="209.512" x2="484.116" y2="483" gradientUnits="userSpaceOnUse">
<stop offset="0.172393" stop-color="#36357E"/>
<stop offset="0.828655" stop-color="#FE662E"/>
</linearGradient>
<linearGradient id="paint4_linear" x1="474.747" y1="265.325" x2="474.747" y2="391.705" gradientUnits="userSpaceOnUse">
<stop offset="0.166667" stop-color="#F1833B"/>
<stop offset="0.614583" stop-color="#F59C33"/>
<stop offset="0.927083" stop-color="#844739"/>
</linearGradient>
<linearGradient id="paint5_linear" x1="517.926" y1="264.96" x2="517.926" y2="388.754" gradientUnits="userSpaceOnUse">
<stop offset="0.0677083" stop-color="#F59C33"/>
<stop offset="0.286458" stop-color="#F18742"/>
<stop offset="0.75" stop-color="#513EE6" stop-opacity="0.98"/>
<stop offset="0.854167" stop-color="#40358E" stop-opacity="0.597091"/>
<stop offset="0.9375" stop-color="#3F3E3E" stop-opacity="0"/>
</linearGradient>
</defs>
</svg>
