<svg width="295" height="182" viewBox="0 0 295 182" fill="none" xmlns="http://www.w3.org/2000/svg">
<path d="M0.0434541 33.6508C0.0194551 21.924 9.50647 12.398 21.2333 12.374L139.273 12.1325L139.498 122.242C139.522 133.969 130.035 143.494 118.308 143.518L21.5021 143.717C9.77525 143.741 0.249339 134.254 0.22534 122.527L0.0434541 33.6508Z" fill="#FC6027"/>
<path d="M96.4029 89.2867H52.9646V135H39.3146V31.4875H103.441V42.7203H52.9646V78.125H96.4029V89.2867Z" fill="white"/>
<path d="M166.81 147.133H153.658V70.2099H166.81V147.133ZM152.591 49.806C152.591 47.6731 153.231 45.8721 154.511 44.4028C155.838 42.9336 157.781 42.1989 160.34 42.1989C162.9 42.1989 164.843 42.9336 166.17 44.4028C167.497 45.8721 168.161 47.6731 168.161 49.806C168.161 51.9388 167.497 53.7161 166.17 55.138C164.843 56.5599 162.9 57.2708 160.34 57.2708C157.781 57.2708 155.838 56.5599 154.511 55.138C153.231 53.7161 152.591 51.9388 152.591 49.806ZM202.215 147.133H189.062V37.9333H202.215V147.133ZM270.82 147.133C270.062 145.617 269.446 142.915 268.972 139.029C262.858 145.38 255.559 148.555 247.075 148.555C239.491 148.555 233.259 146.422 228.377 142.157C223.543 137.844 221.125 132.393 221.125 125.805C221.125 117.795 224.159 111.586 230.225 107.179C236.34 102.723 244.918 100.496 255.961 100.496H268.758V94.4528C268.758 89.8554 267.384 86.206 264.635 83.5044C261.886 80.7554 257.834 79.381 252.478 79.381C247.786 79.381 243.852 80.5659 240.676 82.9356C237.501 85.3054 235.913 88.1729 235.913 91.538H222.69C222.69 87.6989 224.04 84.002 226.742 80.4474C229.491 76.8453 233.188 74.0015 237.833 71.9161C242.525 69.8307 247.667 68.788 253.26 68.788C262.123 68.788 269.066 71.0156 274.09 75.4708C279.114 79.8786 281.721 85.969 281.911 93.7419V129.147C281.911 136.209 282.811 141.825 284.612 145.996V147.133H270.82ZM248.994 137.109C253.118 137.109 257.028 136.043 260.725 133.91C264.422 131.777 267.099 129.004 268.758 125.592V109.809H258.45C242.335 109.809 234.278 114.525 234.278 123.957C234.278 128.08 235.652 131.303 238.401 133.625C241.15 135.948 244.681 137.109 248.994 137.109Z" fill="url(#paint0_linear)"/>
<defs>
<linearGradient id="paint0_linear" x1="218.4" y1="12.1333" x2="218.4" y2="182" gradientUnits="userSpaceOnUse">
<stop offset="0.338542" stop-color="#F48C67"/>
<stop offset="0.71875" stop-color="#F1BA6B"/>
<stop offset="0.896365" stop-color="#7474B4"/>
</linearGradient>
</defs>
</svg>
