<svg width="684" height="380" viewBox="0 0 684 380" fill="none" xmlns="http://www.w3.org/2000/svg">
<path d="M0.0907293 70.4916C0.0406209 46.007 19.8487 26.1177 44.3332 26.0676L301.964 25.5403L302.456 265.977C302.506 290.462 282.698 310.351 258.213 310.401L44.9161 310.838C20.4315 310.888 0.542169 291.08 0.492061 266.595L0.0907293 70.4916Z" fill="#FC6027"/>
<path d="M201.283 186.555H110.588V282H82.0879V65.875H215.979V89.3281H110.588V163.25H201.283V186.555Z" fill="white"/>
<path d="M379.949 288.333H352.488V127.724H379.949V288.333ZM350.262 85.1224C350.262 80.6693 351.598 76.9089 354.27 73.8412C357.04 70.7735 361.098 69.2396 366.441 69.2396C371.785 69.2396 375.842 70.7735 378.613 73.8412C381.384 76.9089 382.77 80.6693 382.77 85.1224C382.77 89.5755 381.384 93.2865 378.613 96.2552C375.842 99.224 371.785 100.708 366.441 100.708C361.098 100.708 357.04 99.224 354.27 96.2552C351.598 93.2865 350.262 89.5755 350.262 85.1224ZM437.543 288.333V148.951H412.16V127.724H437.543V111.247C437.543 94.0287 442.145 80.7188 451.348 71.3177C460.551 61.9167 473.564 57.2162 490.387 57.2162C496.72 57.2162 503.004 58.0573 509.238 59.7396L507.754 82.0052C503.103 81.1146 498.155 80.6693 492.91 80.6693C484.004 80.6693 477.126 83.2917 472.277 88.5365C467.428 93.6823 465.004 101.104 465.004 110.802V127.724H499.293V148.951H465.004V288.333H437.543ZM522.449 206.544C522.449 190.81 525.517 176.659 531.652 164.091C537.887 151.523 546.496 141.826 557.48 134.997C568.564 128.169 581.181 124.755 595.332 124.755C617.202 124.755 634.866 132.326 648.324 147.466C661.882 162.607 668.66 182.745 668.66 207.88V209.81C668.66 225.445 665.642 239.497 659.605 251.966C653.668 264.336 645.108 273.984 633.926 280.911C622.842 287.839 610.077 291.302 595.629 291.302C573.858 291.302 556.194 283.732 542.637 268.591C529.178 253.451 522.449 233.411 522.449 208.474V206.544ZM550.059 209.81C550.059 227.622 554.165 241.922 562.379 252.708C570.691 263.495 581.775 268.888 595.629 268.888C609.582 268.888 620.665 263.445 628.879 252.56C637.092 241.576 641.199 226.237 641.199 206.544C641.199 188.93 636.994 174.68 628.582 163.794C620.27 152.81 609.186 147.318 595.332 147.318C581.775 147.318 570.84 152.711 562.527 163.497C554.215 174.284 550.059 189.721 550.059 209.81Z" fill="url(#paint0_linear)"/>
<defs>
<linearGradient id="paint0_linear" x1="506.665" y1="6.33337" x2="506.665" y2="361" gradientUnits="userSpaceOnUse">
<stop offset="0.338542" stop-color="#F48C67"/>
<stop offset="0.71875" stop-color="#F1BA6B"/>
</linearGradient>
</defs>
</svg>
