<svg width="295" height="180" viewBox="0 0 295 180" fill="none" xmlns="http://www.w3.org/2000/svg">
<path d="M0.0434541 41.2333C0.0194551 29.5065 9.50647 19.9805 21.2333 19.9565L139.273 19.715L139.498 129.824C139.522 141.551 130.035 151.077 118.308 151.101L21.5021 151.299C9.77525 151.323 0.249339 141.836 0.22534 130.109L0.0434541 41.2333Z" fill="#FC6027"/>
<path d="M98.1031 89.2867H54.6648V135H41.0148V31.4875H105.141V42.7203H54.6648V78.125H98.1031V89.2867Z" fill="white"/>
<path d="M166.81 145.133H153.658V68.2099H166.81V145.133ZM152.591 47.806C152.591 45.6731 153.231 43.8721 154.511 42.4028C155.838 40.9336 157.781 40.1989 160.34 40.1989C162.9 40.1989 164.843 40.9336 166.17 42.4028C167.497 43.8721 168.161 45.6731 168.161 47.806C168.161 49.9388 167.497 51.7161 166.17 53.138C164.843 54.5599 162.9 55.2708 160.34 55.2708C157.781 55.2708 155.838 54.5599 154.511 53.138C153.231 51.7161 152.591 49.9388 152.591 47.806ZM202.215 145.133H189.062V35.9333H202.215V145.133ZM270.82 145.133C270.062 143.617 269.446 140.915 268.972 137.029C262.858 143.38 255.559 146.555 247.075 146.555C239.491 146.555 233.259 144.422 228.377 140.157C223.543 135.844 221.125 130.393 221.125 123.805C221.125 115.795 224.159 109.586 230.225 105.179C236.34 100.723 244.918 98.4958 255.961 98.4958H268.758V92.4528C268.758 87.8554 267.384 84.206 264.635 81.5044C261.886 78.7554 257.834 77.381 252.478 77.381C247.786 77.381 243.852 78.5659 240.676 80.9356C237.501 83.3054 235.913 86.1729 235.913 89.538H222.69C222.69 85.6989 224.04 82.002 226.742 78.4474C229.491 74.8453 233.188 72.0015 237.833 69.9161C242.525 67.8307 247.667 66.788 253.26 66.788C262.123 66.788 269.066 69.0156 274.09 73.4708C279.114 77.8786 281.721 83.969 281.911 91.7419V127.147C281.911 134.209 282.811 139.825 284.612 143.996V145.133H270.82ZM248.994 135.109C253.118 135.109 257.028 134.043 260.725 131.91C264.422 129.777 267.099 127.004 268.758 123.592V107.809H258.45C242.335 107.809 234.278 112.525 234.278 121.957C234.278 126.08 235.652 129.303 238.401 131.625C241.15 133.948 244.681 135.109 248.994 135.109Z" fill="url(#paint0_linear)"/>
<defs>
<linearGradient id="paint0_linear" x1="218.4" y1="10.1333" x2="218.4" y2="180" gradientUnits="userSpaceOnUse">
<stop offset="0.338542" stop-color="#F48C67"/>
<stop offset="0.71875" stop-color="#F1BA6B"/>
<stop offset="0.896365" stop-color="#7474B4"/>
</linearGradient>
</defs>
</svg>
