<svg width="98" height="58" viewBox="0 0 98 58" fill="none" xmlns="http://www.w3.org/2000/svg">
<path d="M55.9922 46H51.6562V20.6406H55.9922V46ZM51.3047 13.9141C51.3047 13.2109 51.5156 12.6172 51.9375 12.1328C52.375 11.6484 53.0156 11.4062 53.8594 11.4062C54.7031 11.4062 55.3438 11.6484 55.7812 12.1328C56.2188 12.6172 56.4375 13.2109 56.4375 13.9141C56.4375 14.6172 56.2188 15.2031 55.7812 15.6719C55.3438 16.1406 54.7031 16.375 53.8594 16.375C53.0156 16.375 52.375 16.1406 51.9375 15.6719C51.5156 15.2031 51.3047 14.6172 51.3047 13.9141ZM67.6641 46H63.3281V10H67.6641V46ZM90.2812 46C90.0312 45.5 89.8281 44.6094 89.6719 43.3281C87.6562 45.4219 85.25 46.4688 82.4531 46.4688C79.9531 46.4688 77.8984 45.7656 76.2891 44.3594C74.6953 42.9375 73.8984 41.1406 73.8984 38.9688C73.8984 36.3281 74.8984 34.2812 76.8984 32.8281C78.9141 31.3594 81.7422 30.625 85.3828 30.625H89.6016V28.6328C89.6016 27.1172 89.1484 25.9141 88.2422 25.0234C87.3359 24.1172 86 23.6641 84.2344 23.6641C82.6875 23.6641 81.3906 24.0547 80.3438 24.8359C79.2969 25.6172 78.7734 26.5625 78.7734 27.6719H74.4141C74.4141 26.4062 74.8594 25.1875 75.75 24.0156C76.6562 22.8281 77.875 21.8906 79.4062 21.2031C80.9531 20.5156 82.6484 20.1719 84.4922 20.1719C87.4141 20.1719 89.7031 20.9062 91.3594 22.375C93.0156 23.8281 93.875 25.8359 93.9375 28.3984V40.0703C93.9375 42.3984 94.2344 44.25 94.8281 45.625V46H90.2812ZM83.0859 42.6953C84.4453 42.6953 85.7344 42.3438 86.9531 41.6406C88.1719 40.9375 89.0547 40.0234 89.6016 38.8984V33.6953H86.2031C80.8906 33.6953 78.2344 35.25 78.2344 38.3594C78.2344 39.7188 78.6875 40.7812 79.5938 41.5469C80.5 42.3125 81.6641 42.6953 83.0859 42.6953Z" fill="url(#paint0_linear)"/>
<path d="M12.2964 11.2552L14.6827 9.79892L17.0138 8.77575L19.2102 7.85875L22.703 6.98556L25.7592 6.54896L27.3038 6.36316L31.1084 6.09668L47.8358 5.22348L47.6007 17.9005L47.8358 21.8298L47.8358 26.6167L47.8358 29.6729L47.8358 32.2925L47.6007 34.6823L47.2624 36.6584L46.8258 38.4048L46.0718 39.7689L43.4094 43.3906L39.8256 47.335L34.5646 50.6254L30.4459 51.8607L27.3038 52.3404L24.65 52.4421L21.6184 52.0556L18.2089 51.1807L14.4768 49.3845L11.233 47.2103L8.85534 45.1467L6.63444 42.2767C6.35232 41.9121 6.10691 41.5205 5.90177 41.1077L4.10868 37.4993L3.1958 34.302L2.61452 28.5062L2.9458 25.9076L3.76538 22.9312L5.12855 19.1438L6.7593 16.711L8.33468 14.7112L9.85483 13.1445L12.2964 11.2552Z" fill="#FC6027"/>
<path d="M36.7812 32.9297H22.4609V48H17.9609V13.875H39.1016V17.5781H22.4609V29.25H36.7812V32.9297Z" fill="white"/>
<defs>
<linearGradient id="paint0_linear" x1="73" y1="2" x2="73" y2="58" gradientUnits="userSpaceOnUse">
<stop offset="0.338542" stop-color="#F48C67"/>
<stop offset="0.71875" stop-color="#F1BA6B"/>
<stop offset="0.896365" stop-color="#7474B4"/>
</linearGradient>
</defs>
</svg>
