<svg width="89" height="23" viewBox="0 0 89 23" fill="none" xmlns="http://www.w3.org/2000/svg">
<path d="M0.0143257 8.04119C0.00641383 4.1752 3.134 1.03478 6.99998 1.02687L20.1385 0.999985L20.163 12.9918C20.1709 16.8578 17.0433 19.9982 13.1774 20.0061L7.03886 20.0187C3.17287 20.0266 0.0324535 16.899 0.0245416 13.033L0.0143257 8.04119Z" fill="#FC6027"/>
<path d="M14.543 11.3486H9.17285V17H7.48535V4.20312H15.4131V5.5918H9.17285V9.96875H14.543V11.3486Z" fill="white"/>
<path d="M24.9971 18H23.3711V8.49023H24.9971V18ZM23.2393 5.96777C23.2393 5.7041 23.3184 5.48145 23.4766 5.2998C23.6406 5.11816 23.8809 5.02734 24.1973 5.02734C24.5137 5.02734 24.7539 5.11816 24.918 5.2998C25.082 5.48145 25.1641 5.7041 25.1641 5.96777C25.1641 6.23145 25.082 6.45117 24.918 6.62695C24.7539 6.80273 24.5137 6.89062 24.1973 6.89062C23.8809 6.89062 23.6406 6.80273 23.4766 6.62695C23.3184 6.45117 23.2393 6.23145 23.2393 5.96777ZM28.4072 18V9.74707H26.9043V8.49023H28.4072V7.51465C28.4072 6.49512 28.6797 5.70703 29.2246 5.15039C29.7695 4.59375 30.54 4.31543 31.5361 4.31543C31.9111 4.31543 32.2832 4.36523 32.6523 4.46484L32.5645 5.7832C32.2891 5.73047 31.9961 5.7041 31.6855 5.7041C31.1582 5.7041 30.751 5.85938 30.4639 6.16992C30.1768 6.47461 30.0332 6.91406 30.0332 7.48828V8.49023H32.0635V9.74707H30.0332V18H28.4072ZM33.4346 13.1572C33.4346 12.2256 33.6162 11.3877 33.9795 10.6436C34.3486 9.89941 34.8584 9.3252 35.5088 8.9209C36.165 8.5166 36.9121 8.31445 37.75 8.31445C39.0449 8.31445 40.0908 8.7627 40.8877 9.65918C41.6904 10.5557 42.0918 11.748 42.0918 13.2363V13.3506C42.0918 14.2764 41.9131 15.1084 41.5557 15.8467C41.2041 16.5791 40.6973 17.1504 40.0352 17.5605C39.3789 17.9707 38.623 18.1758 37.7676 18.1758C36.4785 18.1758 35.4326 17.7275 34.6299 16.8311C33.833 15.9346 33.4346 14.748 33.4346 13.2715V13.1572ZM35.0693 13.3506C35.0693 14.4053 35.3125 15.252 35.7988 15.8906C36.291 16.5293 36.9473 16.8486 37.7676 16.8486C38.5938 16.8486 39.25 16.5264 39.7363 15.8818C40.2227 15.2314 40.4658 14.3232 40.4658 13.1572C40.4658 12.1143 40.2168 11.2705 39.7188 10.626C39.2266 9.97559 38.5703 9.65039 37.75 9.65039C36.9473 9.65039 36.2998 9.96973 35.8076 10.6084C35.3154 11.2471 35.0693 12.1611 35.0693 13.3506ZM43.7441 13.166C43.7441 11.6836 44.0869 10.5059 44.7725 9.63281C45.458 8.75391 46.3662 8.31445 47.4971 8.31445C48.6572 8.31445 49.5625 8.72461 50.2129 9.54492L50.292 8.49023H51.7773V17.7715C51.7773 19.002 51.4111 19.9717 50.6787 20.6807C49.9521 21.3896 48.9736 21.7441 47.7432 21.7441C47.0576 21.7441 46.3867 21.5977 45.7305 21.3047C45.0742 21.0117 44.5732 20.6104 44.2275 20.1006L45.0713 19.125C45.7686 19.9863 46.6211 20.417 47.6289 20.417C48.4199 20.417 49.0352 20.1943 49.4746 19.749C49.9199 19.3037 50.1426 18.6768 50.1426 17.8682V17.0508C49.4922 17.8008 48.6045 18.1758 47.4795 18.1758C46.3662 18.1758 45.4639 17.7275 44.7725 16.8311C44.0869 15.9346 43.7441 14.7129 43.7441 13.166ZM45.3789 13.3506C45.3789 14.4229 45.5986 15.2666 46.0381 15.8818C46.4775 16.4912 47.0928 16.7959 47.8838 16.7959C48.9092 16.7959 49.6621 16.3301 50.1426 15.3984V11.0566C49.6445 10.1484 48.8975 9.69434 47.9014 9.69434C47.1104 9.69434 46.4922 10.002 46.0469 10.6172C45.6016 11.2324 45.3789 12.1436 45.3789 13.3506ZM60.1094 18C60.0156 17.8125 59.9395 17.4785 59.8809 16.998C59.125 17.7832 58.2227 18.1758 57.1738 18.1758C56.2363 18.1758 55.4658 17.9121 54.8623 17.3848C54.2646 16.8516 53.9658 16.1777 53.9658 15.3633C53.9658 14.373 54.3408 13.6055 55.0908 13.0605C55.8467 12.5098 56.9072 12.2344 58.2725 12.2344H59.8545V11.4873C59.8545 10.9189 59.6846 10.4678 59.3447 10.1338C59.0049 9.79395 58.5039 9.62402 57.8418 9.62402C57.2617 9.62402 56.7754 9.77051 56.3828 10.0635C55.9902 10.3564 55.7939 10.7109 55.7939 11.127H54.1592C54.1592 10.6523 54.3262 10.1953 54.6602 9.75586C55 9.31055 55.457 8.95898 56.0312 8.70117C56.6113 8.44336 57.2471 8.31445 57.9385 8.31445C59.0342 8.31445 59.8926 8.58984 60.5137 9.14062C61.1348 9.68555 61.457 10.4385 61.4805 11.3994V15.7764C61.4805 16.6494 61.5918 17.3438 61.8145 17.8594V18H60.1094ZM57.4111 16.7607C57.9209 16.7607 58.4043 16.6289 58.8613 16.3652C59.3184 16.1016 59.6494 15.7588 59.8545 15.3369V13.3857H58.5801C56.5879 13.3857 55.5918 13.9688 55.5918 15.1348C55.5918 15.6445 55.7617 16.043 56.1016 16.3301C56.4414 16.6172 56.8779 16.7607 57.4111 16.7607ZM65.5586 8.49023L65.6025 9.54492C66.2998 8.72461 67.2402 8.31445 68.4238 8.31445C69.7539 8.31445 70.6592 8.82422 71.1396 9.84375C71.4561 9.38672 71.8662 9.01758 72.3701 8.73633C72.8799 8.45508 73.4805 8.31445 74.1719 8.31445C76.2578 8.31445 77.3184 9.41895 77.3535 11.6279V18H75.7275V11.7246C75.7275 11.0449 75.5723 10.5381 75.2617 10.2041C74.9512 9.86426 74.4297 9.69434 73.6973 9.69434C73.0938 9.69434 72.5928 9.87598 72.1943 10.2393C71.7959 10.5967 71.5645 11.0801 71.5 11.6895V18H69.8652V11.7686C69.8652 10.3857 69.1885 9.69434 67.835 9.69434C66.7686 9.69434 66.0391 10.1484 65.6465 11.0566V18H64.0205V8.49023H65.5586ZM83.7607 18.1758C82.4717 18.1758 81.4229 17.7539 80.6143 16.9102C79.8057 16.0605 79.4014 14.9268 79.4014 13.5088V13.21C79.4014 12.2666 79.5801 11.4258 79.9375 10.6875C80.3008 9.94336 80.8047 9.36328 81.4492 8.94727C82.0996 8.52539 82.8027 8.31445 83.5586 8.31445C84.7949 8.31445 85.7559 8.72168 86.4414 9.53613C87.127 10.3506 87.4697 11.5166 87.4697 13.0342V13.7109H81.0273C81.0508 14.6484 81.3232 15.4072 81.8447 15.9873C82.3721 16.5615 83.04 16.8486 83.8486 16.8486C84.4229 16.8486 84.9092 16.7314 85.3076 16.4971C85.7061 16.2627 86.0547 15.9521 86.3535 15.5654L87.3467 16.3389C86.5498 17.5635 85.3545 18.1758 83.7607 18.1758ZM83.5586 9.65039C82.9023 9.65039 82.3516 9.89062 81.9062 10.3711C81.4609 10.8457 81.1855 11.5137 81.0801 12.375H85.8438V12.252C85.7969 11.4258 85.5742 10.7871 85.1758 10.3359C84.7773 9.87891 84.2383 9.65039 83.5586 9.65039Z" fill="url(#paint0_linear)"/>
<defs>
<linearGradient id="paint0_linear" x1="55.5" y1="1" x2="55.5" y2="22" gradientUnits="userSpaceOnUse">
<stop offset="0.338542" stop-color="#F48C67"/>
<stop offset="0.71875" stop-color="#F1BA6B"/>
</linearGradient>
</defs>
</svg>
