<svg width="1600" height="1361" viewBox="0 0 1600 1361" fill="none" xmlns="http://www.w3.org/2000/svg">
<path d="M351.304 485.183L327.19 469.185L354.106 455.984L351.304 485.183Z" stroke="url(#paint0_linear)" stroke-width="3"/>
<path d="M627.21 422.776L621.545 395.151L649.213 404.528L627.21 422.776Z" stroke="url(#paint1_linear)" stroke-width="2"/>
<path d="M173.998 475.865L203.262 484.096L181.336 505.776L173.998 475.865Z" stroke="url(#paint2_linear)"/>
<path d="M1439.82 733.426L1381.46 710.643L1430.8 670.6L1439.82 733.426Z" stroke="url(#paint3_linear)"/>
<path d="M1317.47 507.703L1300.3 554.092L1268 515.695L1317.47 507.703Z" stroke="url(#paint4_linear)" stroke-width="2"/>
<path d="M1162.11 344.518L1153.74 367.124L1138 348.413L1162.11 344.518Z" stroke="url(#paint5_linear)"/>
<path d="M172.949 353.035L151.194 411.786L110.291 363.156L172.949 353.035Z" stroke="url(#paint6_linear)"/>
<path d="M211.286 673.855L189.531 732.606L148.628 683.977L211.286 673.855Z" stroke="url(#paint7_linear)"/>
<g clip-path="url(#clip0)">
<path d="M390.61 890.078C403.091 871.429 408.221 856.573 402.717 845.893C401.645 843.831 400.28 841.934 398.665 840.263C393.769 835.145 386.859 834.019 378.139 824.904C369.418 815.789 368.592 808.829 363.703 803.718C362.038 801.96 360.137 800.442 358.054 799.208C347.617 793.226 332.581 797.746 313.369 809.341C293.748 821.187 281.605 834.058 285.917 843.472C288.938 850.06 296.714 851.097 305.937 850.3C316.428 849.377 323.861 853.489 335.521 865.677C347.18 877.864 350.741 885.244 349.362 895.691C348.151 904.87 349.043 912.805 355.295 916.051C365.431 921.308 377.72 909.339 390.61 890.078Z" stroke="#EC5D3B" stroke-miterlimit="10"/>
<path d="M359.567 855.793C361.578 857.896 364.913 857.969 367.015 855.958C369.118 853.947 369.191 850.612 367.18 848.51C365.169 846.407 361.834 846.333 359.731 848.345C357.629 850.356 357.555 853.691 359.567 855.793Z" fill="url(#paint8_linear)"/>
<path d="M359.206 872.179C358.486 871.426 358.005 870.476 357.824 869.449C357.644 868.422 357.772 867.365 358.193 866.411C358.614 865.457 359.308 864.65 360.188 864.091C361.068 863.532 362.094 863.246 363.136 863.271C364.178 863.295 365.19 863.628 366.043 864.228C366.896 864.827 367.551 865.666 367.927 866.639C368.303 867.611 368.382 868.673 368.153 869.69C367.925 870.708 367.4 871.634 366.645 872.353C365.635 873.315 364.284 873.837 362.89 873.804C361.495 873.772 360.171 873.187 359.206 872.179Z" fill="url(#paint9_linear)"/>
<path d="M375.956 856.155C377.968 858.257 381.302 858.331 383.405 856.32C385.507 854.308 385.581 850.973 383.57 848.871C381.558 846.769 378.223 846.695 376.121 848.706C374.019 850.718 373.945 854.052 375.956 856.155Z" fill="url(#paint10_linear)"/>
<path d="M375.592 872.542C377.603 874.644 380.938 874.718 383.041 872.707C385.143 870.696 385.217 867.361 383.205 865.258C381.194 863.156 377.859 863.082 375.757 865.094C373.654 867.105 373.581 870.44 375.592 872.542Z" fill="url(#paint11_linear)"/>
<path d="M348.474 818.287L330.202 835.768" stroke="#EC5D3B" stroke-linecap="round" stroke-linejoin="round"/>
<path d="M348.081 836.162L330.6 817.89" stroke="#EC5D3B" stroke-linecap="round" stroke-linejoin="round"/>
</g>
<g clip-path="url(#clip1)">
<path d="M1508.76 658.879C1513.54 646.95 1514.64 638.019 1510.29 632.692C1509.44 631.665 1508.45 630.765 1507.35 630.021C1504 627.737 1499.99 627.928 1494.03 623.861C1488.06 619.793 1486.77 615.993 1483.42 613.712C1482.28 612.925 1481.03 612.301 1479.72 611.858C1473.16 609.749 1465.28 614.069 1455.9 622.848C1446.32 631.816 1441.05 640.469 1444.58 645.229C1447.06 648.56 1451.54 648.215 1456.61 646.672C1462.37 644.907 1467.03 646.326 1475.01 651.765C1482.99 657.204 1485.86 660.914 1486.33 666.929C1486.74 672.214 1488.19 676.552 1492.07 677.627C1498.38 679.365 1503.84 671.2 1508.76 658.879Z" stroke="#EC5D3B" stroke-miterlimit="10"/>
<path d="M1487.3 643.37C1488.68 644.308 1490.55 643.953 1491.49 642.576C1492.43 641.2 1492.07 639.323 1490.7 638.385C1489.32 637.447 1487.44 637.802 1486.51 639.178C1485.57 640.555 1485.92 642.432 1487.3 643.37Z" fill="url(#paint12_linear)"/>
<path d="M1489.05 652.59C1488.55 652.254 1488.17 651.779 1487.95 651.225C1487.73 650.672 1487.67 650.064 1487.79 649.48C1487.92 648.896 1488.21 648.361 1488.64 647.943C1489.06 647.525 1489.6 647.243 1490.19 647.133C1490.78 647.023 1491.38 647.089 1491.93 647.323C1492.48 647.558 1492.95 647.95 1493.27 648.45C1493.6 648.95 1493.77 649.535 1493.76 650.132C1493.76 650.729 1493.57 651.31 1493.24 651.803C1492.78 652.462 1492.09 652.914 1491.3 653.062C1490.52 653.21 1489.71 653.04 1489.05 652.59Z" fill="url(#paint13_linear)"/>
<path d="M1496.52 641.623C1497.9 642.561 1499.78 642.206 1500.71 640.829C1501.65 639.453 1501.3 637.576 1499.92 636.638C1498.54 635.7 1496.67 636.055 1495.73 637.432C1494.79 638.808 1495.15 640.685 1496.52 641.623Z" fill="url(#paint14_linear)"/>
<path d="M1498.27 650.844C1499.65 651.783 1501.52 651.427 1502.46 650.051C1503.4 648.674 1503.04 646.798 1501.67 645.859C1500.29 644.921 1498.41 645.276 1497.47 646.653C1496.54 648.03 1496.89 649.906 1498.27 650.844Z" fill="url(#paint15_linear)"/>
<path d="M1476.63 623.683L1468.47 635.647" stroke="#EC5D3B" stroke-linecap="round" stroke-linejoin="round"/>
<path d="M1478.53 633.741L1466.57 625.587" stroke="#EC5D3B" stroke-linecap="round" stroke-linejoin="round"/>
</g>
<g clip-path="url(#clip2)">
<path d="M226.764 1323.88C231.537 1311.95 232.643 1303.02 228.29 1297.69C227.444 1296.66 226.454 1295.77 225.351 1295.02C222 1292.74 217.996 1292.93 212.028 1288.86C206.059 1284.79 204.769 1280.99 201.423 1278.71C200.281 1277.93 199.036 1277.3 197.722 1276.86C191.165 1274.75 183.282 1279.07 173.901 1287.85C164.321 1296.82 159.051 1305.47 162.585 1310.23C165.061 1313.56 169.539 1313.22 174.61 1311.67C180.376 1309.91 185.028 1311.33 193.008 1316.77C200.988 1322.2 203.86 1325.91 204.331 1331.93C204.744 1337.21 206.187 1341.55 210.075 1342.63C216.377 1344.37 221.836 1336.2 226.764 1323.88Z" stroke="#EC5D3B" stroke-miterlimit="10"/>
<path d="M205.3 1308.37C206.676 1309.31 208.553 1308.95 209.491 1307.58C210.429 1306.2 210.074 1304.32 208.698 1303.38C207.321 1302.45 205.444 1302.8 204.506 1304.18C203.568 1305.55 203.923 1307.43 205.3 1308.37Z" fill="url(#paint16_linear)"/>
<path d="M207.047 1317.59C206.554 1317.25 206.171 1316.78 205.948 1316.23C205.725 1315.67 205.671 1315.06 205.793 1314.48C205.915 1313.9 206.208 1313.36 206.635 1312.94C207.061 1312.53 207.602 1312.24 208.188 1312.13C208.775 1312.02 209.381 1312.09 209.93 1312.32C210.479 1312.56 210.946 1312.95 211.272 1313.45C211.598 1313.95 211.769 1314.54 211.762 1315.13C211.755 1315.73 211.571 1316.31 211.234 1316.8C210.783 1317.46 210.088 1317.91 209.303 1318.06C208.518 1318.21 207.707 1318.04 207.047 1317.59Z" fill="url(#paint17_linear)"/>
<path d="M214.523 1306.62C215.899 1307.56 217.776 1307.21 218.714 1305.83C219.652 1304.45 219.297 1302.58 217.92 1301.64C216.544 1300.7 214.667 1301.06 213.729 1302.43C212.791 1303.81 213.146 1305.68 214.523 1306.62Z" fill="url(#paint18_linear)"/>
<path d="M216.268 1315.84C217.644 1316.78 219.521 1316.43 220.459 1315.05C221.397 1313.67 221.042 1311.8 219.665 1310.86C218.289 1309.92 216.412 1310.28 215.474 1311.65C214.536 1313.03 214.891 1314.91 216.268 1315.84Z" fill="url(#paint19_linear)"/>
<path d="M194.626 1288.68L186.472 1300.65" stroke="#EC5D3B" stroke-linecap="round" stroke-linejoin="round"/>
<path d="M196.532 1298.74L184.568 1290.59" stroke="#EC5D3B" stroke-linecap="round" stroke-linejoin="round"/>
</g>
<path d="M1338.76 362.686L1339.92 363.012H1340.79L1342.24 362.73L1343.11 362.448L1343.97 361.884L1344.55 361.32L1344.84 360.755L1345.42 359.909L1345.71 359.063L1346 358.217V357.371V356.243L1345.71 355.397L1345.42 354.55L1344.55 353.704L1343.97 353.14L1343.68 352.858L1341.95 352.012H1340.5H1339.92L1338.76 352.294L1337.89 352.576L1337.03 353.14L1336.16 353.986L1335.29 355.114L1335 355.961V356.525V356.807C1335 356.995 1335 357.484 1335 357.935C1335 358.161 1335.32 359.408 1335.32 359.408M1339.27 362.853C1339.04 362.853 1337.12 361.978 1337.03 361.884L1336.74 361.602L1336.45 361.32M1336.49 361.365L1335.58 359.909L1335.29 359.345" stroke="url(#paint20_linear)"/>
<path d="M1404.18 1005.39L1406.39 1006.01H1408.05L1410.82 1005.47L1412.47 1004.93L1414.13 1003.86L1415.24 1002.78L1415.79 1001.7L1416.89 1000.09L1417.45 998.473L1418 996.858V995.243V993.089L1417.45 991.473L1416.89 989.858L1415.24 988.243L1414.13 987.166L1413.58 986.627L1410.26 985.012H1407.5H1406.39L1404.18 985.55L1402.53 986.089L1400.87 987.166L1399.21 988.781L1397.55 990.935L1397 992.55V993.627V994.166C1397 994.525 1397 995.458 1397 996.32C1397 996.75 1397.61 999.132 1397.61 999.132M1405.15 1005.71C1404.71 1005.71 1401.05 1004.04 1400.87 1003.86L1400.32 1003.32L1399.76 1002.78M1399.85 1002.87L1398.11 1000.09L1397.55 999.012" stroke="url(#paint21_linear)" stroke-width="3"/>
<path d="M1551.95 835.941L1559.32 838.012H1564.84L1574.05 836.217L1579.58 834.422L1585.11 830.832L1588.79 827.243L1590.63 823.653L1594.32 818.268L1596.16 812.884L1598 807.499V802.114V794.935L1596.16 789.55L1594.32 784.166L1588.79 778.781L1585.11 775.191L1583.26 773.397L1572.21 768.012H1563H1559.32L1551.95 769.807L1546.42 771.602L1540.89 775.191L1535.37 780.576L1529.84 787.755L1528 793.14V796.73V798.525C1528 799.721 1528 802.832 1528 805.704C1528 807.14 1530.05 815.08 1530.05 815.08M1555.18 837.004C1553.7 837.004 1541.51 831.431 1540.89 830.832L1539.05 829.038L1537.21 827.243M1537.51 827.535L1531.68 818.268L1529.84 814.679" stroke="url(#paint22_linear)" stroke-width="3"/>
<defs>
<linearGradient id="paint0_linear" x1="341.683" y1="462.077" x2="352.684" y2="484.506" gradientUnits="userSpaceOnUse">
<stop stop-color="#E98A74"/>
<stop offset="0.390625" stop-color="#F38B31"/>
</linearGradient>
<linearGradient id="paint1_linear" x1="636.443" y1="400.2" x2="628.629" y2="423.257" gradientUnits="userSpaceOnUse">
<stop stop-color="#E98A74"/>
<stop offset="0.390625" stop-color="#F38B31"/>
</linearGradient>
<linearGradient id="paint2_linear" x1="191.456" y1="495.77" x2="172.873" y2="476.977" gradientUnits="userSpaceOnUse">
<stop stop-color="#E98A74"/>
<stop offset="0.390625" stop-color="#F38B31"/>
</linearGradient>
<linearGradient id="paint3_linear" x1="1408.03" y1="689.081" x2="1442.35" y2="731.373" gradientUnits="userSpaceOnUse">
<stop stop-color="#E98A74"/>
<stop offset="0.390625" stop-color="#F38B31"/>
</linearGradient>
<linearGradient id="paint4_linear" x1="1282.91" y1="533.417" x2="1315.82" y2="505.734" gradientUnits="userSpaceOnUse">
<stop stop-color="#E98A74"/>
<stop offset="0.390625" stop-color="#F38B31"/>
</linearGradient>
<linearGradient id="paint5_linear" x1="1145.26" y1="357.049" x2="1161.3" y2="343.559" gradientUnits="userSpaceOnUse">
<stop stop-color="#E98A74"/>
<stop offset="0.390625" stop-color="#F38B31"/>
</linearGradient>
<linearGradient id="paint6_linear" x1="129.17" y1="385.601" x2="170.852" y2="350.541" gradientUnits="userSpaceOnUse">
<stop stop-color="#E98A74"/>
<stop offset="0.390625" stop-color="#F38B31"/>
</linearGradient>
<linearGradient id="paint7_linear" x1="167.507" y1="706.421" x2="209.189" y2="671.362" gradientUnits="userSpaceOnUse">
<stop stop-color="#E98A74"/>
<stop offset="0.390625" stop-color="#F38B31"/>
</linearGradient>
<linearGradient id="paint8_linear" x1="367.18" y1="848.51" x2="359.567" y2="855.793" gradientUnits="userSpaceOnUse">
<stop stop-color="#F3923D"/>
<stop offset="1" stop-color="#EBB375"/>
</linearGradient>
<linearGradient id="paint9_linear" x1="366.82" y1="864.896" x2="359.206" y2="872.179" gradientUnits="userSpaceOnUse">
<stop stop-color="#F3923D"/>
<stop offset="1" stop-color="#EBB375"/>
</linearGradient>
<linearGradient id="paint10_linear" x1="383.57" y1="848.871" x2="375.956" y2="856.155" gradientUnits="userSpaceOnUse">
<stop stop-color="#F3923D"/>
<stop offset="1" stop-color="#EBB375"/>
</linearGradient>
<linearGradient id="paint11_linear" x1="383.205" y1="865.258" x2="375.592" y2="872.542" gradientUnits="userSpaceOnUse">
<stop stop-color="#F3923D"/>
<stop offset="1" stop-color="#EBB375"/>
</linearGradient>
<linearGradient id="paint12_linear" x1="1490.7" y1="638.385" x2="1487.3" y2="643.37" gradientUnits="userSpaceOnUse">
<stop stop-color="#F3923D"/>
<stop offset="1" stop-color="#EBB375"/>
</linearGradient>
<linearGradient id="paint13_linear" x1="1492.45" y1="647.605" x2="1489.05" y2="652.59" gradientUnits="userSpaceOnUse">
<stop stop-color="#F3923D"/>
<stop offset="1" stop-color="#EBB375"/>
</linearGradient>
<linearGradient id="paint14_linear" x1="1499.92" y1="636.638" x2="1496.52" y2="641.623" gradientUnits="userSpaceOnUse">
<stop stop-color="#F3923D"/>
<stop offset="1" stop-color="#EBB375"/>
</linearGradient>
<linearGradient id="paint15_linear" x1="1501.67" y1="645.859" x2="1498.27" y2="650.844" gradientUnits="userSpaceOnUse">
<stop stop-color="#F3923D"/>
<stop offset="1" stop-color="#EBB375"/>
</linearGradient>
<linearGradient id="paint16_linear" x1="208.698" y1="1303.38" x2="205.3" y2="1308.37" gradientUnits="userSpaceOnUse">
<stop stop-color="#F3923D"/>
<stop offset="1" stop-color="#EBB375"/>
</linearGradient>
<linearGradient id="paint17_linear" x1="210.445" y1="1312.61" x2="207.047" y2="1317.59" gradientUnits="userSpaceOnUse">
<stop stop-color="#F3923D"/>
<stop offset="1" stop-color="#EBB375"/>
</linearGradient>
<linearGradient id="paint18_linear" x1="217.92" y1="1301.64" x2="214.523" y2="1306.62" gradientUnits="userSpaceOnUse">
<stop stop-color="#F3923D"/>
<stop offset="1" stop-color="#EBB375"/>
</linearGradient>
<linearGradient id="paint19_linear" x1="219.665" y1="1310.86" x2="216.268" y2="1315.84" gradientUnits="userSpaceOnUse">
<stop stop-color="#F3923D"/>
<stop offset="1" stop-color="#EBB375"/>
</linearGradient>
<linearGradient id="paint20_linear" x1="1340.5" y1="352.012" x2="1340.5" y2="363.012" gradientUnits="userSpaceOnUse">
<stop offset="0.171875" stop-color="#F38B31"/>
<stop offset="0.713442" stop-color="#EFA93D"/>
<stop offset="0.713542" stop-color="#EFA93D"/>
<stop offset="0.921875" stop-color="#FBBD15"/>
</linearGradient>
<linearGradient id="paint21_linear" x1="1407.5" y1="985.012" x2="1407.5" y2="1006.01" gradientUnits="userSpaceOnUse">
<stop offset="0.171875" stop-color="#F38B31"/>
<stop offset="0.713442" stop-color="#EFA93D"/>
<stop offset="0.713542" stop-color="#EFA93D"/>
<stop offset="0.921875" stop-color="#FBBD15"/>
</linearGradient>
<linearGradient id="paint22_linear" x1="1563" y1="768.012" x2="1563" y2="838.012" gradientUnits="userSpaceOnUse">
<stop offset="0.171875" stop-color="#F38B31"/>
<stop offset="0.713442" stop-color="#EFA93D"/>
<stop offset="0.713542" stop-color="#EFA93D"/>
<stop offset="0.921875" stop-color="#FBBD15"/>
</linearGradient>
<clipPath id="clip0">
<rect width="134.866" height="134.866" fill="white" transform="translate(352.839 755.784) rotate(46.2676)"/>
</clipPath>
<clipPath id="clip1">
<rect width="77.2196" height="77.2196" fill="white" transform="translate(1471.64 588.158) rotate(34.2778)"/>
</clipPath>
<clipPath id="clip2">
<rect width="77.2196" height="77.2196" fill="white" transform="translate(189.637 1253.16) rotate(34.2778)"/>
</clipPath>
</defs>
</svg>
