<svg width="916" height="830" viewBox="0 0 916 830" fill="none" xmlns="http://www.w3.org/2000/svg">
<g clip-path="url(#clip0)">
<path d="M325.609 488.608C331.648 489.866 345.524 498.075 350.916 500.83C378.732 515.157 388.828 551.773 387.988 605.622C387.124 661.24 377.016 701.383 346.714 704.025C328.02 705.646 314.503 690.827 303.885 670.76C291.801 647.919 273.121 637.702 229.35 628.373C185.578 619.043 162.981 620.463 140.858 636.013C121.386 649.654 102.49 657.714 86.1682 648.39C62.8567 635.055 71.328 593.283 98.0141 543.819C124.146 495.393 151.213 466.665 183.241 465.092C189.692 464.859 196.149 465.435 202.425 466.804" stroke="url(#paint0_linear)" stroke-width="5" stroke-miterlimit="10"/>
<path d="M203.907 530.136L185.387 600.757" stroke="url(#paint1_linear)" stroke-width="5" stroke-linecap="round" stroke-linejoin="round"/>
<path d="M233.892 573.803L155.412 557.076" stroke="url(#paint2_linear)" stroke-width="5" stroke-linecap="round" stroke-linejoin="round"/>
<path d="M156.337 774.192L125.735 755.775L160.012 740.785L156.337 774.192Z" stroke="url(#paint3_linear)" stroke-width="2"/>
<path d="M165.512 412.3L155.167 437.207L135.942 416.495L165.512 412.3Z" stroke="url(#paint4_linear)" stroke-width="2"/>
<path d="M385.783 721.338L384.031 721.844L382.277 722.861L380.522 724.39L378.764 726.431L378.176 727.963L378.172 728.987L378.171 729.498C378.169 729.839 378.166 730.726 378.164 731.545C378.162 731.954 378.803 734.219 378.803 734.219M389.285 720.839L392.203 720.848L395.698 722.395L396.28 722.909L397.443 723.936L399.188 725.477L399.766 727.014L400.345 728.551L400.338 730.597L400.332 732.132L399.744 733.665L399.155 735.198L397.983 736.729L397.396 737.75L396.226 738.769L394.472 739.786L392.72 740.292L389.801 740.794L388.051 740.788L385.719 740.189M386.741 740.496C386.274 740.494 382.417 738.893 382.223 738.721L381.642 738.208L381.06 737.694M381.155 737.778L379.318 735.13L378.738 734.105" stroke="url(#paint5_linear)" stroke-width="2"/>
<path d="M433.137 658.144L408.923 649.544L429.47 634.643L433.137 658.144Z" stroke="url(#paint6_linear)" stroke-width="2"/>
</g>
<g clip-path="url(#clip1)">
<path d="M199.953 339.059C203.789 331.208 204.832 325.274 201.737 321.619C201.136 320.914 200.424 320.291 199.624 319.769C197.197 318.168 194.223 318.204 189.9 315.353C185.576 312.501 184.714 309.936 182.29 308.338C181.463 307.786 180.555 307.341 179.592 307.015C174.783 305.457 168.83 308.16 161.656 313.803C154.329 319.568 150.206 325.221 152.708 328.479C154.46 330.758 157.789 330.63 161.587 329.717C165.906 328.672 169.321 329.725 175.102 333.538C180.883 337.35 182.92 339.892 183.118 343.916C183.293 347.452 184.255 350.381 187.111 351.187C191.74 352.491 195.991 347.168 199.953 339.059Z" stroke="url(#paint7_linear)" stroke-width="2" stroke-miterlimit="10"/>
<path d="M184.426 328.218C185.423 328.876 186.823 328.681 187.553 327.784C188.283 326.887 188.067 325.627 187.069 324.969C186.072 324.311 184.672 324.506 183.942 325.403C183.212 326.3 183.429 327.56 184.426 328.218Z" fill="url(#paint8_linear)"/>
<path d="M185.491 334.411C185.134 334.175 184.862 333.85 184.711 333.475C184.559 333.1 184.534 332.694 184.639 332.307C184.744 331.92 184.975 331.569 185.301 331.3C185.628 331.031 186.036 330.856 186.474 330.796C186.911 330.735 187.359 330.794 187.76 330.962C188.162 331.131 188.498 331.404 188.727 331.745C188.957 332.086 189.069 332.481 189.049 332.879C189.029 333.277 188.878 333.661 188.615 333.982C188.264 334.411 187.738 334.697 187.152 334.778C186.567 334.858 185.969 334.726 185.491 334.411Z" fill="url(#paint9_linear)"/>
<path d="M191.307 327.263C192.304 327.921 193.705 327.727 194.435 326.83C195.165 325.933 194.948 324.673 193.951 324.015C192.953 323.357 191.553 323.551 190.823 324.448C190.093 325.345 190.31 326.606 191.307 327.263Z" fill="url(#paint10_linear)"/>
<path d="M192.371 333.457C193.368 334.114 194.768 333.92 195.498 333.023C196.228 332.126 196.012 330.866 195.014 330.208C194.017 329.55 192.617 329.744 191.887 330.641C191.157 331.539 191.373 332.799 192.371 333.457Z" fill="url(#paint11_linear)"/>
<path d="M177.002 314.836L170.657 322.632" stroke="#EC5D3B" stroke-linecap="round" stroke-linejoin="round"/>
<path d="M178.165 321.592L169.497 315.875" stroke="#EC5D3B" stroke-linecap="round" stroke-linejoin="round"/>
</g>
<path d="M311.122 583.077L309.446 583.573L308.886 584.074L308.856 592.948L352.207 593.096L352.22 589.077L351.481 587.735L348.881 586.219L329.367 579.79L325.832 579.778" stroke="url(#paint12_linear)" stroke-width="3.5"/>
<path d="M308.863 590.772L352.4 590.92" stroke="url(#paint13_linear)" stroke-width="3.5"/>
<path d="M237.792 590.194L234.243 594.368L233.298 598.719L275.876 607.236L277.19 603.892L277.195 602.552L275.9 600.203L254.727 589.08" stroke="url(#paint14_linear)" stroke-width="3.5"/>
<path d="M234.235 596.545L276.254 605.228" stroke="url(#paint15_linear)" stroke-width="3.5"/>
<path d="M257.736 579.546L254.912 589.249L253.238 589.243L251.75 589.07L250.449 588.396L248.775 588.391L245.793 589.72L242.63 589.709L238.165 589.527L240.432 579.487" stroke="url(#paint16_linear)" stroke-width="3.5"/>
<path d="M326.225 573.751L326.545 579.571L324.957 580.048L323.486 580.313L322.015 580.049L320.427 580.525L317.265 582.094L315.216 582.756L311.307 583.245L309.665 573.695" stroke="url(#paint17_linear)" stroke-width="3.5"/>
<path d="M212.993 441.919L206.788 461.155L206.757 470.197L216.02 481.95L227.729 485.506L241.49 487.73L235.598 578.968L261.831 579.058L283.218 472.634L283.241 465.769L283.271 457.061L279.193 452.359L272.699 447.146L262.662 444.265" stroke="url(#paint18_linear)" stroke-width="3.5"/>
<path d="M282.006 445.67L301.542 445.737L307.675 447.6L312.317 450.295L315.467 454.157L317.126 458.851L337.572 573.79L305.757 573.681L286.701 487.381L280.19 487.359" stroke="url(#paint19_linear)" stroke-width="3.5"/>
<path d="M215.767 392.197L198.411 407.878L189.098 410.861L179.986 409.322L175.163 405.12L172.953 398.414L167.416 330.747L170.207 330.756L174.484 331.441L177.452 333.962L180.037 339.665L180.02 344.688L178.501 353.725L189.178 387.418L198.51 378.743" stroke="url(#paint20_linear)" stroke-width="3.5"/>
<path d="M309.975 373.597L321.862 379.665L352.792 366.709L354.847 364.037L357.65 360.698L361.567 357.697L366.782 356.04C367.278 356.042 368.606 356.047 369.945 356.051C371.285 356.056 373.23 356.62 374.036 356.902L377.193 358.42L378.678 359.597L359.659 371.756L327.565 398.774L324.585 399.434L321.795 399.424L318.076 398.742L314.364 396.05L304.705 391.328L305.448 391.666" stroke="url(#paint21_linear)" stroke-width="3.5"/>
<path d="M273.563 357.062L278.769 358.42C279.697 358.869 281.554 359.936 281.552 360.606C281.55 361.276 282.534 363.568 283.027 364.63L281.852 381.874" stroke="url(#paint22_linear)" stroke-width="3.5"/>
<path d="M273.137 318.548L276.85 320.905L278.516 323.422L278.508 325.934L278.503 327.441L278.124 329.449C277.687 330.341 276.67 331.231 276.255 331.787C275.881 332.288 275.072 333.123 274.017 333.454C273.271 333.786 271.669 334.451 271.222 334.449C270.776 334.448 269.92 334.445 269.548 334.444" stroke="url(#paint23_linear)" stroke-width="3.5"/>
<path d="M241.258 337.027L246.263 342.57L253.696 345.274L259.839 344.29L264.686 341.628L268.423 337.119L269.369 332.434L270.13 327.58C271.127 326.021 270.888 323.396 270.893 322.057C270.897 320.717 271.28 317.537 271.285 316.03" stroke="url(#paint24_linear)" stroke-width="3.5"/>
<path d="M243.667 340.552L243.619 354.617L226.68 356.904" stroke="url(#paint25_linear)" stroke-width="3.5"/>
<path d="M260.028 343.621L261.105 355.011L271.331 357.223L276.172 356.067L282.122 357.259L288.808 360.631L297.17 363.841L310.545 370.082L303.011 396.848L281.853 381.538L281.822 445.503L212.809 441.417L215.392 393.033L216.511 392.367M216.511 392.367L217.811 393.042L232.957 370.823L233.898 367.644L233.909 364.63L232.244 361.611L229.276 359.089L226.678 357.071L222.031 355.883L216.631 357.036L194.985 375.884L216.511 392.367Z" stroke="url(#paint26_linear)" stroke-width="3.5"/>
<path d="M238.218 355.77L239.512 358.286L242.107 361.309L245.636 363.163L250.841 364.353C251.958 364.357 254.302 364.365 254.749 364.366C255.195 364.368 257.665 363.93 258.844 363.711L262.384 362.216L264.437 360.381L265.374 358.542L265.381 356.365L265.197 355.862" stroke="url(#paint27_linear)" stroke-width="3.5"/>
<path d="M243.919 321.296L245.593 321.301L246.525 320.802L247.644 320.136L247.646 319.466L248.02 318.965L248.392 318.966L249.322 318.97L250.065 319.474L250.808 319.812L252.481 320.153L254.343 319.824L255.461 319.493L257.697 318.328L258.258 317.493L259.745 318L260.859 318.674L263.463 319.018L265.138 318.689C265.448 318.857 266.142 319.027 266.442 318.358C266.742 317.689 267.191 316.854 267.378 316.519L267.38 316.017L270.543 316.028L272.592 315.365C272.963 315.589 273.78 316.039 274.078 316.04C274.376 316.041 275.568 315.598 276.127 315.377C276.314 315.043 276.763 314.307 277.062 314.041C277.36 313.774 277.809 313.15 277.996 312.872L278.372 311.868L278.003 310.695C278.439 310.417 279.346 309.762 279.497 309.36C279.684 308.859 279.5 308.188 279.502 307.853C279.503 307.518 280.248 307.353 279.878 306.515C279.583 305.844 279.512 304.895 279.513 304.504L278.027 303.662C278.213 303.83 278.398 304.065 277.655 303.661C275.723 302.85 274.868 302.647 274.682 302.646L273.576 299.461L272.65 298.285C272.154 298.116 271.052 297.744 270.606 297.609C270.048 297.439 268.933 297.1 268.561 297.099C268.263 297.098 267.071 297.429 266.513 297.595C266.573 298.041 266.583 298.8 266.138 298.263C265.582 297.591 265.77 297.09 264.654 297.086C263.537 297.082 265.026 297.087 262.98 296.745C260.935 296.403 260.935 296.403 260.377 296.402C259.929 296.668 259.569 296.957 259.444 297.068C259.258 296.956 258.775 296.731 258.329 296.729C256.692 296.724 255.785 296.944 255.537 297.055L251.82 295.87C250.082 296.143 246.421 296.689 245.677 296.686C244.933 296.684 239.403 299.568 236.732 301.01L234.674 304.352L232.42 310.54L232.395 317.907C231.09 318.628 228.443 320.071 228.294 320.07C228.145 320.07 227.484 321.184 227.172 321.741L225.862 323.913L225.483 325.921C225.48 326.87 225.473 328.902 225.471 329.438C225.47 329.974 226.085 331.226 226.394 331.785L227.132 333.63L227.684 335.306L229.353 336.819L231.58 338.501L236.786 339.691L240.511 338.531L242.937 336.363L244.433 334.191L245.557 331.85L245.565 329.506L245.572 327.664C245.573 327.274 245.576 326.392 245.577 325.99C245.579 325.487 245.394 325.319 245.21 324.649C245.026 323.978 244.469 323.642 244.471 323.139C244.472 322.737 244.103 321.743 243.919 321.296ZM243.919 321.296L242.623 319.449L240.952 318.271L239.837 317.933L238.164 317.425L236.862 317.42L237.059 314.239L238.188 310.559C238.75 309.389 239.874 306.915 239.876 306.379C239.878 305.843 242.617 303.039 243.986 301.704L248.461 298.873L255.906 297.893" stroke="url(#paint28_linear)" stroke-width="3.5"/>
<path d="M231.276 318.406C231.277 318.138 231.281 316.955 231.283 316.397L229.426 315.386C229.179 315.05 228.648 314.278 228.501 313.876C228.316 313.373 228.504 312.871 228.506 312.368C228.507 311.967 228.511 310.861 228.513 310.359L229.447 309.023L231.31 308.359L230.574 306.18L231.322 305.01C231.508 304.843 231.993 304.477 232.44 304.344C232.887 304.212 233.992 303.959 234.489 303.849" stroke="url(#paint29_linear)" stroke-width="3.5"/>
<path d="M172.129 120.458L152.616 108.716L174.474 99.1567L172.129 120.458Z" stroke="url(#paint30_linear)" stroke-width="3.5"/>
<path d="M96.8242 84.1057L77.311 72.364L99.1688 62.8046L96.8242 84.1057Z" stroke="url(#paint31_linear)" stroke-width="3.5"/>
<path d="M332.024 190.932L322.015 146.304L371.588 161.61L332.024 190.932Z" stroke="url(#paint32_linear)" stroke-width="3.5"/>
<path d="M332.024 190.932L322.015 146.304L371.588 161.61L332.024 190.932Z" stroke="url(#paint33_linear)" stroke-width="3.5"/>
<path d="M2.6338 77.3931L16.9287 81.0637L6.17682 90.5663L2.6338 77.3931Z" stroke="url(#paint34_linear)" stroke-width="3.5"/>
<path d="M907.819 756.827L891.312 750.963L905.319 740.805L907.819 756.827Z" stroke="url(#paint35_linear)" stroke-width="3.5"/>
<path d="M782.475 825.521L733.311 808.059L775.03 777.804L782.475 825.521Z" stroke="url(#paint36_linear)" stroke-width="3.5"/>
<path d="M185.959 11.8124L175.235 37.6267L155.311 16.1616L185.959 11.8124Z" stroke="url(#paint37_linear)" stroke-width="3.5"/>
<g clip-path="url(#clip2)">
<path d="M27.166 450.604C29.5169 445.363 30.0709 441.435 27.9509 439.084C27.5389 438.63 27.0562 438.233 26.5179 437.903C24.883 436.893 22.9254 436.97 20.0138 435.17C17.1021 433.37 16.4769 431.696 14.8444 430.687C14.2875 430.339 13.6795 430.062 13.038 429.865C9.83565 428.926 5.97511 430.814 1.37615 434.661C-3.32077 438.591 -5.91005 442.39 -4.18921 444.49C-2.98383 445.96 -0.793988 445.816 1.6873 445.145C4.50868 444.379 6.78113 445.011 10.6741 447.417C14.5671 449.824 15.9657 451.461 16.1867 454.109C16.381 456.435 17.0802 458.346 18.979 458.826C22.0574 459.601 24.7384 456.017 27.166 450.604Z" stroke="#EC5D3B" stroke-miterlimit="10"/>
<path d="M16.696 443.744C17.3675 444.159 18.2854 444.006 18.7462 443.402C19.2069 442.797 19.036 441.971 18.3644 441.556C17.6929 441.141 16.7749 441.294 16.3142 441.898C15.8535 442.502 16.0244 443.329 16.696 443.744Z" fill="url(#paint38_linear)"/>
<path d="M17.5363 447.804C17.2957 447.655 17.1094 447.446 17.0011 447.202C16.8929 446.958 16.8674 446.69 16.928 446.433C16.9887 446.177 17.1326 445.942 17.3416 445.759C17.5507 445.575 17.8154 445.452 18.1024 445.405C18.3893 445.357 18.6856 445.387 18.9536 445.491C19.2216 445.595 19.4494 445.769 19.6081 445.989C19.7668 446.21 19.8492 446.468 19.845 446.73C19.8408 446.993 19.7501 447.248 19.5844 447.465C19.3627 447.754 19.0226 447.952 18.6386 448.015C18.2547 448.079 17.8583 448.003 17.5363 447.804Z" fill="url(#paint39_linear)"/>
<path d="M21.2072 442.991C21.8788 443.406 22.7967 443.253 23.2574 442.648C23.7181 442.044 23.5472 441.218 22.8757 440.803C22.2041 440.388 21.2862 440.541 20.8254 441.145C20.3647 441.749 20.5356 442.575 21.2072 442.991Z" fill="url(#paint40_linear)"/>
<path d="M22.0465 447.051C22.7181 447.466 23.636 447.313 24.0968 446.709C24.5575 446.105 24.3866 445.278 23.715 444.863C23.0434 444.448 22.1255 444.601 21.6648 445.205C21.2041 445.81 21.375 446.636 22.0465 447.051Z" fill="url(#paint41_linear)"/>
<path d="M11.5068 435.063L7.50252 440.314" stroke="#EC5D3B" stroke-linecap="round" stroke-linejoin="round"/>
<path d="M12.4237 439.492L6.58691 435.884" stroke="#EC5D3B" stroke-linecap="round" stroke-linejoin="round"/>
</g>
<path d="M-3.19464 367.656L-0.777962 368.276L1.03611 368.282L4.06138 367.762L5.87725 367.238L7.69494 366.184L8.90793 365.127L9.51624 364.069L10.731 362.482L11.3411 360.893L11.9513 359.305L11.9567 357.714L11.9639 355.593L11.3646 354L10.7653 352.407L8.95668 350.81L7.75091 349.746L7.14802 349.213L3.52529 347.61L0.501833 347.6L-0.707551 347.596L-3.12812 348.118L-4.944 348.642L-6.76169 349.696L-8.58118 351.281L-10.4025 353.396L-11.0126 354.984L-11.0162 356.045L-11.018 356.575C-11.0192 356.929 -11.0223 357.848 -11.0252 358.696C-11.0267 359.12 -10.3624 361.468 -10.3624 361.468M-2.13563 367.973C-2.61938 367.972 -6.61669 366.312 -6.81765 366.134L-7.42054 365.602L-8.02343 365.07M-7.92533 365.156L-9.82847 362.412L-10.4296 361.35" stroke="url(#paint42_linear)" stroke-width="3.5"/>
<path d="M498.879 431.439L498.659 495.988L566.958 496.221L563.352 443.822" stroke="url(#paint43_linear)" stroke-width="3.5"/>
<path d="M426.516 407.676L443.177 436.602L449.299 438.245L453.624 438.259L460.297 436.66L470.216 434.586M390.183 387.441C390.179 388.609 399.608 406.773 404.323 415.71L451.958 398.194L433.656 374.939L389.286 386.303" stroke="url(#paint44_linear)" stroke-width="3.5"/>
<path d="M405.42 410.848L394.862 389.079L433.642 378.993L446.377 396.391L405.42 410.848Z" stroke="url(#paint45_linear)" stroke-width="3.5"/>
<path d="M437.702 403.984C443.271 409.355 454.623 420.098 455.489 420.101C456.354 420.104 466.668 418.301 471.717 417.399" stroke="url(#paint46_linear)" stroke-width="3.5"/>
<path d="M520.442 396.48L520.405 407.347L515.716 408.466L515.707 411.061L517.961 416.328L526.946 424.47L541.654 412.263L541.668 408.068L536.624 407.402L535.586 394.91" stroke="url(#paint47_linear)" stroke-width="3.5"/>
<path d="M542.619 409.179L552.362 410.65M552.362 410.65L554.937 409.296L558.229 407.882L563.191 408.61L568.044 411.791L579.393 431.677L563.069 444.419L549.045 422.328L548.628 418.29L549.383 413.341L552.362 410.65Z" stroke="url(#paint48_linear)" stroke-width="3.5"/>
<path d="M564.791 444.151L574.313 452.78L583.305 458L590.147 459.97L596.634 459.992L602.416 455.633L610.226 384.784L605.721 384.768L602.648 387.515L599.21 391.558L599.179 400.803L599.161 405.992L590.208 442.13L578.529 431.872" stroke="url(#paint49_linear)" stroke-width="3.5"/>
<path d="M515.539 408.141C514.818 408.138 505.622 409.729 501.114 410.524M501.114 410.524L470.277 416.706L468.46 426.253L470.213 435.271L498.521 430.951L498.578 414.246L498.581 413.435L498.586 411.976L501.114 410.524Z" stroke="url(#paint50_linear)" stroke-width="3.5"/>
<path d="M543.158 658.647L543.141 663.513M543.141 663.513L541.159 663.506L538.458 662.848L535.219 661.378L533.42 660.398L531.078 660.39L528.194 660.381M543.141 663.513L544.941 664.168L544.936 665.465L544.911 673.088L503.102 672.946L503.104 672.297L503.114 669.378L503.842 667.434L505.829 666.143L524.95 660.37L526.392 660.374L528.194 660.381M528.194 660.381L527.479 658.594" stroke="url(#paint51_linear)" stroke-width="3.5"/>
<path d="M535.949 658.461L525.678 658.426L523.648 510.615" stroke="url(#paint52_linear)" stroke-width="3.5"/>
<path d="M511.504 375.209L511.465 386.719L513.613 391.105L518.465 395.177L524.947 396.821L529.813 396.837L534.684 395.232L538.298 392.325L541.515 380.719L540.332 375.307" stroke="url(#paint53_linear)" stroke-width="3.5"/>
<path d="M500.1 496.154L484.603 654.556L486.946 654.564M542.079 657.833L546.98 657.85L547.249 578.648L563.532 496.37L524.067 496.236L523.933 535.67L512.228 570.598L515.447 593.5L515.39 610.222L504.787 654.625L486.946 654.564M486.946 654.564L486.936 657.645M486.936 657.645L484.052 657.636L463.306 664.214L462.22 665.508L461.496 666.641L461.489 668.587L461.483 670.371L503.651 670.515L503.68 662.081L502.601 661.267L499.538 661.256L495.757 660.27L492.16 658.15L486.936 657.645Z" stroke="url(#paint54_linear)" stroke-width="3.5"/>
<path d="M495.413 655.566L494.672 661.402" stroke="url(#paint55_linear)" stroke-width="3.5"/>
<path d="M749.75 476.107L749.736 480.158L751.804 483.125L753.189 483.13L755.619 481.113L759.95 480.193L758.762 473.178L755.663 468.182L750.83 463.959L743.049 461.439" stroke="url(#paint56_linear)" stroke-width="3.5"/>
<path d="M764.105 480.051L763.609 473.35L762.757 469.452L758.966 464.298L755.684 462.106L752.572 460.849L747.902 459.898L743.226 460.505L741.837 461.435L743.222 461.44" stroke="url(#paint57_linear)" stroke-width="3.5"/>
<path d="M762.756 469.956L765.344 472.301L766.369 476.356L765.316 480.714L768.077 483.061L769.623 486.649L769.601 493.037L766.293 498.634L761.093 500.642L756.073 500.625L751.591 495.157L750.394 490.635L751.62 486.588L753.536 483.011" stroke="url(#paint58_linear)" stroke-width="3.5"/>
<path d="M741.839 461.279L732.489 461.87L726.598 463.408L722.432 466.51L719.303 470.55L717.905 474.285L718.586 477.714L720.482 480.214L724.287 481.161M724.287 481.161L728.961 481.177L732.944 480.568L737.102 479.647L749.234 475.638L749.924 476.107M724.287 481.161L722.376 483.024L720.985 484.889L720.634 486.446L720.626 488.783L720.622 489.874L721.136 491.433L721.825 492.37L723.205 493.777L725.72 495.663" stroke="url(#paint59_linear)" stroke-width="3.5"/>
<path d="M659.051 544.674L622.267 536.553L634.105 508.032L667.744 508.147L659.051 544.674Z" stroke="url(#paint60_linear)" stroke-width="3.5"/>
<path d="M567.561 690.969L567.619 674.021L567.655 663.428L578.525 651.177L581.357 649.068" stroke="url(#paint61_linear)" stroke-width="3.5"/>
<path d="M738.113 515.713L741.445 505.131L736.741 503.844L731.091 503.825L728.76 497.037L728.775 492.8L728.791 488.14L728.808 483.055" stroke="url(#paint62_linear)" stroke-width="3.5"/>
<path d="M759.759 518.752L759.79 509.43L759.827 498.739" stroke="url(#paint63_linear)" stroke-width="3.5"/>
<path d="M788.292 573.083L782.13 585.35C778.983 587.74 775.967 597.786 774.076 600.152C772.185 602.518 771.55 604.663 770.288 606.495C768.553 609.172 763.856 615.286 758.949 618.32C754.042 621.354 743.697 626.883 739.138 629.269C737.099 628.979 722.859 626.332 719.85 624.966" stroke="url(#paint64_linear)" stroke-width="3.5"/>
<path d="M692.622 602.417L711.492 591.465L711.523 582.144L711.541 577.059L700.21 586.342L695.485 591.411L683.244 591.369L662.108 576.891L632.078 547.129L632.114 536.537L639.63 541.647L644.337 541.663L649.027 547.187L649.009 552.271L683.306 573.15L700.292 562.191" stroke="url(#paint65_linear)" stroke-width="3.5"/>
<path d="M697.003 560.486L692.315 554.538L717.365 525.811C718.784 523.98 722.281 520.15 724.919 519.481C727.558 518.812 733.561 516.403 736.233 515.282C737.954 516.701 741.491 519.537 741.868 519.539C742.244 519.54 745.783 521.812 747.506 522.948L753.626 522.968L760.228 519.601L765.892 515.383C770.412 515.399 786.262 524.492 793.623 529.036C795.029 530.877 797.838 535.406 797.827 538.796C797.815 542.186 797.785 550.942 797.772 554.897L789.705 573.513L770.423 567.34M770.423 567.34L770.509 542.093M770.423 567.34L767.725 573.438L763.066 585.668L759.986 590.783L750.496 604.734L741.565 608.516L724.603 612.272L712.847 608.419L692.145 604.535" stroke="url(#paint66_linear)" stroke-width="3.5"/>
<path d="M577.862 707.528L596.18 719.877L608.395 727.546C615.445 730.818 630.771 737.367 635.667 737.384C640.563 737.4 665.64 737.486 677.567 737.526L694.044 737.582C700.635 737.605 714.947 737.654 719.466 737.669C723.986 737.684 734.845 737.721 739.71 737.738L764.202 734.432C828.744 721.517 821.256 708.356 821.241 713.017M538.215 737.052L551.408 733.707L559.916 723.991L568.889 715.547L559.963 710.009L554.323 707.447L543.024 707.409L538.3 712.054L525.092 719.635L515.191 723.839L515.158 733.584L515.147 736.973L532.566 737.033L538.215 737.052Z" stroke="url(#paint67_linear)" stroke-width="3.5"/>
<path d="M567.95 714.696L609.961 682.213L613.755 674.176L618.009 669.106L631.72 652.205L642.579 642.92C651.053 642.949 668.661 643.009 671.297 643.018C674.593 643.029 685.891 643.068 690.599 643.084C694.365 643.096 699.073 643.112 710.854 639.763L716.504 639.58L724.039 638.96L729.697 636.437L729.71 632.624L719.85 624.964L707.17 615.599C707.957 615.037 705.576 613.73 702.942 613.043C700.308 612.356 645.345 614.259 618.192 615.296L610.143 628.827L598.808 639.381L593.125 649.107L577.522 668.968L569.927 687.162L560.93 702.384L555.737 706.604L555.733 707.875" stroke="url(#paint68_linear)" stroke-width="3.5"/>
<path d="M703.882 613.896L689.802 601.137C686.982 599.715 680.685 596.36 678.055 594.318C675.426 592.275 636.894 561.694 617.957 546.658C617.957 546.658 609.722 540.303 607.39 540.295C605.059 540.287 592.751 545.612 592.751 545.612L592.063 546.57L589.823 558.241L585.715 613.494L596.982 622.853L606.853 627.548L612.032 627.565C611.417 623.75 610.188 616.021 610.196 613.577C610.209 609.764 610.902 590.699 610.309 580.529L648.8 613.708" stroke="url(#paint69_linear)" stroke-width="3.5"/>
<path d="M589.941 616.896L580.496 625.338L577.185 629.988L574.351 632.52L574.305 646.079L574.295 649.045C576.021 649.051 579.662 649.063 580.416 649.066C581.169 649.068 587.005 649.653 589.829 649.945L594.085 644.452C595.033 642.336 597.026 637.936 597.405 637.26C597.784 636.583 599.776 632.183 600.725 630.068L602.156 624.564" stroke="url(#paint70_linear)" stroke-width="3.5"/>
<path d="M711.544 575.788L725.298 546.175" stroke="url(#paint71_linear)" stroke-width="3.5"/>
<path d="M775.775 515.84L782.393 507.812L791.823 503.607L799.841 499.397L810.684 495.197L820.57 495.231L823.38 499.477L822.645 715.564" stroke="url(#paint72_linear)" stroke-width="3.5"/>
<path d="M611.616 611.038L618.241 601.315L625.785 597.951L630.964 597.969" stroke="url(#paint73_linear)" stroke-width="3.5"/>
<path d="M694.188 557.509L684.292 560.018C682.877 560.86 679.67 562.629 678.162 562.963C676.654 563.297 673.139 563.087 671.571 562.94L669.212 564.203" stroke="url(#paint74_linear)" stroke-width="3.5"/>
<path d="M537.025 405.218L543.44 403.257L548.061 399.127L545.713 382.716L543.564 367.028L538.782 359.801L530.785 355.628L524.385 352.903L515.966 355.037L510.349 357.722L506.529 362.215L501.475 375.897L497.626 388.861L495.402 394.982L497.591 398.955L503.986 403.123L507.418 395.023L509.387 405.124L514.193 405.14L516.009 401.181L519 405.156" stroke="#FE662E" stroke-width="3.5"/>
<path d="M512.252 361.99L508.688 375.2L517.29 375.229L519.914 370.451L519.9 374.554L523.94 374.568L525.921 366.938L527.457 375.264L541.534 375.312L540.786 365.279L528.813 359.767L512.252 361.99Z" stroke="#F38B31" stroke-width="3.5"/>
<defs>
<linearGradient id="paint0_linear" x1="269.16" y1="476.576" x2="225.874" y2="679.665" gradientUnits="userSpaceOnUse">
<stop stop-color="#E08B49"/>
<stop offset="0.953657" stop-color="#36357E"/>
</linearGradient>
<linearGradient id="paint1_linear" x1="204.396" y1="530.241" x2="189.193" y2="601.568" gradientUnits="userSpaceOnUse">
<stop offset="0.146351" stop-color="#F38B31"/>
<stop offset="0.958866" stop-color="#7474B4"/>
</linearGradient>
<linearGradient id="paint2_linear" x1="194.652" y1="565.44" x2="194.444" y2="566.417" gradientUnits="userSpaceOnUse">
<stop offset="0.146351" stop-color="#F38B31"/>
<stop offset="0.958866" stop-color="#7474B4"/>
</linearGradient>
<linearGradient id="paint3_linear" x1="144.192" y1="747.704" x2="155.866" y2="774.398" gradientUnits="userSpaceOnUse">
<stop stop-color="#E98A74"/>
<stop offset="0.390625" stop-color="#F38B31"/>
</linearGradient>
<linearGradient id="paint4_linear" x1="144.815" y1="426.055" x2="162.791" y2="409.369" gradientUnits="userSpaceOnUse">
<stop stop-color="#E98A74"/>
<stop offset="0.390625" stop-color="#F38B31"/>
</linearGradient>
<linearGradient id="paint5_linear" x1="389.285" y1="720.839" x2="389.218" y2="740.792" gradientUnits="userSpaceOnUse">
<stop offset="0.171875" stop-color="#F38B31"/>
<stop offset="0.713442" stop-color="#EFA93D"/>
<stop offset="0.713542" stop-color="#EFA93D"/>
<stop offset="0.921875" stop-color="#FBBD15"/>
</linearGradient>
<linearGradient id="paint6_linear" x1="419.987" y1="641.521" x2="432.419" y2="658.665" gradientUnits="userSpaceOnUse">
<stop stop-color="#E98A74"/>
<stop offset="0.390625" stop-color="#F38B31"/>
</linearGradient>
<linearGradient id="paint7_linear" x1="190.957" y1="314.054" x2="172.602" y2="341.887" gradientUnits="userSpaceOnUse">
<stop stop-color="#F38B31"/>
<stop offset="0.688027" stop-color="#7474B4"/>
</linearGradient>
<linearGradient id="paint8_linear" x1="187.069" y1="324.969" x2="184.775" y2="328.448" gradientUnits="userSpaceOnUse">
<stop stop-color="#F3923D"/>
</linearGradient>
<linearGradient id="paint9_linear" x1="188.135" y1="331.162" x2="185.841" y2="334.641" gradientUnits="userSpaceOnUse">
<stop stop-color="#F3923D"/>
</linearGradient>
<linearGradient id="paint10_linear" x1="193.951" y1="324.015" x2="191.656" y2="327.494" gradientUnits="userSpaceOnUse">
<stop stop-color="#F3923D"/>
</linearGradient>
<linearGradient id="paint11_linear" x1="195.014" y1="330.208" x2="192.72" y2="333.687" gradientUnits="userSpaceOnUse">
<stop stop-color="#F3923D"/>
</linearGradient>
<linearGradient id="paint12_linear" x1="330.576" y1="579.794" x2="330.531" y2="593.022" gradientUnits="userSpaceOnUse">
<stop stop-color="#F38B31"/>
<stop offset="0.0001" stop-color="#EF743D"/>
<stop offset="0.979699" stop-color="#F38B31"/>
</linearGradient>
<linearGradient id="paint13_linear" x1="330.631" y1="590.846" x2="330.628" y2="591.846" gradientUnits="userSpaceOnUse">
<stop offset="0.823447" stop-color="#F38B31"/>
</linearGradient>
<linearGradient id="paint14_linear" x1="255.286" y1="589.082" x2="255.224" y2="607.166" gradientUnits="userSpaceOnUse">
<stop offset="0.823447" stop-color="#F38B31"/>
</linearGradient>
<linearGradient id="paint15_linear" x1="255.259" y1="596.617" x2="255.23" y2="605.157" gradientUnits="userSpaceOnUse">
<stop offset="0.823447" stop-color="#F38B31"/>
<stop offset="1" stop-color="#100700" stop-opacity="0"/>
</linearGradient>
<linearGradient id="paint16_linear" x1="247.968" y1="579.513" x2="247.933" y2="589.727" gradientUnits="userSpaceOnUse">
<stop stop-color="#F38B31"/>
<stop offset="0.0001" stop-color="#EF743D"/>
<stop offset="0.979699" stop-color="#F38B31"/>
</linearGradient>
<linearGradient id="paint17_linear" x1="316.248" y1="571.718" x2="319.263" y2="581.758" gradientUnits="userSpaceOnUse">
<stop stop-color="#F38B31"/>
<stop offset="0.0001" stop-color="#EF743D"/>
<stop offset="0.979699" stop-color="#F38B31"/>
</linearGradient>
<linearGradient id="paint18_linear" x1="245.087" y1="442.029" x2="244.621" y2="578.999" gradientUnits="userSpaceOnUse">
<stop stop-color="#F38B31"/>
<stop offset="0.0001" stop-color="#EF743D"/>
<stop offset="0.979699" stop-color="#F38B31"/>
</linearGradient>
<linearGradient id="paint19_linear" x1="309.17" y1="445.763" x2="308.734" y2="573.691" gradientUnits="userSpaceOnUse">
<stop stop-color="#EF743D"/>
<stop offset="0.0001" stop-color="#EF743D"/>
<stop offset="0.953657" stop-color="#F28B31"/>
</linearGradient>
<linearGradient id="paint20_linear" x1="191.696" y1="330.829" x2="191.423" y2="410.868" gradientUnits="userSpaceOnUse">
<stop stop-color="#FE662E"/>
<stop offset="0.0001" stop-color="#EF743D"/>
<stop offset="0.865114" stop-color="#F28B31"/>
</linearGradient>
<linearGradient id="paint21_linear" x1="341.758" y1="355.955" x2="341.61" y2="399.491" gradientUnits="userSpaceOnUse">
<stop stop-color="#FE662E"/>
<stop offset="0.0001" stop-color="#EF743D"/>
<stop offset="0.865114" stop-color="#F28B31"/>
</linearGradient>
<linearGradient id="paint22_linear" x1="278.308" y1="357.078" x2="278.224" y2="381.861" gradientUnits="userSpaceOnUse">
<stop stop-color="#FE662E"/>
<stop offset="0.0001" stop-color="#EF743D"/>
<stop offset="0.865114" stop-color="#F28B31"/>
</linearGradient>
<linearGradient id="paint23_linear" x1="274.067" y1="318.551" x2="274.013" y2="334.459" gradientUnits="userSpaceOnUse">
<stop stop-color="#FE662E"/>
<stop offset="0.0001" stop-color="#EF743D"/>
<stop offset="0.865114" stop-color="#F28B31"/>
</linearGradient>
<linearGradient id="paint24_linear" x1="256.307" y1="315.979" x2="256.208" y2="345.283" gradientUnits="userSpaceOnUse">
<stop stop-color="#FE662E"/>
<stop offset="0.0001" stop-color="#EF743D"/>
<stop offset="0.865114" stop-color="#F28B31"/>
</linearGradient>
<linearGradient id="paint25_linear" x1="235.202" y1="340.523" x2="235.146" y2="356.933" gradientUnits="userSpaceOnUse">
<stop stop-color="#FE662E"/>
<stop offset="0.0001" stop-color="#EF743D"/>
<stop offset="0.865114" stop-color="#F28B31"/>
</linearGradient>
<linearGradient id="paint26_linear" x1="252.865" y1="343.597" x2="252.518" y2="445.403" gradientUnits="userSpaceOnUse">
<stop stop-color="#EF743D"/>
<stop offset="0.0001" stop-color="#EF743D"/>
<stop offset="0.865114" stop-color="#F28B31"/>
</linearGradient>
<linearGradient id="paint27_linear" x1="251.801" y1="355.816" x2="251.772" y2="364.356" gradientUnits="userSpaceOnUse">
<stop stop-color="#FE662E"/>
<stop offset="0.0001" stop-color="#EF743D"/>
<stop offset="0.865114" stop-color="#F28B31"/>
</linearGradient>
<linearGradient id="paint28_linear" x1="252.802" y1="295.873" x2="252.653" y2="339.745" gradientUnits="userSpaceOnUse">
<stop stop-color="#FE662E"/>
<stop offset="0.0001" stop-color="#EF743D"/>
<stop offset="0.865114" stop-color="#F28B31"/>
</linearGradient>
<linearGradient id="paint29_linear" x1="231.47" y1="303.838" x2="231.421" y2="318.407" gradientUnits="userSpaceOnUse">
<stop stop-color="#FE662E"/>
<stop offset="0.0001" stop-color="#EF743D"/>
<stop offset="0.865114" stop-color="#F28B31"/>
</linearGradient>
<linearGradient id="paint30_linear" x1="164.386" y1="103.569" x2="171.83" y2="120.589" gradientUnits="userSpaceOnUse">
<stop stop-color="#E98A74"/>
<stop offset="0.390625" stop-color="#F38B31"/>
<stop offset="0.724486" stop-color="#36357E"/>
</linearGradient>
<linearGradient id="paint31_linear" x1="89.0806" y1="67.2166" x2="96.5243" y2="84.2369" gradientUnits="userSpaceOnUse">
<stop stop-color="#E98A74"/>
<stop offset="0.390625" stop-color="#F38B31"/>
<stop offset="0.880739" stop-color="#7474B4"/>
</linearGradient>
<linearGradient id="paint32_linear" x1="348.708" y1="154.546" x2="337" y2="192.468" gradientUnits="userSpaceOnUse">
<stop stop-color="#E98A74"/>
<stop offset="0.390625" stop-color="#F38B31"/>
<stop offset="0.750529" stop-color="#7474B4"/>
</linearGradient>
<linearGradient id="paint33_linear" x1="348.708" y1="154.546" x2="337" y2="192.468" gradientUnits="userSpaceOnUse">
<stop stop-color="#E98A74"/>
<stop offset="0.390625" stop-color="#F38B31"/>
<stop offset="0.750529" stop-color="#7474B4"/>
</linearGradient>
<linearGradient id="paint34_linear" x1="11.1392" y1="86.1805" x2="3.04877" y2="77.0264" gradientUnits="userSpaceOnUse">
<stop stop-color="#E98A74"/>
<stop offset="0.390625" stop-color="#F38B31"/>
</linearGradient>
<linearGradient id="paint35_linear" x1="898.854" y1="745.494" x2="907.33" y2="757.181" gradientUnits="userSpaceOnUse">
<stop offset="0.44844" stop-color="#7474B4"/>
<stop offset="0.901573" stop-color="#F38B31"/>
</linearGradient>
<linearGradient id="paint36_linear" x1="755.775" y1="791.768" x2="781.018" y2="826.577" gradientUnits="userSpaceOnUse">
<stop stop-color="#E98A74"/>
<stop offset="0.390625" stop-color="#F38B31"/>
<stop offset="0.568234" stop-color="#7474B4"/>
</linearGradient>
<linearGradient id="paint37_linear" x1="164.507" y1="26.0686" x2="183.139" y2="8.7737" gradientUnits="userSpaceOnUse">
<stop stop-color="#E98A74"/>
<stop offset="0.390625" stop-color="#F38B31"/>
</linearGradient>
<linearGradient id="paint38_linear" x1="18.3644" y1="441.556" x2="16.9246" y2="443.885" gradientUnits="userSpaceOnUse">
<stop stop-color="#F3923D"/>
<stop offset="1" stop-color="#EBB375"/>
</linearGradient>
<linearGradient id="paint39_linear" x1="19.2048" y1="445.616" x2="17.7649" y2="447.945" gradientUnits="userSpaceOnUse">
<stop stop-color="#F3923D"/>
<stop offset="1" stop-color="#EBB375"/>
</linearGradient>
<linearGradient id="paint40_linear" x1="22.8757" y1="440.803" x2="21.4358" y2="443.132" gradientUnits="userSpaceOnUse">
<stop stop-color="#F3923D"/>
<stop offset="1" stop-color="#EBB375"/>
</linearGradient>
<linearGradient id="paint41_linear" x1="23.715" y1="444.863" x2="22.2752" y2="447.192" gradientUnits="userSpaceOnUse">
<stop stop-color="#F3923D"/>
<stop offset="1" stop-color="#EBB375"/>
</linearGradient>
<linearGradient id="paint42_linear" x1="0.501833" y1="347.6" x2="0.431422" y2="368.28" gradientUnits="userSpaceOnUse">
<stop offset="0.171875" stop-color="#F38B31"/>
<stop offset="0.713442" stop-color="#EFA93D"/>
<stop offset="0.713542" stop-color="#EFA93D"/>
<stop offset="0.921875" stop-color="#FBBD15"/>
</linearGradient>
<linearGradient id="paint43_linear" x1="533.028" y1="431.555" x2="532.809" y2="496.105" gradientUnits="userSpaceOnUse">
<stop offset="0.615109" stop-color="#F38B31"/>
<stop offset="1" stop-color="#EF743D"/>
</linearGradient>
<linearGradient id="paint44_linear" x1="429.872" y1="374.926" x2="392" y2="388" gradientUnits="userSpaceOnUse">
<stop offset="0.177602" stop-color="#EF743D"/>
<stop offset="0.615109" stop-color="#F38B31"/>
</linearGradient>
<linearGradient id="paint45_linear" x1="420.667" y1="378.949" x2="420.558" y2="410.899" gradientUnits="userSpaceOnUse">
<stop stop-color="#F38B31"/>
<stop offset="0.84428" stop-color="#7474B4"/>
</linearGradient>
<linearGradient id="paint46_linear" x1="454.732" y1="404.042" x2="454.678" y2="420.099" gradientUnits="userSpaceOnUse">
<stop offset="0.615109" stop-color="#F38B31"/>
<stop offset="1" stop-color="#EF743D"/>
</linearGradient>
<linearGradient id="paint47_linear" x1="528.738" y1="394.886" x2="528.665" y2="416.295" gradientUnits="userSpaceOnUse">
<stop offset="0.615109" stop-color="#F38B31"/>
<stop offset="1" stop-color="#EF743D"/>
</linearGradient>
<linearGradient id="paint48_linear" x1="563.612" y1="407.435" x2="566.623" y2="443.672" gradientUnits="userSpaceOnUse">
<stop offset="0.615109" stop-color="#FE662E"/>
<stop offset="0.781779" stop-color="#F38B31"/>
</linearGradient>
<linearGradient id="paint49_linear" x1="587.61" y1="384.707" x2="587.354" y2="459.96" gradientUnits="userSpaceOnUse">
<stop offset="0.615109" stop-color="#F38B31"/>
<stop offset="1" stop-color="#EF743D"/>
</linearGradient>
<linearGradient id="paint50_linear" x1="492.922" y1="408.064" x2="492.813" y2="440.339" gradientUnits="userSpaceOnUse">
<stop offset="0.615109" stop-color="#F38B31"/>
<stop offset="1" stop-color="#EF743D"/>
</linearGradient>
<linearGradient id="paint51_linear" x1="524.056" y1="658.582" x2="524.006" y2="673.017" gradientUnits="userSpaceOnUse">
<stop offset="0.615109" stop-color="#F38B31"/>
<stop offset="1" stop-color="#EF743D"/>
</linearGradient>
<linearGradient id="paint52_linear" x1="529.979" y1="559.508" x2="529.642" y2="658.44" gradientUnits="userSpaceOnUse">
<stop offset="0.615109" stop-color="#F38B31"/>
<stop offset="1" stop-color="#EF743D"/>
</linearGradient>
<linearGradient id="paint53_linear" x1="524.942" y1="371.843" x2="524.857" y2="396.82" gradientUnits="userSpaceOnUse">
<stop offset="0.615109" stop-color="#F38B31"/>
<stop offset="1" stop-color="#EF743D"/>
</linearGradient>
<linearGradient id="paint54_linear" x1="512.805" y1="496.198" x2="512.211" y2="670.544" gradientUnits="userSpaceOnUse">
<stop offset="0.260936" stop-color="#FA7035"/>
<stop offset="1" stop-color="#EF743D"/>
</linearGradient>
<linearGradient id="paint55_linear" x1="495.052" y1="655.565" x2="495.032" y2="661.403" gradientUnits="userSpaceOnUse">
<stop offset="0.615109" stop-color="#F38B31"/>
<stop offset="1" stop-color="#EF743D"/>
</linearGradient>
<linearGradient id="paint56_linear" x1="751.531" y1="461.468" x2="751.457" y2="483.124" gradientUnits="userSpaceOnUse">
<stop offset="0.615109" stop-color="#F38B31"/>
<stop offset="1" stop-color="#EF743D"/>
</linearGradient>
<linearGradient id="paint57_linear" x1="753.008" y1="459.915" x2="752.94" y2="480.013" gradientUnits="userSpaceOnUse">
<stop offset="0.615109" stop-color="#F38B31"/>
<stop offset="1" stop-color="#EF743D"/>
</linearGradient>
<linearGradient id="paint58_linear" x1="760.072" y1="469.947" x2="759.968" y2="500.638" gradientUnits="userSpaceOnUse">
<stop offset="0.615109" stop-color="#F38B31"/>
<stop offset="1" stop-color="#EF743D"/>
</linearGradient>
<linearGradient id="paint59_linear" x1="733.962" y1="461.252" x2="733.846" y2="495.371" gradientUnits="userSpaceOnUse">
<stop offset="0.177602" stop-color="#FE662E"/>
<stop offset="0.938032" stop-color="#F38B31"/>
</linearGradient>
<linearGradient id="paint60_linear" x1="635.793" y1="500.89" x2="659.422" y2="553.187" gradientUnits="userSpaceOnUse">
<stop offset="0.0317656" stop-color="#7474B4"/>
<stop offset="0.615109" stop-color="#F38B31"/>
</linearGradient>
<linearGradient id="paint61_linear" x1="574.531" y1="649.045" x2="574.388" y2="690.992" gradientUnits="userSpaceOnUse">
<stop stop-color="#EF7844"/>
<stop offset="0.672402" stop-color="#F38B31"/>
</linearGradient>
<linearGradient id="paint62_linear" x1="735.164" y1="483.077" x2="735.053" y2="515.703" gradientUnits="userSpaceOnUse">
<stop stop-color="#EF7844"/>
<stop offset="0.672402" stop-color="#F38B31"/>
</linearGradient>
<linearGradient id="paint63_linear" x1="763.563" y1="479.359" x2="763.429" y2="518.765" gradientUnits="userSpaceOnUse">
<stop stop-color="#EF7844"/>
<stop offset="0.672402" stop-color="#F38B31"/>
</linearGradient>
<linearGradient id="paint64_linear" x1="754.16" y1="572.967" x2="753.968" y2="629.319" gradientUnits="userSpaceOnUse">
<stop stop-color="#EF7844"/>
<stop offset="0.672402" stop-color="#F38B31"/>
</linearGradient>
<linearGradient id="paint65_linear" x1="671.896" y1="536.672" x2="671.672" y2="602.346" gradientUnits="userSpaceOnUse">
<stop stop-color="#EF7844"/>
<stop offset="0.672402" stop-color="#F38B31"/>
</linearGradient>
<linearGradient id="paint66_linear" x1="745.178" y1="515.313" x2="744.847" y2="612.341" gradientUnits="userSpaceOnUse">
<stop stop-color="#EF7844"/>
<stop offset="0.672402" stop-color="#F38B31"/>
</linearGradient>
<linearGradient id="paint67_linear" x1="590.5" y1="717" x2="850.5" y2="681.5" gradientUnits="userSpaceOnUse">
<stop stop-color="#F38B31"/>
<stop offset="1" stop-color="#36357E"/>
</linearGradient>
<linearGradient id="paint68_linear" x1="642.918" y1="612.706" x2="642.569" y2="714.95" gradientUnits="userSpaceOnUse">
<stop stop-color="#EF7844"/>
<stop offset="0.672402" stop-color="#F38B31"/>
</linearGradient>
<linearGradient id="paint69_linear" x1="645.044" y1="541.666" x2="644.751" y2="627.677" gradientUnits="userSpaceOnUse">
<stop stop-color="#EF7844"/>
<stop offset="0.672402" stop-color="#F38B31"/>
</linearGradient>
<linearGradient id="paint70_linear" x1="588.293" y1="616.89" x2="588.181" y2="649.94" gradientUnits="userSpaceOnUse">
<stop stop-color="#EF7844"/>
<stop offset="0.672402" stop-color="#F38B31"/>
</linearGradient>
<linearGradient id="paint71_linear" x1="718.472" y1="546.151" x2="718.371" y2="575.811" gradientUnits="userSpaceOnUse">
<stop stop-color="#EF7844"/>
<stop offset="0.672402" stop-color="#F38B31"/>
</linearGradient>
<linearGradient id="paint72_linear" x1="799.62" y1="495.16" x2="611" y2="809.5" gradientUnits="userSpaceOnUse">
<stop offset="0.000514993" stop-color="#F38B31"/>
<stop offset="0.458857" stop-color="#36357E"/>
</linearGradient>
<linearGradient id="paint73_linear" x1="621.313" y1="597.936" x2="621.268" y2="611.071" gradientUnits="userSpaceOnUse">
<stop stop-color="#EF7844"/>
<stop offset="0.672402" stop-color="#F38B31"/>
</linearGradient>
<linearGradient id="paint74_linear" x1="681.712" y1="557.467" x2="681.688" y2="564.246" gradientUnits="userSpaceOnUse">
<stop stop-color="#EF7844"/>
<stop offset="0.672402" stop-color="#F38B31"/>
</linearGradient>
<clipPath id="clip0">
<rect width="427.912" height="389.421" fill="white" transform="matrix(0.978126 0.208473 -0.253633 0.967175 107.064 372.786)"/>
</clipPath>
<clipPath id="clip1">
<rect width="55.3606" height="53.6227" fill="white" transform="matrix(0.834994 0.550659 -0.631026 0.775454 174.188 291.014)"/>
</clipPath>
<clipPath id="clip2">
<rect width="36.5894" height="35.2268" fill="white" transform="matrix(0.850772 0.525936 -0.606253 0.794972 9.12061 419.423)"/>
</clipPath>
</defs>
</svg>
