<svg width="916" height="902" viewBox="0 0 916 902" fill="none" xmlns="http://www.w3.org/2000/svg">
<g clip-path="url(#clip0)">
<path d="M325.609 560.608C331.648 561.866 345.524 570.075 350.916 572.83C378.732 587.157 388.828 623.773 387.988 677.622C387.124 733.24 377.016 773.383 346.714 776.025C328.02 777.646 314.503 762.827 303.885 742.76C291.801 719.919 273.121 709.702 229.35 700.373C185.578 691.043 162.981 692.463 140.858 708.013C121.386 721.654 102.49 729.714 86.1682 720.39C62.8567 707.055 71.328 665.283 98.0141 615.819C124.146 567.393 151.213 538.665 183.241 537.092C189.692 536.859 196.149 537.435 202.425 538.804" stroke="url(#paint0_linear)" stroke-width="5" stroke-miterlimit="10"/>
<path d="M203.907 602.136L185.387 672.757" stroke="url(#paint1_linear)" stroke-width="5" stroke-linecap="round" stroke-linejoin="round"/>
<path d="M233.892 645.803L155.412 629.077" stroke="url(#paint2_linear)" stroke-width="5" stroke-linecap="round" stroke-linejoin="round"/>
<path d="M156.337 846.192L125.735 827.775L160.012 812.785L156.337 846.192Z" stroke="url(#paint3_linear)" stroke-width="2"/>
<path d="M165.512 484.3L155.167 509.208L135.942 488.495L165.512 484.3Z" stroke="url(#paint4_linear)" stroke-width="2"/>
<path d="M385.783 793.338L384.031 793.844L382.277 794.861L380.522 796.39L378.764 798.431L378.176 799.963L378.172 800.987L378.171 801.498C378.169 801.839 378.166 802.726 378.164 803.545C378.162 803.954 378.803 806.219 378.803 806.219M389.285 792.839L392.203 792.848L395.698 794.395L396.28 794.909L397.443 795.936L399.188 797.477L399.766 799.014L400.345 800.551L400.338 802.597L400.332 804.132L399.744 805.665L399.155 807.198L397.983 808.729L397.396 809.75L396.226 810.769L394.472 811.786L392.72 812.292L389.801 812.794L388.051 812.788L385.719 812.189M386.741 812.496C386.274 812.494 382.417 810.893 382.223 810.721L381.642 810.208L381.06 809.694M381.155 809.778L379.318 807.13L378.738 806.105" stroke="url(#paint5_linear)" stroke-width="2"/>
<path d="M433.137 730.144L408.923 721.544L429.47 706.643L433.137 730.144Z" stroke="url(#paint6_linear)" stroke-width="2"/>
</g>
<g clip-path="url(#clip1)">
<path d="M199.953 411.059C203.789 403.208 204.832 397.274 201.737 393.619C201.136 392.914 200.424 392.291 199.624 391.769C197.197 390.168 194.223 390.204 189.9 387.353C185.576 384.501 184.714 381.936 182.29 380.337C181.463 379.786 180.555 379.341 179.592 379.015C174.783 377.457 168.83 380.159 161.656 385.803C154.329 391.567 150.206 397.221 152.708 400.478C154.46 402.757 157.789 402.63 161.587 401.717C165.906 400.671 169.321 401.725 175.102 405.537C180.883 409.35 182.92 411.891 183.118 415.916C183.293 419.452 184.255 422.38 187.111 423.186C191.74 424.491 195.991 419.168 199.953 411.059Z" stroke="url(#paint7_linear)" stroke-width="2" stroke-miterlimit="10"/>
<path d="M184.426 400.217C185.423 400.875 186.823 400.681 187.553 399.784C188.283 398.887 188.067 397.626 187.069 396.969C186.072 396.311 184.672 396.505 183.942 397.402C183.212 398.299 183.429 399.56 184.426 400.217Z" fill="url(#paint8_linear)"/>
<path d="M185.491 406.411C185.134 406.175 184.862 405.849 184.711 405.475C184.559 405.1 184.534 404.694 184.639 404.307C184.744 403.919 184.975 403.569 185.301 403.3C185.628 403.031 186.036 402.856 186.474 402.795C186.911 402.735 187.359 402.793 187.76 402.962C188.162 403.131 188.498 403.404 188.727 403.745C188.957 404.086 189.069 404.48 189.049 404.878C189.029 405.277 188.878 405.66 188.615 405.981C188.264 406.411 187.738 406.697 187.152 406.777C186.567 406.858 185.969 406.726 185.491 406.411Z" fill="url(#paint9_linear)"/>
<path d="M191.307 399.263C192.304 399.921 193.705 399.727 194.435 398.83C195.165 397.933 194.948 396.672 193.951 396.015C192.953 395.357 191.553 395.551 190.823 396.448C190.093 397.345 190.31 398.606 191.307 399.263Z" fill="url(#paint10_linear)"/>
<path d="M192.371 405.457C193.368 406.114 194.768 405.92 195.498 405.023C196.228 404.126 196.012 402.866 195.014 402.208C194.017 401.55 192.617 401.744 191.887 402.641C191.157 403.539 191.373 404.799 192.371 405.457Z" fill="url(#paint11_linear)"/>
<path d="M177.002 386.835L170.657 394.632" stroke="#EC5D3B" stroke-linecap="round" stroke-linejoin="round"/>
<path d="M178.165 393.591L169.497 387.875" stroke="#EC5D3B" stroke-linecap="round" stroke-linejoin="round"/>
</g>
<path d="M311.122 655.076L309.446 655.573L308.886 656.073L308.856 664.948L352.207 665.096L352.22 661.077L351.481 659.735L348.881 658.219L329.367 651.789L325.832 651.777" stroke="url(#paint12_linear)" stroke-width="3.5"/>
<path d="M308.863 662.772L352.4 662.92" stroke="url(#paint13_linear)" stroke-width="3.5"/>
<path d="M237.792 662.194L234.243 666.368L233.298 670.718L275.876 679.236L277.19 675.891L277.195 674.552L275.9 672.203L254.727 661.079" stroke="url(#paint14_linear)" stroke-width="3.5"/>
<path d="M234.235 668.545L276.254 677.228" stroke="url(#paint15_linear)" stroke-width="3.5"/>
<path d="M257.736 651.546L254.912 661.249L253.238 661.243L251.75 661.07L250.449 660.396L248.775 660.391L245.793 661.72L242.63 661.709L238.165 661.527L240.432 651.487" stroke="url(#paint16_linear)" stroke-width="3.5"/>
<path d="M326.225 645.751L326.545 651.571L324.957 652.048L323.486 652.313L322.015 652.048L320.427 652.525L317.265 654.093L315.216 654.756L311.307 655.245L309.665 645.695" stroke="url(#paint17_linear)" stroke-width="3.5"/>
<path d="M212.993 513.919L206.788 533.155L206.757 542.197L216.02 553.95L227.729 557.506L241.49 559.73L235.598 650.968L261.831 651.058L283.218 544.634L283.241 537.769L283.271 529.061L279.193 524.359L272.699 519.146L262.662 516.265" stroke="url(#paint18_linear)" stroke-width="3.5"/>
<path d="M282.006 517.67L301.542 517.737L307.675 519.6L312.317 522.295L315.467 526.157L317.126 530.851L337.572 645.789L305.757 645.681L286.701 559.381L280.19 559.358" stroke="url(#paint19_linear)" stroke-width="3.5"/>
<path d="M215.767 464.197L198.411 479.878L189.098 482.86L179.986 481.322L175.163 477.12L172.953 470.414L167.416 402.747L170.207 402.756L174.484 403.44L177.452 405.962L180.037 411.664L180.02 416.688L178.501 425.725L189.178 459.418L198.51 450.742" stroke="url(#paint20_linear)" stroke-width="3.5"/>
<path d="M309.975 445.596L321.862 451.665L352.792 438.709L354.847 436.037L357.65 432.698L361.567 429.697L366.782 428.04C367.278 428.042 368.606 428.046 369.945 428.051C371.285 428.055 373.23 428.62 374.036 428.902L377.193 430.42L378.678 431.597L359.659 443.756L327.565 470.774L324.585 471.433L321.795 471.424L318.076 470.741L314.364 468.049L304.705 463.328L305.448 463.665" stroke="url(#paint21_linear)" stroke-width="3.5"/>
<path d="M273.563 429.062L278.769 430.419C279.697 430.869 281.554 431.936 281.552 432.606C281.55 433.276 282.534 435.567 283.027 436.63L281.852 453.873" stroke="url(#paint22_linear)" stroke-width="3.5"/>
<path d="M273.137 390.548L276.85 392.905L278.516 395.422L278.508 397.934L278.503 399.441L278.124 401.449C277.687 402.341 276.67 403.231 276.255 403.787C275.881 404.288 275.072 405.123 274.017 405.454C273.271 405.786 271.669 406.451 271.222 406.449C270.776 406.448 269.92 406.445 269.548 406.444" stroke="url(#paint23_linear)" stroke-width="3.5"/>
<path d="M241.258 409.027L246.263 414.57L253.696 417.274L259.839 416.29L264.686 413.628L268.423 409.119L269.369 404.434L270.13 399.58C271.127 398.021 270.888 395.396 270.893 394.057C270.897 392.717 271.28 389.537 271.285 388.03" stroke="url(#paint24_linear)" stroke-width="3.5"/>
<path d="M243.667 412.551L243.619 426.617L226.68 428.904" stroke="url(#paint25_linear)" stroke-width="3.5"/>
<path d="M260.028 415.62L261.105 427.011L271.331 429.222L276.172 428.067L282.122 429.259L288.808 432.631L297.17 435.841L310.545 442.082L303.011 468.848L281.853 453.538L281.822 517.503L212.809 513.416L215.392 465.033L216.511 464.367M216.511 464.367L217.811 465.041L232.957 442.822L233.898 439.644L233.909 436.63L232.244 433.61L229.276 431.088L226.678 429.07L222.031 427.882L216.631 429.036L194.985 447.884L216.511 464.367Z" stroke="url(#paint26_linear)" stroke-width="3.5"/>
<path d="M238.218 427.77L239.512 430.286L242.107 433.309L245.636 435.163L250.841 436.353C251.958 436.357 254.302 436.365 254.749 436.366C255.195 436.368 257.665 435.93 258.844 435.711L262.384 434.216L264.437 432.381L265.374 430.542L265.381 428.365L265.197 427.862" stroke="url(#paint27_linear)" stroke-width="3.5"/>
<path d="M243.919 393.296L245.593 393.301L246.525 392.802L247.644 392.136L247.646 391.466L248.02 390.965L248.392 390.966L249.322 390.97L250.065 391.474L250.808 391.812L252.481 392.153L254.343 391.824L255.461 391.493L257.697 390.328L258.258 389.493L259.745 390L260.859 390.674L263.463 391.018L265.138 390.689C265.448 390.857 266.142 391.027 266.442 390.358C266.742 389.689 267.191 388.854 267.378 388.519L267.38 388.017L270.543 388.028L272.592 387.365C272.963 387.589 273.78 388.039 274.078 388.04C274.376 388.041 275.568 387.598 276.127 387.377C276.314 387.043 276.763 386.307 277.062 386.041C277.36 385.774 277.809 385.15 277.996 384.872L278.372 383.868L278.003 382.695C278.439 382.417 279.346 381.762 279.497 381.36C279.684 380.859 279.5 380.188 279.502 379.853C279.503 379.518 280.248 379.353 279.878 378.515C279.583 377.844 279.512 376.895 279.513 376.504L278.027 375.662C278.213 375.83 278.398 376.065 277.655 375.661C275.723 374.85 274.868 374.647 274.682 374.646L273.576 371.461L272.65 370.285C272.154 370.116 271.052 369.744 270.606 369.609C270.048 369.439 268.933 369.1 268.561 369.099C268.263 369.098 267.071 369.429 266.513 369.595C266.573 370.041 266.583 370.8 266.138 370.263C265.582 369.591 265.77 369.09 264.654 369.086C263.537 369.082 265.026 369.087 262.98 368.745C260.935 368.403 260.935 368.403 260.377 368.402C259.929 368.668 259.569 368.957 259.444 369.068C259.258 368.956 258.775 368.731 258.329 368.729C256.692 368.724 255.785 368.944 255.537 369.055L251.82 367.87C250.082 368.143 246.421 368.689 245.677 368.686C244.933 368.684 239.403 371.568 236.732 373.01L234.674 376.352L232.42 382.54L232.395 389.907C231.09 390.628 228.443 392.071 228.294 392.07C228.145 392.07 227.484 393.184 227.172 393.741L225.862 395.913L225.483 397.921C225.48 398.87 225.473 400.902 225.471 401.438C225.47 401.974 226.085 403.226 226.394 403.785L227.132 405.63L227.684 407.306L229.353 408.819L231.58 410.501L236.786 411.691L240.511 410.531L242.937 408.363L244.433 406.191L245.557 403.85L245.565 401.506L245.572 399.664C245.573 399.274 245.576 398.392 245.577 397.99C245.579 397.487 245.394 397.319 245.21 396.649C245.026 395.978 244.469 395.642 244.471 395.139C244.472 394.737 244.103 393.743 243.919 393.296ZM243.919 393.296L242.623 391.449L240.952 390.271L239.837 389.933L238.164 389.425L236.862 389.42L237.059 386.239L238.188 382.559C238.75 381.389 239.874 378.915 239.876 378.379C239.878 377.843 242.617 375.039 243.986 373.704L248.461 370.873L255.906 369.893" stroke="url(#paint28_linear)" stroke-width="3.5"/>
<path d="M231.276 390.406C231.277 390.138 231.281 388.955 231.283 388.397L229.426 387.386C229.179 387.05 228.648 386.278 228.501 385.876C228.316 385.373 228.504 384.871 228.506 384.368C228.507 383.967 228.511 382.861 228.513 382.359L229.447 381.023L231.31 380.359L230.574 378.18L231.322 377.01C231.508 376.843 231.993 376.477 232.44 376.344C232.887 376.212 233.992 375.959 234.489 375.849" stroke="url(#paint29_linear)" stroke-width="3.5"/>
<path d="M172.129 192.458L152.616 180.716L174.474 171.156L172.129 192.458Z" stroke="url(#paint30_linear)" stroke-width="3.5"/>
<path d="M96.8242 156.106L77.311 144.364L99.1688 134.805L96.8242 156.106Z" stroke="url(#paint31_linear)" stroke-width="3.5"/>
<path d="M332.024 262.932L322.015 218.305L371.588 233.61L332.024 262.932Z" stroke="url(#paint32_linear)" stroke-width="3.5"/>
<path d="M332.024 262.932L322.015 218.305L371.588 233.61L332.024 262.932Z" stroke="url(#paint33_linear)" stroke-width="3.5"/>
<path d="M2.6338 149.393L16.9287 153.064L6.17682 162.567L2.6338 149.393Z" stroke="url(#paint34_linear)" stroke-width="3.5"/>
<path d="M907.819 828.827L891.312 822.963L905.319 812.805L907.819 828.827Z" stroke="url(#paint35_linear)" stroke-width="3.5"/>
<path d="M782.475 897.521L733.311 880.059L775.03 849.804L782.475 897.521Z" stroke="url(#paint36_linear)" stroke-width="3.5"/>
<path d="M185.959 83.8126L175.235 109.627L155.311 88.1619L185.959 83.8126Z" stroke="url(#paint37_linear)" stroke-width="3.5"/>
<g clip-path="url(#clip2)">
<path d="M27.166 522.604C29.5169 517.363 30.0709 513.435 27.9509 511.084C27.5389 510.63 27.0562 510.233 26.5179 509.904C24.883 508.893 22.9254 508.971 20.0138 507.171C17.1021 505.371 16.4769 503.696 14.8444 502.687C14.2875 502.339 13.6795 502.062 13.038 501.865C9.83565 500.926 5.97511 502.814 1.37615 506.661C-3.32077 510.591 -5.91005 514.39 -4.18921 516.491C-2.98383 517.96 -0.793988 517.816 1.6873 517.146C4.50868 516.379 6.78113 517.011 10.6741 519.418C14.5671 521.824 15.9657 523.461 16.1867 526.109C16.381 528.435 17.0802 530.347 18.979 530.826C22.0574 531.601 24.7384 528.018 27.166 522.604Z" stroke="#EC5D3B" stroke-miterlimit="10"/>
<path d="M16.696 515.744C17.3675 516.159 18.2854 516.006 18.7462 515.402C19.2069 514.797 19.036 513.971 18.3644 513.556C17.6929 513.141 16.7749 513.294 16.3142 513.898C15.8535 514.502 16.0244 515.329 16.696 515.744Z" fill="url(#paint38_linear)"/>
<path d="M17.5363 519.804C17.2957 519.655 17.1094 519.445 17.0011 519.201C16.8929 518.957 16.8674 518.69 16.928 518.433C16.9887 518.176 17.1326 517.941 17.3416 517.758C17.5507 517.575 17.8154 517.452 18.1024 517.405C18.3893 517.357 18.6856 517.387 18.9536 517.491C19.2216 517.595 19.4494 517.768 19.6081 517.989C19.7668 518.21 19.8492 518.467 19.845 518.73C19.8408 518.993 19.7501 519.248 19.5844 519.464C19.3627 519.753 19.0226 519.952 18.6386 520.015C18.2547 520.079 17.8583 520.003 17.5363 519.804Z" fill="url(#paint39_linear)"/>
<path d="M21.2072 514.99C21.8788 515.405 22.7967 515.252 23.2574 514.648C23.7181 514.044 23.5472 513.218 22.8757 512.802C22.2041 512.387 21.2862 512.541 20.8254 513.145C20.3647 513.749 20.5356 514.575 21.2072 514.99Z" fill="url(#paint40_linear)"/>
<path d="M22.0465 519.051C22.7181 519.466 23.636 519.313 24.0968 518.709C24.5575 518.105 24.3866 517.278 23.715 516.863C23.0434 516.448 22.1255 516.601 21.6648 517.205C21.2041 517.809 21.375 518.636 22.0465 519.051Z" fill="url(#paint41_linear)"/>
<path d="M11.5068 507.063L7.50252 512.314" stroke="#EC5D3B" stroke-linecap="round" stroke-linejoin="round"/>
<path d="M12.4237 511.492L6.58691 507.884" stroke="#EC5D3B" stroke-linecap="round" stroke-linejoin="round"/>
</g>
<path d="M-3.19464 439.656L-0.777962 440.276L1.03611 440.282L4.06138 439.762L5.87725 439.238L7.69494 438.183L8.90793 437.127L9.51624 436.069L10.731 434.482L11.3411 432.893L11.9513 431.304L11.9567 429.714L11.9639 427.593L11.3646 426L10.7653 424.407L8.95668 422.81L7.75091 421.745L7.14802 421.213L3.52529 419.61L0.501833 419.6L-0.707551 419.596L-3.12812 420.118L-4.944 420.642L-6.76169 421.696L-8.58118 423.281L-10.4025 425.395L-11.0126 426.984L-11.0162 428.045L-11.018 428.575C-11.0192 428.928 -11.0223 429.848 -11.0252 430.696C-11.0267 431.12 -10.3624 433.468 -10.3624 433.468M-2.13563 439.973C-2.61938 439.972 -6.61669 438.311 -6.81765 438.134L-7.42054 437.602L-8.02343 437.069M-7.92533 437.156L-9.82847 434.412L-10.4296 433.349" stroke="url(#paint42_linear)" stroke-width="3.5"/>
<path d="M498.879 503.439L498.659 567.989L566.958 568.221L563.352 515.822" stroke="url(#paint43_linear)" stroke-width="3.5"/>
<path d="M426.516 479.676L443.177 508.602L449.299 510.245L453.624 510.259L460.297 508.66L470.216 506.586M390.183 459.441C390.179 460.609 399.608 478.773 404.323 487.71L451.958 470.194L433.656 446.939L389.286 458.303" stroke="url(#paint44_linear)" stroke-width="3.5"/>
<path d="M405.42 482.848L394.862 461.079L433.642 450.993L446.377 468.391L405.42 482.848Z" stroke="url(#paint45_linear)" stroke-width="3.5"/>
<path d="M437.702 475.984C443.271 481.355 454.623 492.098 455.489 492.101C456.354 492.104 466.668 490.301 471.717 489.399" stroke="url(#paint46_linear)" stroke-width="3.5"/>
<path d="M520.442 468.48L520.405 479.346L515.716 480.466L515.707 483.061L517.961 488.327L526.946 496.469L541.654 484.262L541.668 480.067L536.624 479.402L535.586 466.909" stroke="url(#paint47_linear)" stroke-width="3.5"/>
<path d="M542.619 481.179L552.362 482.65M552.362 482.65L554.937 481.296L558.229 479.882L563.191 480.61L568.044 483.791L579.393 503.677L563.069 516.419L549.045 494.328L548.628 490.29L549.383 485.341L552.362 482.65Z" stroke="url(#paint48_linear)" stroke-width="3.5"/>
<path d="M564.791 516.152L574.313 524.78L583.305 530.001L590.147 531.97L596.634 531.992L602.416 527.633L610.226 456.784L605.721 456.769L602.648 459.515L599.21 463.558L599.179 472.803L599.161 477.993L590.208 514.13L578.529 503.872" stroke="url(#paint49_linear)" stroke-width="3.5"/>
<path d="M515.539 480.141C514.818 480.139 505.622 481.729 501.114 482.525M501.114 482.525L470.277 488.706L468.46 498.253L470.213 507.271L498.521 502.951L498.578 486.246L498.581 485.435L498.586 483.976L501.114 482.525Z" stroke="url(#paint50_linear)" stroke-width="3.5"/>
<path d="M543.158 730.647L543.141 735.513M543.141 735.513L541.159 735.506L538.458 734.848L535.219 733.378L533.42 732.398L531.078 732.39L528.194 732.381M543.141 735.513L544.941 736.168L544.936 737.465L544.911 745.088L503.102 744.946L503.104 744.297L503.114 741.378L503.842 739.434L505.829 738.143L524.95 732.37L526.392 732.374L528.194 732.381M528.194 732.381L527.479 730.594" stroke="url(#paint51_linear)" stroke-width="3.5"/>
<path d="M535.949 730.461L525.678 730.426L523.648 582.615" stroke="url(#paint52_linear)" stroke-width="3.5"/>
<path d="M511.504 447.209L511.465 458.719L513.613 463.106L518.465 467.177L524.947 468.821L529.813 468.837L534.684 467.232L538.298 464.325L541.515 452.719L540.332 447.308" stroke="url(#paint53_linear)" stroke-width="3.5"/>
<path d="M500.1 568.154L484.603 726.556L486.946 726.564M542.079 729.833L546.98 729.85L547.249 650.648L563.532 568.37L524.067 568.236L523.933 607.67L512.228 642.598L515.447 665.5L515.39 682.222L504.787 726.625L486.946 726.564M486.946 726.564L486.936 729.645M486.936 729.645L484.052 729.636L463.306 736.214L462.22 737.508L461.496 738.641L461.489 740.587L461.483 742.371L503.651 742.515L503.68 734.081L502.601 733.267L499.538 733.256L495.757 732.27L492.16 730.15L486.936 729.645Z" stroke="url(#paint54_linear)" stroke-width="3.5"/>
<path d="M495.413 727.566L494.672 733.402" stroke="url(#paint55_linear)" stroke-width="3.5"/>
<path d="M749.75 548.107L749.736 552.158L751.804 555.125L753.189 555.13L755.619 553.113L759.95 552.193L758.762 545.178L755.663 540.182L750.83 535.959L743.049 533.439" stroke="url(#paint56_linear)" stroke-width="3.5"/>
<path d="M764.105 552.051L763.609 545.35L762.757 541.452L758.966 536.298L755.684 534.106L752.572 532.849L747.902 531.898L743.226 532.505L741.837 533.435L743.222 533.44" stroke="url(#paint57_linear)" stroke-width="3.5"/>
<path d="M762.756 541.956L765.344 544.302L766.369 548.356L765.316 552.715L768.077 555.061L769.623 558.65L769.601 565.037L766.293 570.635L761.093 572.642L756.073 572.625L751.591 567.157L750.394 562.635L751.62 558.588L753.536 555.011" stroke="url(#paint58_linear)" stroke-width="3.5"/>
<path d="M741.839 533.279L732.489 533.87L726.598 535.408L722.432 538.51L719.303 542.55L717.905 546.285L718.586 549.714L720.482 552.214L724.287 553.161M724.287 553.161L728.961 553.177L732.944 552.568L737.102 551.647L749.234 547.638L749.924 548.107M724.287 553.161L722.376 555.024L720.985 556.889L720.634 558.446L720.626 560.783L720.622 561.874L721.136 563.433L721.825 564.37L723.205 565.777L725.72 567.663" stroke="url(#paint59_linear)" stroke-width="3.5"/>
<path d="M659.051 616.674L622.267 608.553L634.105 580.033L667.744 580.147L659.051 616.674Z" stroke="url(#paint60_linear)" stroke-width="3.5"/>
<path d="M567.561 762.969L567.619 746.021L567.655 735.428L578.525 723.178L581.357 721.069" stroke="url(#paint61_linear)" stroke-width="3.5"/>
<path d="M738.113 587.713L741.445 577.132L736.741 575.844L731.091 575.825L728.76 569.038L728.775 564.801L728.791 560.14L728.808 555.055" stroke="url(#paint62_linear)" stroke-width="3.5"/>
<path d="M759.759 590.752L759.79 581.431L759.827 570.739" stroke="url(#paint63_linear)" stroke-width="3.5"/>
<path d="M788.292 645.083L782.13 657.35C778.983 659.74 775.967 669.786 774.076 672.152C772.185 674.518 771.55 676.663 770.288 678.495C768.553 681.172 763.856 687.286 758.949 690.32C754.042 693.354 743.697 698.883 739.138 701.269C737.099 700.979 722.859 698.332 719.85 696.966" stroke="url(#paint64_linear)" stroke-width="3.5"/>
<path d="M692.622 674.418L711.492 663.466L711.523 654.144L711.541 649.06L700.21 658.343L695.485 663.411L683.244 663.37L662.108 648.892L632.078 619.13L632.114 608.537L639.63 613.647L644.337 613.663L649.027 619.187L649.009 624.272L683.306 645.15L700.292 634.192" stroke="url(#paint65_linear)" stroke-width="3.5"/>
<path d="M697.003 632.486L692.315 626.538L717.365 597.811C718.784 595.98 722.281 592.15 724.919 591.481C727.558 590.812 733.561 588.404 736.233 587.283C737.954 588.701 741.491 591.538 741.868 591.539C742.244 591.54 745.783 593.812 747.506 594.948L753.626 594.969L760.228 591.602L765.892 587.384C770.412 587.399 786.262 596.492 793.623 601.037C795.029 602.878 797.838 607.407 797.827 610.797C797.815 614.186 797.785 622.943 797.772 626.897L789.705 645.513L770.423 639.341M770.423 639.341L770.509 614.093M770.423 639.341L767.725 645.438L763.066 657.669L759.986 662.784L750.496 676.734L741.565 680.517L724.603 684.273L712.847 680.419L692.145 676.535" stroke="url(#paint66_linear)" stroke-width="3.5"/>
<path d="M577.862 779.528L596.18 791.877L608.395 799.546C615.445 802.818 630.771 809.367 635.667 809.384C640.563 809.4 665.64 809.486 677.567 809.526L694.044 809.582C700.635 809.605 714.947 809.654 719.466 809.669C723.986 809.684 734.845 809.721 739.71 809.738L764.202 806.432C828.744 793.517 821.256 780.356 821.241 785.017M538.215 809.052L551.408 805.707L559.916 795.991L568.889 787.547L559.963 782.009L554.323 779.447L543.024 779.409L538.3 784.054L525.092 791.635L515.191 795.839L515.158 805.584L515.147 808.973L532.566 809.033L538.215 809.052Z" stroke="url(#paint67_linear)" stroke-width="3.5"/>
<path d="M567.95 786.696L609.961 754.214L613.755 746.176L618.009 741.106L631.72 724.205L642.579 714.921C651.053 714.949 668.661 715.009 671.297 715.018C674.593 715.03 685.891 715.068 690.599 715.084C694.365 715.097 699.073 715.113 710.854 711.763L716.504 711.581L724.039 710.961L729.697 708.438L729.71 704.625L719.85 696.964L707.17 687.6C707.957 687.037 705.576 685.73 702.942 685.043C700.308 684.356 645.345 686.259 618.192 687.297L610.143 700.828L598.808 711.382L593.125 721.108L577.522 740.969L569.927 759.162L560.93 774.385L555.737 778.604L555.733 779.875" stroke="url(#paint68_linear)" stroke-width="3.5"/>
<path d="M703.882 685.896L689.802 673.137C686.982 671.715 680.685 668.36 678.055 666.318C675.426 664.275 636.894 633.694 617.957 618.658C617.957 618.658 609.722 612.303 607.39 612.295C605.059 612.287 592.751 617.612 592.751 617.612L592.063 618.57L589.823 630.241L585.715 685.494L596.982 694.853L606.853 699.548L612.032 699.565C611.417 695.75 610.188 688.021 610.196 685.577C610.209 681.764 610.902 662.699 610.309 652.529L648.8 685.708" stroke="url(#paint69_linear)" stroke-width="3.5"/>
<path d="M589.941 688.896L580.496 697.338L577.185 701.988L574.351 704.521L574.305 718.08L574.295 721.046C576.021 721.051 579.662 721.064 580.416 721.066C581.169 721.069 587.005 721.654 589.829 721.946L594.085 716.452C595.033 714.337 597.026 709.937 597.405 709.26C597.784 708.583 599.776 704.184 600.725 702.068L602.156 696.565" stroke="url(#paint70_linear)" stroke-width="3.5"/>
<path d="M711.544 647.788L725.298 618.175" stroke="url(#paint71_linear)" stroke-width="3.5"/>
<path d="M775.775 587.84L782.393 579.812L791.823 575.608L799.841 571.398L810.684 567.198L820.57 567.231L823.38 571.478L822.645 787.564" stroke="url(#paint72_linear)" stroke-width="3.5"/>
<path d="M611.616 683.038L618.241 673.315L625.785 669.951L630.964 669.969" stroke="url(#paint73_linear)" stroke-width="3.5"/>
<path d="M694.188 629.509L684.292 632.018C682.877 632.861 679.67 634.629 678.162 634.963C676.654 635.297 673.139 635.087 671.571 634.941L669.212 636.204" stroke="url(#paint74_linear)" stroke-width="3.5"/>
<path d="M537.025 477.218L543.44 475.257L548.061 471.127L545.713 454.716L543.564 439.028L538.782 431.801L530.785 427.628L524.385 424.903L515.966 427.037L510.349 429.722L506.529 434.215L501.475 447.897L497.626 460.861L495.402 466.982L497.591 470.955L503.986 475.123L507.418 467.023L509.387 477.124L514.193 477.14L516.009 473.181L519 477.156" stroke="#FE662E" stroke-width="3.5"/>
<path d="M512.252 433.99L508.688 447.2L517.29 447.229L519.914 442.451L519.9 446.554L523.94 446.568L525.921 438.938L527.457 447.264L541.534 447.312L540.786 437.279L528.813 431.767L512.252 433.99Z" stroke="#F38B31" stroke-width="3.5"/>
<path d="M-81.5527 230.42L-65.8543 194.723L-46.8779 163.349L-13.9486 132.211L18.6261 114.424L60.1727 95.5367L107.139 80.6365L144.133 74.5155L180.138 71.7829L204.272 73.2291L229.712 79.7561L257.773 90.1704L274.556 97.22L296.123 109.705L390.769 168.335L429.244 192.334L468.777 220.603L498.244 235.334L536.386 246.819L556.844 250.35L574.924 252.578L600.915 252.52L630.953 248.877L660.644 242.182" stroke="url(#paint75_linear)" stroke-width="2"/>
<defs>
<linearGradient id="paint0_linear" x1="269.16" y1="548.576" x2="225.874" y2="751.665" gradientUnits="userSpaceOnUse">
<stop stop-color="#E08B49"/>
<stop offset="0.953657" stop-color="#36357E"/>
</linearGradient>
<linearGradient id="paint1_linear" x1="204.396" y1="602.24" x2="189.193" y2="673.568" gradientUnits="userSpaceOnUse">
<stop offset="0.146351" stop-color="#F38B31"/>
<stop offset="0.958866" stop-color="#7474B4"/>
</linearGradient>
<linearGradient id="paint2_linear" x1="194.652" y1="637.44" x2="194.444" y2="638.417" gradientUnits="userSpaceOnUse">
<stop offset="0.146351" stop-color="#F38B31"/>
<stop offset="0.958866" stop-color="#7474B4"/>
</linearGradient>
<linearGradient id="paint3_linear" x1="144.192" y1="819.704" x2="155.866" y2="846.398" gradientUnits="userSpaceOnUse">
<stop stop-color="#E98A74"/>
<stop offset="0.390625" stop-color="#F38B31"/>
</linearGradient>
<linearGradient id="paint4_linear" x1="144.815" y1="498.055" x2="162.791" y2="481.369" gradientUnits="userSpaceOnUse">
<stop stop-color="#E98A74"/>
<stop offset="0.390625" stop-color="#F38B31"/>
</linearGradient>
<linearGradient id="paint5_linear" x1="389.285" y1="792.839" x2="389.218" y2="812.792" gradientUnits="userSpaceOnUse">
<stop offset="0.171875" stop-color="#F38B31"/>
<stop offset="0.713442" stop-color="#EFA93D"/>
<stop offset="0.713542" stop-color="#EFA93D"/>
<stop offset="0.921875" stop-color="#FBBD15"/>
</linearGradient>
<linearGradient id="paint6_linear" x1="419.987" y1="713.521" x2="432.419" y2="730.665" gradientUnits="userSpaceOnUse">
<stop stop-color="#E98A74"/>
<stop offset="0.390625" stop-color="#F38B31"/>
</linearGradient>
<linearGradient id="paint7_linear" x1="190.957" y1="386.053" x2="172.602" y2="413.886" gradientUnits="userSpaceOnUse">
<stop stop-color="#F38B31"/>
<stop offset="0.688027" stop-color="#7474B4"/>
</linearGradient>
<linearGradient id="paint8_linear" x1="187.069" y1="396.969" x2="184.775" y2="400.448" gradientUnits="userSpaceOnUse">
<stop stop-color="#F3923D"/>
</linearGradient>
<linearGradient id="paint9_linear" x1="188.135" y1="403.162" x2="185.841" y2="406.641" gradientUnits="userSpaceOnUse">
<stop stop-color="#F3923D"/>
</linearGradient>
<linearGradient id="paint10_linear" x1="193.951" y1="396.015" x2="191.656" y2="399.494" gradientUnits="userSpaceOnUse">
<stop stop-color="#F3923D"/>
</linearGradient>
<linearGradient id="paint11_linear" x1="195.014" y1="402.208" x2="192.72" y2="405.687" gradientUnits="userSpaceOnUse">
<stop stop-color="#F3923D"/>
</linearGradient>
<linearGradient id="paint12_linear" x1="330.576" y1="651.794" x2="330.531" y2="665.022" gradientUnits="userSpaceOnUse">
<stop stop-color="#F38B31"/>
<stop offset="0.0001" stop-color="#EF743D"/>
<stop offset="0.979699" stop-color="#F38B31"/>
</linearGradient>
<linearGradient id="paint13_linear" x1="330.631" y1="662.846" x2="330.628" y2="663.846" gradientUnits="userSpaceOnUse">
<stop offset="0.823447" stop-color="#F38B31"/>
</linearGradient>
<linearGradient id="paint14_linear" x1="255.286" y1="661.081" x2="255.224" y2="679.165" gradientUnits="userSpaceOnUse">
<stop offset="0.823447" stop-color="#F38B31"/>
</linearGradient>
<linearGradient id="paint15_linear" x1="255.259" y1="668.617" x2="255.23" y2="677.156" gradientUnits="userSpaceOnUse">
<stop offset="0.823447" stop-color="#F38B31"/>
<stop offset="1" stop-color="#100700" stop-opacity="0"/>
</linearGradient>
<linearGradient id="paint16_linear" x1="247.968" y1="651.513" x2="247.933" y2="661.727" gradientUnits="userSpaceOnUse">
<stop stop-color="#F38B31"/>
<stop offset="0.0001" stop-color="#EF743D"/>
<stop offset="0.979699" stop-color="#F38B31"/>
</linearGradient>
<linearGradient id="paint17_linear" x1="316.248" y1="643.718" x2="319.263" y2="653.758" gradientUnits="userSpaceOnUse">
<stop stop-color="#F38B31"/>
<stop offset="0.0001" stop-color="#EF743D"/>
<stop offset="0.979699" stop-color="#F38B31"/>
</linearGradient>
<linearGradient id="paint18_linear" x1="245.087" y1="514.029" x2="244.621" y2="650.999" gradientUnits="userSpaceOnUse">
<stop stop-color="#F38B31"/>
<stop offset="0.0001" stop-color="#EF743D"/>
<stop offset="0.979699" stop-color="#F38B31"/>
</linearGradient>
<linearGradient id="paint19_linear" x1="309.17" y1="517.763" x2="308.734" y2="645.691" gradientUnits="userSpaceOnUse">
<stop stop-color="#EF743D"/>
<stop offset="0.0001" stop-color="#EF743D"/>
<stop offset="0.953657" stop-color="#F28B31"/>
</linearGradient>
<linearGradient id="paint20_linear" x1="191.696" y1="402.829" x2="191.423" y2="482.868" gradientUnits="userSpaceOnUse">
<stop stop-color="#FE662E"/>
<stop offset="0.0001" stop-color="#EF743D"/>
<stop offset="0.865114" stop-color="#F28B31"/>
</linearGradient>
<linearGradient id="paint21_linear" x1="341.758" y1="427.955" x2="341.61" y2="471.491" gradientUnits="userSpaceOnUse">
<stop stop-color="#FE662E"/>
<stop offset="0.0001" stop-color="#EF743D"/>
<stop offset="0.865114" stop-color="#F28B31"/>
</linearGradient>
<linearGradient id="paint22_linear" x1="278.308" y1="429.078" x2="278.224" y2="453.861" gradientUnits="userSpaceOnUse">
<stop stop-color="#FE662E"/>
<stop offset="0.0001" stop-color="#EF743D"/>
<stop offset="0.865114" stop-color="#F28B31"/>
</linearGradient>
<linearGradient id="paint23_linear" x1="274.067" y1="390.551" x2="274.013" y2="406.459" gradientUnits="userSpaceOnUse">
<stop stop-color="#FE662E"/>
<stop offset="0.0001" stop-color="#EF743D"/>
<stop offset="0.865114" stop-color="#F28B31"/>
</linearGradient>
<linearGradient id="paint24_linear" x1="256.307" y1="387.979" x2="256.208" y2="417.283" gradientUnits="userSpaceOnUse">
<stop stop-color="#FE662E"/>
<stop offset="0.0001" stop-color="#EF743D"/>
<stop offset="0.865114" stop-color="#F28B31"/>
</linearGradient>
<linearGradient id="paint25_linear" x1="235.202" y1="412.522" x2="235.146" y2="428.933" gradientUnits="userSpaceOnUse">
<stop stop-color="#FE662E"/>
<stop offset="0.0001" stop-color="#EF743D"/>
<stop offset="0.865114" stop-color="#F28B31"/>
</linearGradient>
<linearGradient id="paint26_linear" x1="252.865" y1="415.596" x2="252.518" y2="517.403" gradientUnits="userSpaceOnUse">
<stop stop-color="#EF743D"/>
<stop offset="0.0001" stop-color="#EF743D"/>
<stop offset="0.865114" stop-color="#F28B31"/>
</linearGradient>
<linearGradient id="paint27_linear" x1="251.801" y1="427.816" x2="251.772" y2="436.356" gradientUnits="userSpaceOnUse">
<stop stop-color="#FE662E"/>
<stop offset="0.0001" stop-color="#EF743D"/>
<stop offset="0.865114" stop-color="#F28B31"/>
</linearGradient>
<linearGradient id="paint28_linear" x1="252.802" y1="367.873" x2="252.653" y2="411.745" gradientUnits="userSpaceOnUse">
<stop stop-color="#FE662E"/>
<stop offset="0.0001" stop-color="#EF743D"/>
<stop offset="0.865114" stop-color="#F28B31"/>
</linearGradient>
<linearGradient id="paint29_linear" x1="231.47" y1="375.838" x2="231.421" y2="390.407" gradientUnits="userSpaceOnUse">
<stop stop-color="#FE662E"/>
<stop offset="0.0001" stop-color="#EF743D"/>
<stop offset="0.865114" stop-color="#F28B31"/>
</linearGradient>
<linearGradient id="paint30_linear" x1="164.386" y1="175.568" x2="171.83" y2="192.589" gradientUnits="userSpaceOnUse">
<stop stop-color="#E98A74"/>
<stop offset="0.390625" stop-color="#F38B31"/>
<stop offset="0.724486" stop-color="#36357E"/>
</linearGradient>
<linearGradient id="paint31_linear" x1="89.0806" y1="139.217" x2="96.5243" y2="156.237" gradientUnits="userSpaceOnUse">
<stop stop-color="#E98A74"/>
<stop offset="0.390625" stop-color="#F38B31"/>
<stop offset="0.880739" stop-color="#7474B4"/>
</linearGradient>
<linearGradient id="paint32_linear" x1="348.708" y1="226.546" x2="337" y2="264.468" gradientUnits="userSpaceOnUse">
<stop stop-color="#E98A74"/>
<stop offset="0.390625" stop-color="#F38B31"/>
<stop offset="0.750529" stop-color="#7474B4"/>
</linearGradient>
<linearGradient id="paint33_linear" x1="348.708" y1="226.546" x2="337" y2="264.468" gradientUnits="userSpaceOnUse">
<stop stop-color="#E98A74"/>
<stop offset="0.390625" stop-color="#F38B31"/>
<stop offset="0.750529" stop-color="#7474B4"/>
</linearGradient>
<linearGradient id="paint34_linear" x1="11.1392" y1="158.181" x2="3.04877" y2="149.027" gradientUnits="userSpaceOnUse">
<stop stop-color="#E98A74"/>
<stop offset="0.390625" stop-color="#F38B31"/>
</linearGradient>
<linearGradient id="paint35_linear" x1="898.854" y1="817.494" x2="907.33" y2="829.181" gradientUnits="userSpaceOnUse">
<stop offset="0.44844" stop-color="#7474B4"/>
<stop offset="0.901573" stop-color="#F38B31"/>
</linearGradient>
<linearGradient id="paint36_linear" x1="755.775" y1="863.768" x2="781.018" y2="898.577" gradientUnits="userSpaceOnUse">
<stop stop-color="#E98A74"/>
<stop offset="0.390625" stop-color="#F38B31"/>
<stop offset="0.568234" stop-color="#7474B4"/>
</linearGradient>
<linearGradient id="paint37_linear" x1="164.507" y1="98.0688" x2="183.139" y2="80.7739" gradientUnits="userSpaceOnUse">
<stop stop-color="#E98A74"/>
<stop offset="0.390625" stop-color="#F38B31"/>
</linearGradient>
<linearGradient id="paint38_linear" x1="18.3644" y1="513.556" x2="16.9246" y2="515.885" gradientUnits="userSpaceOnUse">
<stop stop-color="#F3923D"/>
<stop offset="1" stop-color="#EBB375"/>
</linearGradient>
<linearGradient id="paint39_linear" x1="19.2048" y1="517.616" x2="17.7649" y2="519.945" gradientUnits="userSpaceOnUse">
<stop stop-color="#F3923D"/>
<stop offset="1" stop-color="#EBB375"/>
</linearGradient>
<linearGradient id="paint40_linear" x1="22.8757" y1="512.802" x2="21.4358" y2="515.132" gradientUnits="userSpaceOnUse">
<stop stop-color="#F3923D"/>
<stop offset="1" stop-color="#EBB375"/>
</linearGradient>
<linearGradient id="paint41_linear" x1="23.715" y1="516.863" x2="22.2752" y2="519.192" gradientUnits="userSpaceOnUse">
<stop stop-color="#F3923D"/>
<stop offset="1" stop-color="#EBB375"/>
</linearGradient>
<linearGradient id="paint42_linear" x1="0.501833" y1="419.6" x2="0.431422" y2="440.28" gradientUnits="userSpaceOnUse">
<stop offset="0.171875" stop-color="#F38B31"/>
<stop offset="0.713442" stop-color="#EFA93D"/>
<stop offset="0.713542" stop-color="#EFA93D"/>
<stop offset="0.921875" stop-color="#FBBD15"/>
</linearGradient>
<linearGradient id="paint43_linear" x1="533.028" y1="503.555" x2="532.809" y2="568.105" gradientUnits="userSpaceOnUse">
<stop offset="0.615109" stop-color="#F38B31"/>
<stop offset="1" stop-color="#EF743D"/>
</linearGradient>
<linearGradient id="paint44_linear" x1="429.872" y1="446.926" x2="392" y2="460" gradientUnits="userSpaceOnUse">
<stop offset="0.177602" stop-color="#EF743D"/>
<stop offset="0.615109" stop-color="#F38B31"/>
</linearGradient>
<linearGradient id="paint45_linear" x1="420.667" y1="450.949" x2="420.558" y2="482.899" gradientUnits="userSpaceOnUse">
<stop stop-color="#F38B31"/>
<stop offset="0.84428" stop-color="#7474B4"/>
</linearGradient>
<linearGradient id="paint46_linear" x1="454.732" y1="476.042" x2="454.678" y2="492.099" gradientUnits="userSpaceOnUse">
<stop offset="0.615109" stop-color="#F38B31"/>
<stop offset="1" stop-color="#EF743D"/>
</linearGradient>
<linearGradient id="paint47_linear" x1="528.738" y1="466.886" x2="528.665" y2="488.295" gradientUnits="userSpaceOnUse">
<stop offset="0.615109" stop-color="#F38B31"/>
<stop offset="1" stop-color="#EF743D"/>
</linearGradient>
<linearGradient id="paint48_linear" x1="563.612" y1="479.435" x2="566.623" y2="515.672" gradientUnits="userSpaceOnUse">
<stop offset="0.615109" stop-color="#FE662E"/>
<stop offset="0.781779" stop-color="#F38B31"/>
</linearGradient>
<linearGradient id="paint49_linear" x1="587.61" y1="456.707" x2="587.354" y2="531.961" gradientUnits="userSpaceOnUse">
<stop offset="0.615109" stop-color="#F38B31"/>
<stop offset="1" stop-color="#EF743D"/>
</linearGradient>
<linearGradient id="paint50_linear" x1="492.922" y1="480.064" x2="492.813" y2="512.339" gradientUnits="userSpaceOnUse">
<stop offset="0.615109" stop-color="#F38B31"/>
<stop offset="1" stop-color="#EF743D"/>
</linearGradient>
<linearGradient id="paint51_linear" x1="524.056" y1="730.582" x2="524.006" y2="745.017" gradientUnits="userSpaceOnUse">
<stop offset="0.615109" stop-color="#F38B31"/>
<stop offset="1" stop-color="#EF743D"/>
</linearGradient>
<linearGradient id="paint52_linear" x1="529.979" y1="631.508" x2="529.642" y2="730.44" gradientUnits="userSpaceOnUse">
<stop offset="0.615109" stop-color="#F38B31"/>
<stop offset="1" stop-color="#EF743D"/>
</linearGradient>
<linearGradient id="paint53_linear" x1="524.942" y1="443.843" x2="524.857" y2="468.821" gradientUnits="userSpaceOnUse">
<stop offset="0.615109" stop-color="#F38B31"/>
<stop offset="1" stop-color="#EF743D"/>
</linearGradient>
<linearGradient id="paint54_linear" x1="512.805" y1="568.198" x2="512.211" y2="742.544" gradientUnits="userSpaceOnUse">
<stop offset="0.260936" stop-color="#FA7035"/>
<stop offset="1" stop-color="#EF743D"/>
</linearGradient>
<linearGradient id="paint55_linear" x1="495.052" y1="727.565" x2="495.032" y2="733.403" gradientUnits="userSpaceOnUse">
<stop offset="0.615109" stop-color="#F38B31"/>
<stop offset="1" stop-color="#EF743D"/>
</linearGradient>
<linearGradient id="paint56_linear" x1="751.531" y1="533.468" x2="751.457" y2="555.124" gradientUnits="userSpaceOnUse">
<stop offset="0.615109" stop-color="#F38B31"/>
<stop offset="1" stop-color="#EF743D"/>
</linearGradient>
<linearGradient id="paint57_linear" x1="753.008" y1="531.915" x2="752.94" y2="552.013" gradientUnits="userSpaceOnUse">
<stop offset="0.615109" stop-color="#F38B31"/>
<stop offset="1" stop-color="#EF743D"/>
</linearGradient>
<linearGradient id="paint58_linear" x1="760.072" y1="541.947" x2="759.968" y2="572.638" gradientUnits="userSpaceOnUse">
<stop offset="0.615109" stop-color="#F38B31"/>
<stop offset="1" stop-color="#EF743D"/>
</linearGradient>
<linearGradient id="paint59_linear" x1="733.962" y1="533.252" x2="733.846" y2="567.371" gradientUnits="userSpaceOnUse">
<stop offset="0.177602" stop-color="#FE662E"/>
<stop offset="0.938032" stop-color="#F38B31"/>
</linearGradient>
<linearGradient id="paint60_linear" x1="635.793" y1="572.89" x2="659.422" y2="625.188" gradientUnits="userSpaceOnUse">
<stop offset="0.0317656" stop-color="#7474B4"/>
<stop offset="0.615109" stop-color="#F38B31"/>
</linearGradient>
<linearGradient id="paint61_linear" x1="574.531" y1="721.046" x2="574.388" y2="762.992" gradientUnits="userSpaceOnUse">
<stop stop-color="#EF7844"/>
<stop offset="0.672402" stop-color="#F38B31"/>
</linearGradient>
<linearGradient id="paint62_linear" x1="735.164" y1="555.077" x2="735.053" y2="587.703" gradientUnits="userSpaceOnUse">
<stop stop-color="#EF7844"/>
<stop offset="0.672402" stop-color="#F38B31"/>
</linearGradient>
<linearGradient id="paint63_linear" x1="763.563" y1="551.36" x2="763.429" y2="590.765" gradientUnits="userSpaceOnUse">
<stop stop-color="#EF7844"/>
<stop offset="0.672402" stop-color="#F38B31"/>
</linearGradient>
<linearGradient id="paint64_linear" x1="754.16" y1="644.967" x2="753.968" y2="701.319" gradientUnits="userSpaceOnUse">
<stop stop-color="#EF7844"/>
<stop offset="0.672402" stop-color="#F38B31"/>
</linearGradient>
<linearGradient id="paint65_linear" x1="671.896" y1="608.673" x2="671.672" y2="674.347" gradientUnits="userSpaceOnUse">
<stop stop-color="#EF7844"/>
<stop offset="0.672402" stop-color="#F38B31"/>
</linearGradient>
<linearGradient id="paint66_linear" x1="745.178" y1="587.313" x2="744.847" y2="684.342" gradientUnits="userSpaceOnUse">
<stop stop-color="#EF7844"/>
<stop offset="0.672402" stop-color="#F38B31"/>
</linearGradient>
<linearGradient id="paint67_linear" x1="590.5" y1="789" x2="850.5" y2="753.5" gradientUnits="userSpaceOnUse">
<stop stop-color="#F38B31"/>
<stop offset="1" stop-color="#36357E"/>
</linearGradient>
<linearGradient id="paint68_linear" x1="642.918" y1="684.706" x2="642.569" y2="786.95" gradientUnits="userSpaceOnUse">
<stop stop-color="#EF7844"/>
<stop offset="0.672402" stop-color="#F38B31"/>
</linearGradient>
<linearGradient id="paint69_linear" x1="645.044" y1="613.666" x2="644.751" y2="699.677" gradientUnits="userSpaceOnUse">
<stop stop-color="#EF7844"/>
<stop offset="0.672402" stop-color="#F38B31"/>
</linearGradient>
<linearGradient id="paint70_linear" x1="588.293" y1="688.891" x2="588.181" y2="721.94" gradientUnits="userSpaceOnUse">
<stop stop-color="#EF7844"/>
<stop offset="0.672402" stop-color="#F38B31"/>
</linearGradient>
<linearGradient id="paint71_linear" x1="718.472" y1="618.152" x2="718.371" y2="647.812" gradientUnits="userSpaceOnUse">
<stop stop-color="#EF7844"/>
<stop offset="0.672402" stop-color="#F38B31"/>
</linearGradient>
<linearGradient id="paint72_linear" x1="799.62" y1="567.16" x2="611" y2="881.5" gradientUnits="userSpaceOnUse">
<stop offset="0.000514993" stop-color="#F38B31"/>
<stop offset="0.458857" stop-color="#36357E"/>
</linearGradient>
<linearGradient id="paint73_linear" x1="621.313" y1="669.936" x2="621.268" y2="683.071" gradientUnits="userSpaceOnUse">
<stop stop-color="#EF7844"/>
<stop offset="0.672402" stop-color="#F38B31"/>
</linearGradient>
<linearGradient id="paint74_linear" x1="681.712" y1="629.467" x2="681.688" y2="636.246" gradientUnits="userSpaceOnUse">
<stop stop-color="#EF7844"/>
<stop offset="0.672402" stop-color="#F38B31"/>
</linearGradient>
<linearGradient id="paint75_linear" x1="559.713" y1="9.8557" x2="638.094" y2="511.021" gradientUnits="userSpaceOnUse">
<stop stop-color="#F38B31"/>
<stop offset="0.583859" stop-color="#36357E" stop-opacity="0.851754"/>
<stop offset="0.979699" stop-color="#491905" stop-opacity="0.530727"/>
</linearGradient>
<clipPath id="clip0">
<rect width="427.912" height="389.421" fill="white" transform="matrix(0.978126 0.208473 -0.253633 0.967175 107.064 444.786)"/>
</clipPath>
<clipPath id="clip1">
<rect width="55.3606" height="53.6227" fill="white" transform="matrix(0.834994 0.550659 -0.631026 0.775454 174.188 363.014)"/>
</clipPath>
<clipPath id="clip2">
<rect width="36.5894" height="35.2268" fill="white" transform="matrix(0.850772 0.525936 -0.606253 0.794972 9.12061 491.423)"/>
</clipPath>
</defs>
</svg>
