<svg width="928" height="888" viewBox="0 0 928 888" fill="none" xmlns="http://www.w3.org/2000/svg">
<g clip-path="url(#clip0)">
<path d="M337.917 487.803C343.957 489.062 357.833 497.271 363.225 500.025C391.04 514.352 401.136 550.968 400.296 604.818C399.433 660.435 389.324 700.579 359.023 703.22C340.328 704.841 326.811 690.022 316.194 669.955C304.109 647.114 285.43 636.897 241.658 627.568C197.887 618.239 175.29 619.658 153.166 635.208C133.695 648.849 114.799 656.91 98.4768 647.585C75.1653 634.25 83.6365 592.478 110.323 543.014C136.455 494.588 163.521 465.86 195.549 464.288C202.001 464.055 208.457 464.631 214.734 465.999" stroke="url(#paint0_linear)" stroke-width="5" stroke-miterlimit="10"/>
<path d="M216.215 529.331L197.696 599.952" stroke="url(#paint1_linear)" stroke-width="5" stroke-linecap="round" stroke-linejoin="round"/>
<path d="M246.2 572.998L167.721 556.271" stroke="url(#paint2_linear)" stroke-width="5" stroke-linecap="round" stroke-linejoin="round"/>
<path d="M168.646 773.387L138.043 754.971L172.321 739.98L168.646 773.387Z" stroke="url(#paint3_linear)" stroke-width="2"/>
<path d="M177.821 411.495L167.476 436.402L148.251 415.69L177.821 411.495Z" stroke="url(#paint4_linear)" stroke-width="2"/>
<path d="M398.092 720.534L396.34 721.039L394.586 722.056L392.83 723.585L391.073 725.626L390.484 727.159L390.481 728.182L390.479 728.694C390.478 729.035 390.475 729.922 390.472 730.74C390.471 731.149 391.112 733.415 391.112 733.415M401.594 720.034L404.511 720.044L408.007 721.591L408.588 722.104L409.752 723.131L411.497 724.672L412.075 726.209L412.653 727.746L412.646 729.792L412.641 731.327L412.052 732.86L411.464 734.393L410.292 735.924L409.705 736.945L408.534 737.964L406.781 738.982L405.029 739.487L402.11 739.989L400.359 739.983L398.028 739.385M399.049 739.691C398.583 739.69 394.726 738.088 394.532 737.917L393.95 737.403L393.368 736.89M393.463 736.973L391.627 734.325L391.047 733.3" stroke="url(#paint5_linear)" stroke-width="2"/>
<path d="M445.445 657.34L421.231 648.739L441.779 633.839L445.445 657.34Z" stroke="url(#paint6_linear)" stroke-width="2"/>
</g>
<g clip-path="url(#clip1)">
<path d="M212.261 338.254C216.097 330.403 217.14 324.469 214.046 320.814C213.444 320.109 212.733 319.486 211.933 318.964C209.505 317.363 206.532 317.399 202.208 314.548C197.884 311.697 197.022 309.131 194.598 307.533C193.771 306.981 192.864 306.536 191.901 306.21C187.092 304.653 181.139 307.355 173.964 312.998C166.637 318.763 162.514 324.416 165.016 327.674C166.769 329.953 170.098 329.826 173.896 328.912C178.215 327.867 181.629 328.92 187.41 332.733C193.191 336.545 195.228 339.087 195.427 343.111C195.602 346.647 196.564 349.576 199.419 350.382C204.049 351.686 208.3 346.363 212.261 338.254Z" stroke="url(#paint7_linear)" stroke-width="2" stroke-miterlimit="10"/>
<path d="M196.734 327.413C197.732 328.07 199.132 327.876 199.862 326.979C200.592 326.082 200.375 324.822 199.378 324.164C198.381 323.506 196.98 323.7 196.25 324.597C195.52 325.495 195.737 326.755 196.734 327.413Z" fill="url(#paint8_linear)"/>
<path d="M197.8 333.606C197.442 333.37 197.171 333.045 197.019 332.67C196.867 332.296 196.843 331.889 196.948 331.502C197.053 331.115 197.283 330.765 197.61 330.496C197.937 330.227 198.344 330.051 198.782 329.991C199.22 329.931 199.668 329.989 200.069 330.158C200.47 330.327 200.807 330.599 201.036 330.94C201.265 331.281 201.377 331.676 201.357 332.074C201.337 332.472 201.187 332.856 200.924 333.177C200.573 333.606 200.047 333.892 199.461 333.973C198.875 334.053 198.278 333.921 197.8 333.606V333.606Z" fill="url(#paint9_linear)"/>
<path d="M203.616 326.459C204.613 327.116 206.013 326.922 206.743 326.025C207.473 325.128 207.257 323.868 206.259 323.21C205.262 322.552 203.862 322.746 203.132 323.643C202.402 324.54 202.618 325.801 203.616 326.459Z" fill="url(#paint10_linear)"/>
<path d="M204.679 332.652C205.677 333.31 207.077 333.116 207.807 332.218C208.537 331.321 208.32 330.061 207.323 329.403C206.326 328.746 204.925 328.94 204.195 329.837C203.465 330.734 203.682 331.994 204.679 332.652Z" fill="url(#paint11_linear)"/>
<path d="M189.311 314.031L182.966 321.828" stroke="#EC5D3B" stroke-linecap="round" stroke-linejoin="round"/>
<path d="M190.473 320.786L181.806 315.07" stroke="#EC5D3B" stroke-linecap="round" stroke-linejoin="round"/>
</g>
<path d="M323.431 582.272L321.755 582.768L321.195 583.269L321.164 592.143L364.515 592.291L364.529 588.272L363.789 586.93L361.19 585.414L341.676 578.985L338.141 578.973" stroke="url(#paint12_linear)" stroke-width="3.5"/>
<path d="M321.171 589.967L364.708 590.115" stroke="url(#paint13_linear)" stroke-width="3.5"/>
<path d="M250.101 589.389L246.552 593.564L245.607 597.914L288.185 606.432L289.499 603.087L289.503 601.747L288.209 599.399L267.036 588.275" stroke="url(#paint14_linear)" stroke-width="3.5"/>
<path d="M246.543 595.74L288.563 604.423" stroke="url(#paint15_linear)" stroke-width="3.5"/>
<path d="M270.045 578.741L267.221 588.444L265.546 588.438L264.058 588.266L262.758 587.592L261.084 587.586L258.102 588.915L254.939 588.905L250.474 588.722L252.741 578.682" stroke="url(#paint16_linear)" stroke-width="3.5"/>
<path d="M338.533 572.946L338.854 578.766L337.266 579.243L335.795 579.508L334.324 579.243L332.736 579.72L329.574 581.288L327.525 581.951L323.616 582.44L321.974 572.889" stroke="url(#paint17_linear)" stroke-width="3.5"/>
<path d="M225.302 441.115L219.097 460.35L219.066 469.392L228.329 481.145L240.038 484.701L253.798 486.925L247.906 578.164L274.14 578.253L295.526 471.829L295.55 464.964L295.579 456.257L291.502 451.554L285.008 446.341L274.971 443.461" stroke="url(#paint18_linear)" stroke-width="3.5"/>
<path d="M294.315 444.866L313.85 444.933L319.984 446.795L324.626 449.49L327.776 453.352L329.434 458.047L349.881 572.985L318.066 572.877L299.01 486.576L292.498 486.554" stroke="url(#paint19_linear)" stroke-width="3.5"/>
<path d="M228.076 391.392L210.719 407.073L201.406 410.056L192.295 408.518L187.472 404.315L185.262 397.61L179.725 329.942L182.515 329.951L186.792 330.636L189.761 333.158L192.346 338.86L192.329 343.883L190.81 352.92L201.486 386.613L210.819 377.938" stroke="url(#paint20_linear)" stroke-width="3.5"/>
<path d="M322.283 372.792L334.17 378.86L365.1 365.905L367.156 363.232L369.958 359.893L373.876 356.892L379.091 355.235C379.587 355.237 380.914 355.242 382.254 355.246C383.593 355.251 385.539 355.815 386.344 356.097L389.502 357.615L390.986 358.792L371.967 370.951L339.873 397.969L336.894 398.629L334.103 398.619L330.384 397.937L326.672 395.245L317.013 390.523L317.757 390.861" stroke="url(#paint21_linear)" stroke-width="3.5"/>
<path d="M285.872 356.258L291.077 357.615C292.006 358.065 293.863 359.132 293.861 359.802C293.858 360.471 294.843 362.763 295.335 363.825L294.16 381.069" stroke="url(#paint22_linear)" stroke-width="3.5"/>
<path d="M285.446 317.743L289.159 320.1L290.825 322.617L290.816 325.129L290.811 326.636L290.432 328.644C289.995 329.536 288.978 330.427 288.564 330.982C288.19 331.484 287.381 332.318 286.325 332.649C285.58 332.982 283.978 333.646 283.531 333.645C283.084 333.643 282.229 333.64 281.856 333.639" stroke="url(#paint23_linear)" stroke-width="3.5"/>
<path d="M253.566 336.222L258.571 341.765L266.004 344.47L272.148 343.486L276.995 340.823L280.731 336.314L281.677 331.629L282.438 326.775C283.436 325.216 283.197 322.592 283.201 321.252C283.206 319.912 283.589 316.732 283.594 315.225" stroke="url(#paint24_linear)" stroke-width="3.5"/>
<path d="M255.976 339.747L255.928 353.813L238.989 356.099" stroke="url(#paint25_linear)" stroke-width="3.5"/>
<path d="M272.336 342.816L273.414 354.206L283.639 356.418L288.481 355.262L294.431 356.454L301.117 359.826L309.479 363.036L322.853 369.277L315.32 396.043L294.162 380.733L294.13 444.698L225.117 440.612L227.701 392.228L228.82 391.562M228.82 391.562L230.12 392.237L245.266 370.018L246.207 366.839L246.217 363.825L244.553 360.806L241.585 358.284L238.987 356.266L234.339 355.078L228.94 356.231L207.293 375.079L228.82 391.562Z" stroke="url(#paint26_linear)" stroke-width="3.5"/>
<path d="M250.527 354.965L251.821 357.481L254.415 360.504L257.944 362.358L263.15 363.548C264.266 363.552 266.611 363.56 267.057 363.561C267.504 363.563 269.974 363.125 271.153 362.905L274.693 361.41L276.746 359.575L277.683 357.737L277.69 355.56L277.506 355.057" stroke="url(#paint27_linear)" stroke-width="3.5"/>
<path d="M256.227 320.491L257.902 320.497L258.834 319.997L259.953 319.331L259.955 318.662L260.329 318.16L260.701 318.162L261.631 318.165L262.374 318.67L263.117 319.007L264.79 319.348L266.652 319.019L267.769 318.688L270.006 317.524L270.567 316.688L272.054 317.196L273.168 317.869L275.771 318.213L277.447 317.884C277.756 318.052 278.45 318.222 278.75 317.553C279.05 316.885 279.5 316.049 279.687 315.715L279.689 315.212L282.852 315.223L284.901 314.56C285.272 314.785 286.089 315.234 286.387 315.235C286.684 315.236 287.877 314.794 288.436 314.572C288.623 314.238 289.072 313.503 289.37 313.236C289.669 312.969 290.118 312.345 290.305 312.067L290.68 311.064L290.312 309.89C290.747 309.613 291.655 308.957 291.805 308.556C291.993 308.054 291.809 307.383 291.81 307.049C291.811 306.714 292.556 306.549 292.187 305.71C291.891 305.039 291.82 304.09 291.822 303.7L290.336 302.857C290.522 303.025 290.707 303.26 289.964 302.856C288.032 302.046 287.177 301.842 286.99 301.841L285.885 298.656L284.959 297.481C284.463 297.311 283.36 296.939 282.914 296.804C282.357 296.635 281.242 296.296 280.869 296.295C280.572 296.294 279.38 296.624 278.821 296.79C278.882 297.237 278.891 297.996 278.447 297.458C277.891 296.787 278.079 296.285 276.962 296.281C275.846 296.277 277.334 296.283 275.289 295.941C273.243 295.599 273.243 295.599 272.685 295.597C272.238 295.863 271.877 296.152 271.753 296.264C271.567 296.151 271.084 295.926 270.637 295.925C269 295.919 268.094 296.139 267.846 296.25L264.128 295.065C262.391 295.339 258.73 295.884 257.986 295.882C257.241 295.879 251.712 298.763 249.04 300.205L246.982 303.547L244.728 309.735L244.703 317.103C243.398 317.824 240.752 319.266 240.603 319.265C240.454 319.265 239.793 320.379 239.481 320.936L238.171 323.109L237.792 325.117C237.789 326.066 237.782 328.097 237.78 328.633C237.778 329.169 238.394 330.421 238.702 330.98L239.44 332.825L239.993 334.501L241.662 336.014L243.889 337.696L249.095 338.886L252.82 337.727L255.246 335.558L256.742 333.386L257.866 331.046L257.874 328.701L257.88 326.86C257.882 326.469 257.885 325.587 257.886 325.185C257.888 324.683 257.702 324.515 257.518 323.844C257.335 323.174 256.778 322.837 256.779 322.335C256.781 321.933 256.412 320.938 256.227 320.491ZM256.227 320.491L254.931 318.644L253.261 317.467L252.146 317.128L250.473 316.62L249.17 316.615L249.367 313.435L250.496 309.755C251.058 308.584 252.183 306.11 252.185 305.574C252.187 305.038 254.925 302.234 256.294 300.899L260.769 298.068L268.215 297.089" stroke="url(#paint28_linear)" stroke-width="3.5"/>
<path d="M243.585 317.602C243.586 317.334 243.59 316.15 243.592 315.592L241.734 314.581C241.487 314.245 240.957 313.473 240.809 313.071C240.625 312.568 240.813 312.066 240.814 311.564C240.816 311.162 240.819 310.057 240.821 309.554L241.756 308.218L243.619 307.554L242.882 305.375L243.63 304.205C243.817 304.039 244.302 303.672 244.749 303.539C245.196 303.407 246.301 303.154 246.797 303.044" stroke="url(#paint29_linear)" stroke-width="3.5"/>
<path d="M184.438 119.653L164.925 107.911L186.783 98.3517L184.438 119.653Z" stroke="url(#paint30_linear)" stroke-width="3.5"/>
<path d="M109.133 83.3013L89.6196 71.5596L111.477 62.0002L109.133 83.3013Z" stroke="url(#paint31_linear)" stroke-width="3.5"/>
<path d="M344.333 190.127L334.323 145.5L383.897 160.805L344.333 190.127Z" stroke="url(#paint32_linear)" stroke-width="3.5"/>
<path d="M344.333 190.127L334.323 145.5L383.897 160.805L344.333 190.127Z" stroke="url(#paint33_linear)" stroke-width="3.5"/>
<path d="M14.9424 76.5887L29.2373 80.2593L18.4854 89.7618L14.9424 76.5887Z" stroke="url(#paint34_linear)" stroke-width="3.5"/>
<path d="M920.128 756.021L903.62 750.158L917.628 740L920.128 756.021Z" stroke="url(#paint35_linear)" stroke-width="3.5"/>
<path d="M794.784 824.716L745.62 807.254L787.339 777L794.784 824.716Z" stroke="url(#paint36_linear)" stroke-width="3.5"/>
<path d="M198.268 11.0079L187.544 36.8223L167.619 15.3572L198.268 11.0079Z" stroke="url(#paint37_linear)" stroke-width="3.5"/>
<g clip-path="url(#clip2)">
<path d="M39.4746 449.799C41.8255 444.558 42.3795 440.63 40.2595 438.279C39.8475 437.825 39.3648 437.428 38.8265 437.098C37.1916 436.088 35.234 436.165 32.3224 434.365C29.4107 432.565 28.7855 430.891 27.153 429.882C26.5961 429.534 25.9881 429.257 25.3466 429.06C22.1442 428.121 18.2837 430.009 13.6847 433.856C8.98783 437.786 6.39854 441.585 8.11939 443.685C9.32477 445.155 11.5146 445.011 13.9959 444.34C16.8173 443.574 19.0897 444.206 22.9827 446.612C26.8757 449.019 28.2743 450.656 28.4953 453.304C28.6896 455.63 29.3888 457.541 31.2876 458.021C34.366 458.796 37.047 455.213 39.4746 449.799Z" stroke="#EC5D3B" stroke-miterlimit="10"/>
<path d="M29.0046 442.94C29.6761 443.355 30.594 443.201 31.0548 442.597C31.5155 441.993 31.3446 441.167 30.673 440.752C30.0014 440.337 29.0835 440.49 28.6228 441.094C28.1621 441.698 28.333 442.524 29.0046 442.94Z" fill="url(#paint38_linear)"/>
<path d="M29.8449 446.999C29.6042 446.85 29.418 446.641 29.3097 446.397C29.2015 446.153 29.176 445.885 29.2366 445.629C29.2972 445.372 29.4412 445.137 29.6502 444.954C29.8593 444.771 30.124 444.647 30.411 444.6C30.6979 444.552 30.9942 444.582 31.2622 444.686C31.5302 444.791 31.758 444.964 31.9167 445.184C32.0754 445.405 32.1578 445.663 32.1536 445.925C32.1494 446.188 32.0587 446.444 31.893 446.66C31.6713 446.949 31.3312 447.147 30.9472 447.211C30.5633 447.274 30.1668 447.198 29.8449 446.999V446.999Z" fill="url(#paint39_linear)"/>
<path d="M33.5158 442.186C34.1874 442.601 35.1053 442.448 35.566 441.843C36.0267 441.239 35.8558 440.413 35.1843 439.998C34.5127 439.583 33.5948 439.736 33.134 440.34C32.6733 440.944 32.8442 441.77 33.5158 442.186Z" fill="url(#paint40_linear)"/>
<path d="M34.3551 446.246C35.0267 446.661 35.9446 446.508 36.4054 445.904C36.8661 445.3 36.6952 444.474 36.0236 444.058C35.352 443.643 34.4341 443.796 33.9734 444.401C33.5126 445.005 33.6836 445.831 34.3551 446.246Z" fill="url(#paint41_linear)"/>
<path d="M23.8154 434.259L19.8111 439.51" stroke="#EC5D3B" stroke-linecap="round" stroke-linejoin="round"/>
<path d="M24.7322 438.687L18.8955 435.079" stroke="#EC5D3B" stroke-linecap="round" stroke-linejoin="round"/>
</g>
<path d="M9.11395 366.851L11.5306 367.471L13.3447 367.477L16.37 366.957L18.1858 366.433L20.0035 365.379L21.2165 364.322L21.8248 363.264L23.0396 361.677L23.6497 360.089L24.2598 358.5L24.2653 356.909L24.2725 354.788L23.6732 353.195L23.0739 351.602L21.2653 350.005L20.0595 348.941L19.4566 348.408L15.8339 346.805L12.8104 346.795L11.601 346.791L9.18047 347.313L7.36459 347.837L5.54691 348.891L3.72742 350.476L1.90612 352.591L1.29601 354.179L1.2924 355.24L1.2906 355.77C1.28939 356.124 1.28626 357.043 1.28338 357.891C1.28193 358.316 1.94618 360.663 1.94618 360.663M10.173 367.169C9.68921 367.167 5.6919 365.507 5.49094 365.329L4.88805 364.797L4.28517 364.265M4.38327 364.351L2.48012 361.607L1.87904 360.545" stroke="url(#paint42_linear)" stroke-width="3.5"/>
<path d="M511.188 430.634L510.968 495.183L579.267 495.416L575.661 443.017" stroke="url(#paint43_linear)" stroke-width="3.5"/>
<path d="M438.825 406.871L455.486 435.797L461.607 437.439L465.932 437.454L472.606 435.855L482.524 433.78M402.491 386.636C402.487 387.804 411.917 405.968 416.632 414.905L464.267 397.388L445.964 374.133L401.594 385.498" stroke="url(#paint44_linear)" stroke-width="3.5"/>
<path d="M417.729 410.043L407.171 388.274L445.95 378.189L458.686 395.586L417.729 410.043Z" stroke="url(#paint45_linear)" stroke-width="3.5"/>
<path d="M450.011 403.179C455.579 408.55 466.932 419.293 467.797 419.296C468.662 419.299 478.977 417.496 484.026 416.594" stroke="url(#paint46_linear)" stroke-width="3.5"/>
<path d="M532.751 395.675L532.714 406.542L528.024 407.661L528.016 410.256L530.269 415.523L539.254 423.665L553.962 411.458L553.977 407.263L548.933 406.597L547.894 394.105" stroke="url(#paint47_linear)" stroke-width="3.5"/>
<path d="M554.927 408.374L564.671 409.845M564.671 409.845L567.246 408.491L570.538 407.077L575.5 407.805L580.353 410.986L591.702 430.872L575.378 443.614L561.353 421.523L560.936 417.485L561.691 412.536L564.671 409.845Z" stroke="url(#paint48_linear)" stroke-width="3.5"/>
<path d="M577.1 443.346L586.621 451.974L595.614 457.195L602.455 459.164L608.943 459.187L614.724 454.827L622.534 383.978L618.029 383.963L614.956 386.71L611.519 390.753L611.487 399.997L611.469 405.187L602.516 441.324L590.837 431.067" stroke="url(#paint49_linear)" stroke-width="3.5"/>
<path d="M527.847 407.336C527.126 407.333 517.93 408.924 513.422 409.72M513.422 409.72L482.585 415.901L480.768 425.448L482.522 434.466L510.83 430.146L510.887 413.441L510.889 412.63L510.894 411.171L513.422 409.72Z" stroke="url(#paint50_linear)" stroke-width="3.5"/>
<path d="M555.466 657.842L555.45 662.708M555.45 662.708L553.467 662.701L550.766 662.043L547.528 660.572L545.729 659.593L543.386 659.585L540.503 659.575M555.45 662.708L557.249 663.363L557.245 664.66L557.219 672.283L515.411 672.141L515.413 671.492L515.423 668.572L516.15 666.629L518.137 665.338L537.259 659.564L538.701 659.569L540.503 659.575M540.503 659.575L539.788 657.789" stroke="url(#paint51_linear)" stroke-width="3.5"/>
<path d="M548.258 657.656L537.986 657.621L535.957 509.81" stroke="url(#paint52_linear)" stroke-width="3.5"/>
<path d="M523.813 374.404L523.774 385.914L525.921 390.3L530.773 394.372L537.255 396.016L542.121 396.032L546.992 394.427L550.607 391.52L553.824 379.914L552.641 374.502" stroke="url(#paint53_linear)" stroke-width="3.5"/>
<path d="M512.409 495.349L496.912 653.751L499.255 653.759M554.387 657.028L559.288 657.045L559.558 577.843L575.841 495.565L536.376 495.431L536.242 534.865L524.537 569.793L527.755 592.695L527.698 609.417L517.095 653.819L499.255 653.759M499.255 653.759L499.244 656.84M499.244 656.84L496.361 656.83L475.615 663.409L474.529 664.703L473.804 665.836L473.798 667.782L473.792 669.566L515.96 669.71L515.988 661.276L514.91 660.462L511.847 660.451L508.066 659.465L504.469 657.345L499.244 656.84Z" stroke="url(#paint54_linear)" stroke-width="3.5"/>
<path d="M507.721 654.761L506.981 660.598" stroke="url(#paint55_linear)" stroke-width="3.5"/>
<path d="M762.059 475.302L762.045 479.352L764.112 482.319L765.497 482.324L767.928 480.307L772.258 479.387L771.071 472.372L767.972 467.376L763.139 463.153L755.357 460.634" stroke="url(#paint56_linear)" stroke-width="3.5"/>
<path d="M776.414 479.246L775.917 472.545L775.065 468.647L771.274 463.493L767.993 461.301L764.881 460.044L760.21 459.093L755.534 459.7L754.146 460.63L755.531 460.635" stroke="url(#paint57_linear)" stroke-width="3.5"/>
<path d="M775.064 469.15L777.653 471.496L778.678 475.55L777.624 479.909L780.386 482.255L781.932 485.844L781.91 492.232L778.602 497.829L773.402 499.837L768.382 499.82L763.899 494.351L762.703 489.829L763.928 485.783L765.845 482.206" stroke="url(#paint58_linear)" stroke-width="3.5"/>
<path d="M754.147 460.474L744.797 461.065L738.906 462.603L734.741 465.705L731.611 469.745L730.214 473.479L730.895 476.909L732.79 479.408L736.595 480.356M736.595 480.356L741.269 480.372L745.253 479.762L749.411 478.842L761.542 474.832L762.233 475.302M736.595 480.356L734.685 482.219L733.294 484.084L732.942 485.641L732.934 487.978L732.93 489.068L733.444 490.628L734.134 491.565L735.514 492.972L738.029 494.858" stroke="url(#paint59_linear)" stroke-width="3.5"/>
<path d="M671.359 543.869L634.576 535.747L646.414 507.227L680.052 507.341L671.359 543.869Z" stroke="url(#paint60_linear)" stroke-width="3.5"/>
<path d="M579.87 690.163L579.928 673.215L579.964 662.623L590.834 650.372L593.666 648.263" stroke="url(#paint61_linear)" stroke-width="3.5"/>
<path d="M750.422 514.908L753.753 504.326L749.05 503.039L743.4 503.02L741.069 496.233L741.084 491.995L741.099 487.335L741.117 482.25" stroke="url(#paint62_linear)" stroke-width="3.5"/>
<path d="M772.067 517.947L772.099 508.625L772.135 497.934" stroke="url(#paint63_linear)" stroke-width="3.5"/>
<path d="M800.601 572.278L794.439 584.545C791.292 586.935 788.276 596.981 786.385 599.347C784.494 601.714 783.859 603.858 782.597 605.69C780.862 608.368 776.164 614.481 771.258 617.515C766.351 620.549 756.006 626.079 751.447 628.464C749.408 628.175 735.167 625.528 732.159 624.161" stroke="url(#paint64_linear)" stroke-width="3.5"/>
<path d="M704.931 601.612L723.8 590.66L723.832 581.339L723.849 576.254L712.518 585.537L707.793 590.606L695.553 590.564L674.416 576.086L644.387 546.324L644.423 535.731L651.938 540.842L656.646 540.858L661.335 546.382L661.318 551.466L695.615 572.345L712.601 561.386" stroke="url(#paint65_linear)" stroke-width="3.5"/>
<path d="M709.311 559.68L704.624 553.733L729.674 525.006C731.092 523.174 734.589 519.345 737.228 518.676C739.867 518.007 745.87 515.598 748.541 514.477C750.263 515.895 753.8 518.732 754.176 518.733C754.553 518.735 758.092 521.007 759.814 522.142L765.934 522.163L772.537 518.796L778.201 514.578C782.72 514.594 798.571 523.687 805.931 528.231C807.337 530.072 810.147 534.601 810.135 537.991C810.124 541.381 810.094 550.137 810.08 554.092L802.014 572.707L782.732 566.535M782.732 566.535L782.818 541.288M782.732 566.535L780.034 572.633L775.375 584.863L772.295 589.978L762.805 603.928L753.873 607.711L736.912 611.467L725.155 607.614L704.453 603.73" stroke="url(#paint66_linear)" stroke-width="3.5"/>
<path d="M590.17 706.723L608.489 719.073L620.703 726.741C627.754 730.013 643.079 736.562 647.976 736.579C652.872 736.596 677.949 736.681 689.875 736.722L706.353 736.778C712.944 736.8 727.255 736.849 731.775 736.864C736.294 736.88 747.154 736.917 752.019 736.933L776.511 733.627C841.053 720.712 833.565 707.552 833.549 712.212M550.524 736.247L563.717 732.902L572.224 723.186L581.198 714.743L572.272 709.204L566.631 706.643L555.332 706.604L550.609 711.249L537.401 718.831L527.5 723.034L527.467 732.779L527.455 736.169L544.874 736.228L550.524 736.247Z" stroke="url(#paint67_linear)" stroke-width="3.5"/>
<path d="M580.259 713.891L622.27 681.409L626.063 673.371L630.318 668.301L644.028 651.4L654.888 642.115C663.362 642.144 680.969 642.204 683.606 642.213C686.901 642.224 698.2 642.263 702.908 642.279C706.674 642.292 711.382 642.308 723.163 638.958L728.813 638.776L736.348 638.156L742.006 635.633L742.019 631.819L732.158 624.159L719.479 614.795C720.265 614.232 717.885 612.925 715.251 612.238C712.616 611.551 657.653 613.454 630.501 614.492L622.451 628.023L611.117 638.577L605.434 648.303L589.83 668.163L582.236 686.357L573.239 701.58L568.046 705.799L568.042 707.07" stroke="url(#paint68_linear)" stroke-width="3.5"/>
<path d="M716.19 613.091L702.11 600.332C699.29 598.91 692.993 595.556 690.364 593.513C687.734 591.47 649.202 560.889 630.265 545.854C630.265 545.854 622.031 539.498 619.699 539.49C617.368 539.482 605.06 544.807 605.06 544.807L604.372 545.765L602.131 557.437L598.024 612.689L609.291 622.049L619.162 626.743L624.34 626.761C623.725 622.945 622.496 615.217 622.505 612.772C622.518 608.959 623.21 589.895 622.617 579.724L661.109 612.904" stroke="url(#paint69_linear)" stroke-width="3.5"/>
<path d="M602.25 616.091L592.805 624.533L589.493 629.183L586.66 631.716L586.614 645.274L586.604 648.24C588.33 648.246 591.971 648.259 592.724 648.261C593.477 648.264 599.313 648.849 602.137 649.141L606.393 643.647C607.342 641.531 609.334 637.132 609.713 636.455C610.092 635.778 612.085 631.378 613.033 629.263L614.465 623.76" stroke="url(#paint70_linear)" stroke-width="3.5"/>
<path d="M723.853 574.983L737.607 545.37" stroke="url(#paint71_linear)" stroke-width="3.5"/>
<path d="M788.084 515.035L794.702 507.007L804.132 502.802L812.15 498.592L822.992 494.392L832.879 494.426L835.689 498.672L834.953 714.758" stroke="url(#paint72_linear)" stroke-width="3.5"/>
<path d="M623.925 610.233L630.549 600.51L638.094 597.146L643.273 597.163" stroke="url(#paint73_linear)" stroke-width="3.5"/>
<path d="M706.496 556.704L696.601 559.213C695.186 560.055 691.978 561.824 690.47 562.158C688.963 562.492 685.448 562.282 683.879 562.135L681.521 563.399" stroke="url(#paint74_linear)" stroke-width="3.5"/>
<path d="M549.333 404.413L555.749 402.452L560.369 398.322L558.022 381.912L555.872 366.223L551.09 358.997L543.093 354.824L536.694 352.098L528.275 354.233L522.658 356.917L518.837 361.41L513.784 375.092L509.934 388.057L507.71 394.177L509.9 398.15L516.295 402.318L519.727 394.218L521.695 404.319L526.502 404.335L528.318 400.376L531.309 404.352" stroke="#F38B31" stroke-width="3.5"/>
<path d="M524.561 361.185L520.997 374.395L529.599 374.424L532.222 369.646L532.208 373.749L536.249 373.763L538.23 366.133L539.766 374.459L553.843 374.507L553.095 364.474L541.122 358.962L524.561 361.185Z" stroke="#F38B31" stroke-width="3.5"/>
<defs>
<linearGradient id="paint0_linear" x1="281.468" y1="475.772" x2="238.183" y2="678.86" gradientUnits="userSpaceOnUse">
<stop stop-color="#E08B49"/>
<stop offset="0.953657" stop-color="#36357E"/>
</linearGradient>
<linearGradient id="paint1_linear" x1="216.704" y1="529.435" x2="201.502" y2="600.763" gradientUnits="userSpaceOnUse">
<stop offset="0.146351" stop-color="#F38B31"/>
<stop offset="0.958866" stop-color="#7474B4"/>
</linearGradient>
<linearGradient id="paint2_linear" x1="206.96" y1="564.635" x2="206.752" y2="565.612" gradientUnits="userSpaceOnUse">
<stop offset="0.146351" stop-color="#F38B31"/>
<stop offset="0.958866" stop-color="#7474B4"/>
</linearGradient>
<linearGradient id="paint3_linear" x1="156.5" y1="746.899" x2="168.175" y2="773.593" gradientUnits="userSpaceOnUse">
<stop stop-color="#E98A74"/>
<stop offset="0.390625" stop-color="#F38B31"/>
</linearGradient>
<linearGradient id="paint4_linear" x1="157.124" y1="425.25" x2="175.1" y2="408.564" gradientUnits="userSpaceOnUse">
<stop stop-color="#E98A74"/>
<stop offset="0.390625" stop-color="#F38B31"/>
</linearGradient>
<linearGradient id="paint5_linear" x1="401.594" y1="720.034" x2="401.526" y2="739.987" gradientUnits="userSpaceOnUse">
<stop offset="0.171875" stop-color="#F38B31"/>
<stop offset="0.713442" stop-color="#EFA93D"/>
<stop offset="0.713542" stop-color="#EFA93D"/>
<stop offset="0.921875" stop-color="#FBBD15"/>
</linearGradient>
<linearGradient id="paint6_linear" x1="432.295" y1="640.716" x2="444.728" y2="657.86" gradientUnits="userSpaceOnUse">
<stop stop-color="#E98A74"/>
<stop offset="0.390625" stop-color="#F38B31"/>
</linearGradient>
<linearGradient id="paint7_linear" x1="203.266" y1="313.249" x2="184.911" y2="341.082" gradientUnits="userSpaceOnUse">
<stop stop-color="#F38B31"/>
<stop offset="0.688027" stop-color="#7474B4"/>
</linearGradient>
<linearGradient id="paint8_linear" x1="199.378" y1="324.164" x2="197.084" y2="327.643" gradientUnits="userSpaceOnUse">
<stop stop-color="#F3923D"/>
</linearGradient>
<linearGradient id="paint9_linear" x1="200.443" y1="330.357" x2="198.149" y2="333.836" gradientUnits="userSpaceOnUse">
<stop stop-color="#F3923D"/>
</linearGradient>
<linearGradient id="paint10_linear" x1="206.259" y1="323.21" x2="203.965" y2="326.689" gradientUnits="userSpaceOnUse">
<stop stop-color="#F3923D"/>
</linearGradient>
<linearGradient id="paint11_linear" x1="207.323" y1="329.403" x2="205.029" y2="332.882" gradientUnits="userSpaceOnUse">
<stop stop-color="#F3923D"/>
</linearGradient>
<linearGradient id="paint12_linear" x1="342.885" y1="578.989" x2="342.84" y2="592.217" gradientUnits="userSpaceOnUse">
<stop stop-color="#F38B31"/>
<stop offset="0.0001" stop-color="#EF743D"/>
<stop offset="0.979699" stop-color="#F38B31"/>
</linearGradient>
<linearGradient id="paint13_linear" x1="342.94" y1="590.041" x2="342.937" y2="591.041" gradientUnits="userSpaceOnUse">
<stop offset="0.823447" stop-color="#F38B31"/>
</linearGradient>
<linearGradient id="paint14_linear" x1="267.594" y1="588.277" x2="267.533" y2="606.361" gradientUnits="userSpaceOnUse">
<stop offset="0.823447" stop-color="#F38B31"/>
</linearGradient>
<linearGradient id="paint15_linear" x1="267.568" y1="595.812" x2="267.539" y2="604.352" gradientUnits="userSpaceOnUse">
<stop offset="0.823447" stop-color="#F38B31"/>
<stop offset="1" stop-color="#100700" stop-opacity="0"/>
</linearGradient>
<linearGradient id="paint16_linear" x1="260.276" y1="578.708" x2="260.242" y2="588.923" gradientUnits="userSpaceOnUse">
<stop stop-color="#F38B31"/>
<stop offset="0.0001" stop-color="#EF743D"/>
<stop offset="0.979699" stop-color="#F38B31"/>
</linearGradient>
<linearGradient id="paint17_linear" x1="328.556" y1="570.913" x2="331.571" y2="580.953" gradientUnits="userSpaceOnUse">
<stop stop-color="#F38B31"/>
<stop offset="0.0001" stop-color="#EF743D"/>
<stop offset="0.979699" stop-color="#F38B31"/>
</linearGradient>
<linearGradient id="paint18_linear" x1="257.396" y1="441.224" x2="256.93" y2="578.194" gradientUnits="userSpaceOnUse">
<stop stop-color="#F38B31"/>
<stop offset="0.0001" stop-color="#EF743D"/>
<stop offset="0.979699" stop-color="#F38B31"/>
</linearGradient>
<linearGradient id="paint19_linear" x1="321.478" y1="444.959" x2="321.043" y2="572.887" gradientUnits="userSpaceOnUse">
<stop stop-color="#EF743D"/>
<stop offset="0.0001" stop-color="#EF743D"/>
<stop offset="0.953657" stop-color="#F28B31"/>
</linearGradient>
<linearGradient id="paint20_linear" x1="204.005" y1="330.025" x2="203.732" y2="410.064" gradientUnits="userSpaceOnUse">
<stop stop-color="#EF743D"/>
<stop offset="0.0001" stop-color="#EF743D"/>
<stop offset="0.344271" stop-color="#F28B31"/>
<stop offset="0.865114" stop-color="#F28B31"/>
</linearGradient>
<linearGradient id="paint21_linear" x1="354.066" y1="355.15" x2="353.918" y2="398.687" gradientUnits="userSpaceOnUse">
<stop stop-color="#EF743D"/>
<stop offset="0.0001" stop-color="#EF743D"/>
<stop offset="0.344271" stop-color="#F28B31"/>
<stop offset="0.865114" stop-color="#F28B31"/>
</linearGradient>
<linearGradient id="paint22_linear" x1="290.617" y1="356.274" x2="290.532" y2="381.057" gradientUnits="userSpaceOnUse">
<stop stop-color="#EF743D"/>
<stop offset="0.0001" stop-color="#EF743D"/>
<stop offset="0.344271" stop-color="#F28B31"/>
<stop offset="0.865114" stop-color="#F28B31"/>
</linearGradient>
<linearGradient id="paint23_linear" x1="286.376" y1="317.746" x2="286.322" y2="333.654" gradientUnits="userSpaceOnUse">
<stop stop-color="#EF743D"/>
<stop offset="0.0001" stop-color="#EF743D"/>
<stop offset="0.344271" stop-color="#F28B31"/>
<stop offset="0.865114" stop-color="#F28B31"/>
</linearGradient>
<linearGradient id="paint24_linear" x1="268.616" y1="315.174" x2="268.516" y2="344.478" gradientUnits="userSpaceOnUse">
<stop stop-color="#EF743D"/>
<stop offset="0.0001" stop-color="#EF743D"/>
<stop offset="0.344271" stop-color="#F28B31"/>
<stop offset="0.865114" stop-color="#F28B31"/>
</linearGradient>
<linearGradient id="paint25_linear" x1="247.51" y1="339.718" x2="247.454" y2="356.128" gradientUnits="userSpaceOnUse">
<stop stop-color="#EF743D"/>
<stop offset="0.0001" stop-color="#EF743D"/>
<stop offset="0.344271" stop-color="#F28B31"/>
<stop offset="0.865114" stop-color="#F28B31"/>
</linearGradient>
<linearGradient id="paint26_linear" x1="265.173" y1="342.791" x2="264.827" y2="444.598" gradientUnits="userSpaceOnUse">
<stop stop-color="#EF743D"/>
<stop offset="0.0001" stop-color="#EF743D"/>
<stop offset="0.865114" stop-color="#F28B31"/>
</linearGradient>
<linearGradient id="paint27_linear" x1="264.109" y1="355.011" x2="264.08" y2="363.551" gradientUnits="userSpaceOnUse">
<stop stop-color="#EF743D"/>
<stop offset="0.0001" stop-color="#EF743D"/>
<stop offset="0.344271" stop-color="#F28B31"/>
<stop offset="0.865114" stop-color="#F28B31"/>
</linearGradient>
<linearGradient id="paint28_linear" x1="265.111" y1="295.069" x2="264.961" y2="338.94" gradientUnits="userSpaceOnUse">
<stop stop-color="#EF743D"/>
<stop offset="0.0001" stop-color="#EF743D"/>
<stop offset="0.344271" stop-color="#F28B31"/>
<stop offset="0.865114" stop-color="#F28B31"/>
</linearGradient>
<linearGradient id="paint29_linear" x1="243.779" y1="303.034" x2="243.729" y2="317.602" gradientUnits="userSpaceOnUse">
<stop stop-color="#EF743D"/>
<stop offset="0.0001" stop-color="#EF743D"/>
<stop offset="0.344271" stop-color="#F28B31"/>
<stop offset="0.865114" stop-color="#F28B31"/>
</linearGradient>
<linearGradient id="paint30_linear" x1="176.694" y1="102.764" x2="184.138" y2="119.784" gradientUnits="userSpaceOnUse">
<stop stop-color="#E98A74"/>
<stop offset="0.390625" stop-color="#F38B31"/>
<stop offset="0.724486" stop-color="#36357E"/>
</linearGradient>
<linearGradient id="paint31_linear" x1="101.389" y1="66.4122" x2="108.833" y2="83.4324" gradientUnits="userSpaceOnUse">
<stop stop-color="#E98A74"/>
<stop offset="0.390625" stop-color="#F38B31"/>
<stop offset="0.880739" stop-color="#7474B4"/>
</linearGradient>
<linearGradient id="paint32_linear" x1="361.017" y1="153.741" x2="349.309" y2="191.663" gradientUnits="userSpaceOnUse">
<stop stop-color="#E98A74"/>
<stop offset="0.390625" stop-color="#F38B31"/>
<stop offset="0.750529" stop-color="#7474B4"/>
</linearGradient>
<linearGradient id="paint33_linear" x1="361.017" y1="153.741" x2="349.309" y2="191.663" gradientUnits="userSpaceOnUse">
<stop stop-color="#E98A74"/>
<stop offset="0.390625" stop-color="#F38B31"/>
<stop offset="0.750529" stop-color="#7474B4"/>
</linearGradient>
<linearGradient id="paint34_linear" x1="23.4478" y1="85.376" x2="15.3574" y2="76.2219" gradientUnits="userSpaceOnUse">
<stop stop-color="#E98A74"/>
<stop offset="0.390625" stop-color="#F38B31"/>
</linearGradient>
<linearGradient id="paint35_linear" x1="911.163" y1="744.688" x2="919.638" y2="756.376" gradientUnits="userSpaceOnUse">
<stop offset="0.44844" stop-color="#7474B4"/>
<stop offset="0.901573" stop-color="#F38B31"/>
</linearGradient>
<linearGradient id="paint36_linear" x1="768.084" y1="790.963" x2="793.327" y2="825.773" gradientUnits="userSpaceOnUse">
<stop stop-color="#E98A74"/>
<stop offset="0.390625" stop-color="#F38B31"/>
<stop offset="0.568234" stop-color="#7474B4"/>
</linearGradient>
<linearGradient id="paint37_linear" x1="176.815" y1="25.2641" x2="195.447" y2="7.96925" gradientUnits="userSpaceOnUse">
<stop stop-color="#E98A74"/>
<stop offset="0.390625" stop-color="#F38B31"/>
</linearGradient>
<linearGradient id="paint38_linear" x1="30.673" y1="440.752" x2="29.2332" y2="443.081" gradientUnits="userSpaceOnUse">
<stop stop-color="#F3923D"/>
<stop offset="1" stop-color="#EBB375"/>
</linearGradient>
<linearGradient id="paint39_linear" x1="31.5133" y1="444.811" x2="30.0735" y2="447.14" gradientUnits="userSpaceOnUse">
<stop stop-color="#F3923D"/>
<stop offset="1" stop-color="#EBB375"/>
</linearGradient>
<linearGradient id="paint40_linear" x1="35.1843" y1="439.998" x2="33.7444" y2="442.327" gradientUnits="userSpaceOnUse">
<stop stop-color="#F3923D"/>
<stop offset="1" stop-color="#EBB375"/>
</linearGradient>
<linearGradient id="paint41_linear" x1="36.0236" y1="444.058" x2="34.5838" y2="446.388" gradientUnits="userSpaceOnUse">
<stop stop-color="#F3923D"/>
<stop offset="1" stop-color="#EBB375"/>
</linearGradient>
<linearGradient id="paint42_linear" x1="12.8104" y1="346.795" x2="12.74" y2="367.475" gradientUnits="userSpaceOnUse">
<stop offset="0.171875" stop-color="#F38B31"/>
<stop offset="0.713442" stop-color="#EFA93D"/>
<stop offset="0.713542" stop-color="#EFA93D"/>
<stop offset="0.921875" stop-color="#FBBD15"/>
</linearGradient>
<linearGradient id="paint43_linear" x1="545.337" y1="430.75" x2="545.117" y2="495.3" gradientUnits="userSpaceOnUse">
<stop offset="0.615109" stop-color="#F38B31"/>
<stop offset="1" stop-color="#EF743D"/>
</linearGradient>
<linearGradient id="paint44_linear" x1="442.18" y1="374.12" x2="404.309" y2="387.195" gradientUnits="userSpaceOnUse">
<stop offset="0.177602" stop-color="#EF743D"/>
<stop offset="0.615109" stop-color="#F38B31"/>
</linearGradient>
<linearGradient id="paint45_linear" x1="432.975" y1="378.144" x2="432.867" y2="410.095" gradientUnits="userSpaceOnUse">
<stop stop-color="#F38B31"/>
<stop offset="0.84428" stop-color="#7474B4"/>
</linearGradient>
<linearGradient id="paint46_linear" x1="467.041" y1="403.237" x2="466.986" y2="419.293" gradientUnits="userSpaceOnUse">
<stop offset="0.615109" stop-color="#F38B31"/>
<stop offset="1" stop-color="#EF743D"/>
</linearGradient>
<linearGradient id="paint47_linear" x1="541.046" y1="394.081" x2="540.973" y2="415.49" gradientUnits="userSpaceOnUse">
<stop offset="0.615109" stop-color="#F38B31"/>
<stop offset="1" stop-color="#EF743D"/>
</linearGradient>
<linearGradient id="paint48_linear" x1="575.921" y1="406.63" x2="578.931" y2="442.866" gradientUnits="userSpaceOnUse">
<stop offset="0.615109" stop-color="#EF743D"/>
<stop offset="0.781779" stop-color="#F38B31"/>
</linearGradient>
<linearGradient id="paint49_linear" x1="599.918" y1="383.901" x2="599.662" y2="459.155" gradientUnits="userSpaceOnUse">
<stop offset="0.615109" stop-color="#F38B31"/>
<stop offset="1" stop-color="#EF743D"/>
</linearGradient>
<linearGradient id="paint50_linear" x1="505.231" y1="407.259" x2="505.121" y2="439.534" gradientUnits="userSpaceOnUse">
<stop offset="0.615109" stop-color="#F38B31"/>
<stop offset="1" stop-color="#EF743D"/>
</linearGradient>
<linearGradient id="paint51_linear" x1="536.364" y1="657.777" x2="536.315" y2="672.212" gradientUnits="userSpaceOnUse">
<stop offset="0.615109" stop-color="#F38B31"/>
<stop offset="1" stop-color="#EF743D"/>
</linearGradient>
<linearGradient id="paint52_linear" x1="542.287" y1="558.703" x2="541.951" y2="657.635" gradientUnits="userSpaceOnUse">
<stop offset="0.615109" stop-color="#F38B31"/>
<stop offset="1" stop-color="#EF743D"/>
</linearGradient>
<linearGradient id="paint53_linear" x1="537.25" y1="371.038" x2="537.165" y2="396.015" gradientUnits="userSpaceOnUse">
<stop offset="0.615109" stop-color="#F38B31"/>
<stop offset="1" stop-color="#EF743D"/>
</linearGradient>
<linearGradient id="paint54_linear" x1="525.113" y1="495.392" x2="524.52" y2="669.739" gradientUnits="userSpaceOnUse">
<stop offset="0.260936" stop-color="#FA7035"/>
<stop offset="1" stop-color="#EF743D"/>
</linearGradient>
<linearGradient id="paint55_linear" x1="507.361" y1="654.76" x2="507.341" y2="660.599" gradientUnits="userSpaceOnUse">
<stop offset="0.615109" stop-color="#F38B31"/>
<stop offset="1" stop-color="#EF743D"/>
</linearGradient>
<linearGradient id="paint56_linear" x1="763.84" y1="460.663" x2="763.766" y2="482.318" gradientUnits="userSpaceOnUse">
<stop offset="0.615109" stop-color="#F38B31"/>
<stop offset="1" stop-color="#EF743D"/>
</linearGradient>
<linearGradient id="paint57_linear" x1="765.317" y1="459.11" x2="765.248" y2="479.208" gradientUnits="userSpaceOnUse">
<stop offset="0.615109" stop-color="#F38B31"/>
<stop offset="1" stop-color="#EF743D"/>
</linearGradient>
<linearGradient id="paint58_linear" x1="772.381" y1="469.141" x2="772.276" y2="499.833" gradientUnits="userSpaceOnUse">
<stop offset="0.615109" stop-color="#F38B31"/>
<stop offset="1" stop-color="#EF743D"/>
</linearGradient>
<linearGradient id="paint59_linear" x1="746.271" y1="460.447" x2="746.155" y2="494.566" gradientUnits="userSpaceOnUse">
<stop offset="0.615109" stop-color="#F38B31"/>
<stop offset="1" stop-color="#EF743D"/>
</linearGradient>
<linearGradient id="paint60_linear" x1="648.101" y1="500.084" x2="671.731" y2="552.382" gradientUnits="userSpaceOnUse">
<stop offset="0.0317656" stop-color="#7474B4"/>
<stop offset="0.615109" stop-color="#F38B31"/>
</linearGradient>
<linearGradient id="paint61_linear" x1="586.839" y1="648.24" x2="586.696" y2="690.187" gradientUnits="userSpaceOnUse">
<stop stop-color="#EF7844"/>
<stop offset="0.672402" stop-color="#F38B31"/>
</linearGradient>
<linearGradient id="paint62_linear" x1="747.473" y1="482.272" x2="747.361" y2="514.898" gradientUnits="userSpaceOnUse">
<stop stop-color="#EF7844"/>
<stop offset="0.672402" stop-color="#F38B31"/>
</linearGradient>
<linearGradient id="paint63_linear" x1="775.872" y1="478.554" x2="775.738" y2="517.959" gradientUnits="userSpaceOnUse">
<stop stop-color="#EF7844"/>
<stop offset="0.672402" stop-color="#F38B31"/>
</linearGradient>
<linearGradient id="paint64_linear" x1="766.469" y1="572.162" x2="766.277" y2="628.515" gradientUnits="userSpaceOnUse">
<stop stop-color="#EF7844"/>
<stop offset="0.672402" stop-color="#F38B31"/>
</linearGradient>
<linearGradient id="paint65_linear" x1="684.205" y1="535.867" x2="683.981" y2="601.541" gradientUnits="userSpaceOnUse">
<stop stop-color="#EF7844"/>
<stop offset="0.672402" stop-color="#F38B31"/>
</linearGradient>
<linearGradient id="paint66_linear" x1="757.486" y1="514.508" x2="757.156" y2="611.536" gradientUnits="userSpaceOnUse">
<stop stop-color="#EF7844"/>
<stop offset="0.672402" stop-color="#F38B31"/>
</linearGradient>
<linearGradient id="paint67_linear" x1="602.809" y1="716.195" x2="862.809" y2="680.695" gradientUnits="userSpaceOnUse">
<stop stop-color="#F38B31"/>
<stop offset="1" stop-color="#36357E"/>
</linearGradient>
<linearGradient id="paint68_linear" x1="655.226" y1="611.901" x2="654.878" y2="714.145" gradientUnits="userSpaceOnUse">
<stop stop-color="#EF7844"/>
<stop offset="0.672402" stop-color="#F38B31"/>
</linearGradient>
<linearGradient id="paint69_linear" x1="657.352" y1="540.861" x2="657.06" y2="626.872" gradientUnits="userSpaceOnUse">
<stop stop-color="#EF7844"/>
<stop offset="0.672402" stop-color="#F38B31"/>
</linearGradient>
<linearGradient id="paint70_linear" x1="600.602" y1="616.085" x2="600.489" y2="649.135" gradientUnits="userSpaceOnUse">
<stop stop-color="#EF7844"/>
<stop offset="0.672402" stop-color="#F38B31"/>
</linearGradient>
<linearGradient id="paint71_linear" x1="730.78" y1="545.346" x2="730.679" y2="575.006" gradientUnits="userSpaceOnUse">
<stop stop-color="#EF7844"/>
<stop offset="0.672402" stop-color="#F38B31"/>
</linearGradient>
<linearGradient id="paint72_linear" x1="811.929" y1="494.354" x2="623.309" y2="808.695" gradientUnits="userSpaceOnUse">
<stop offset="0.000514993" stop-color="#F38B31"/>
<stop offset="0.458857" stop-color="#36357E"/>
</linearGradient>
<linearGradient id="paint73_linear" x1="633.621" y1="597.131" x2="633.576" y2="610.266" gradientUnits="userSpaceOnUse">
<stop stop-color="#EF7844"/>
<stop offset="0.672402" stop-color="#F38B31"/>
</linearGradient>
<linearGradient id="paint74_linear" x1="694.02" y1="556.662" x2="693.997" y2="563.441" gradientUnits="userSpaceOnUse">
<stop stop-color="#EF7844"/>
<stop offset="0.672402" stop-color="#F38B31"/>
</linearGradient>
<clipPath id="clip0">
<rect width="427.912" height="389.421" fill="white" transform="matrix(0.978126 0.208473 -0.253633 0.967175 119.373 371.98)"/>
</clipPath>
<clipPath id="clip1">
<rect width="55.3606" height="53.6227" fill="white" transform="matrix(0.834994 0.550659 -0.631026 0.775454 186.497 290.209)"/>
</clipPath>
<clipPath id="clip2">
<rect width="36.5894" height="35.2268" fill="white" transform="matrix(0.850772 0.525936 -0.606253 0.794972 21.4292 418.618)"/>
</clipPath>
</defs>
</svg>
